<mxfile host="app.diagrams.net" modified="2023-10-21T13:26:46.388Z" agent="Mozilla/5.0 (X11; Ubuntu; Linux x86_64; rv:109.0) Gecko/20100101 Firefox/118.0" etag="bb0oKnn7j8vYRyx7LqZ6" version="22.0.4" type="device" pages="2">
  <diagram id="uXrq8dg63rQhP6GeaV6V" name="PÃ¡gina-1">
    <mxGraphModel dx="2931" dy="610" grid="1" gridSize="10" guides="1" tooltips="1" connect="1" arrows="1" fold="1" page="1" pageScale="1" pageWidth="827" pageHeight="1169" math="0" shadow="0">
      <root>
        <mxCell id="0" />
        <mxCell id="1" parent="0" />
        <mxCell id="LZs2rjxKlA266blrwGbd-95" value="" style="edgeStyle=orthogonalEdgeStyle;rounded=0;orthogonalLoop=1;jettySize=auto;html=1;" parent="1" source="LZs2rjxKlA266blrwGbd-58" target="LZs2rjxKlA266blrwGbd-92" edge="1">
          <mxGeometry relative="1" as="geometry" />
        </mxCell>
        <mxCell id="LZs2rjxKlA266blrwGbd-58" value="&lt;div&gt;&lt;font style=&quot;font-size: 14px;&quot;&gt;&lt;br&gt;&lt;/font&gt;&lt;/div&gt;&lt;div&gt;&lt;font size=&quot;3&quot;&gt;&lt;b&gt;Raw Dataset&lt;/b&gt;&lt;/font&gt;&lt;/div&gt;&lt;font size=&quot;3&quot;&gt;&lt;b&gt;(1243, 45)&lt;/b&gt;&lt;/font&gt;" style="strokeWidth=2;html=1;shape=mxgraph.flowchart.database;whiteSpace=wrap;fillColor=#B9E0A5;" parent="1" vertex="1">
          <mxGeometry x="-1370" y="452.5" width="140" height="142.5" as="geometry" />
        </mxCell>
        <mxCell id="LZs2rjxKlA266blrwGbd-116" style="edgeStyle=orthogonalEdgeStyle;rounded=0;orthogonalLoop=1;jettySize=auto;html=1;entryX=0;entryY=0.5;entryDx=0;entryDy=0;" parent="1" source="LZs2rjxKlA266blrwGbd-101" target="LZs2rjxKlA266blrwGbd-114" edge="1">
          <mxGeometry relative="1" as="geometry" />
        </mxCell>
        <mxCell id="LZs2rjxKlA266blrwGbd-113" style="edgeStyle=orthogonalEdgeStyle;rounded=0;orthogonalLoop=1;jettySize=auto;html=1;entryX=0.5;entryY=0;entryDx=0;entryDy=0;" parent="1" source="LZs2rjxKlA266blrwGbd-104" target="LZs2rjxKlA266blrwGbd-111" edge="1">
          <mxGeometry relative="1" as="geometry" />
        </mxCell>
        <mxCell id="LZs2rjxKlA266blrwGbd-112" value="" style="edgeStyle=orthogonalEdgeStyle;rounded=0;orthogonalLoop=1;jettySize=auto;html=1;" parent="1" source="LZs2rjxKlA266blrwGbd-106" target="LZs2rjxKlA266blrwGbd-111" edge="1">
          <mxGeometry relative="1" as="geometry" />
        </mxCell>
        <mxCell id="LZs2rjxKlA266blrwGbd-120" value="" style="group" parent="1" vertex="1" connectable="0">
          <mxGeometry x="-600" y="431.87" width="280" height="183.75" as="geometry" />
        </mxCell>
        <mxCell id="LZs2rjxKlA266blrwGbd-106" value="" style="whiteSpace=wrap;html=1;rounded=0;fillColor=#FFFF99;" parent="LZs2rjxKlA266blrwGbd-120" vertex="1">
          <mxGeometry width="280" height="183.75" as="geometry" />
        </mxCell>
        <mxCell id="LZs2rjxKlA266blrwGbd-108" value="&lt;font style=&quot;font-size: 18px;&quot;&gt;&lt;b&gt;Model Development&lt;br&gt;&lt;/b&gt;&lt;/font&gt;" style="text;html=1;strokeColor=none;fillColor=none;align=center;verticalAlign=middle;whiteSpace=wrap;rounded=0;" parent="LZs2rjxKlA266blrwGbd-120" vertex="1">
          <mxGeometry y="151.25" width="180" height="30" as="geometry" />
        </mxCell>
        <mxCell id="LZs2rjxKlA266blrwGbd-127" value="" style="edgeStyle=orthogonalEdgeStyle;rounded=0;orthogonalLoop=1;jettySize=auto;html=1;" parent="LZs2rjxKlA266blrwGbd-120" source="LZs2rjxKlA266blrwGbd-109" target="LZs2rjxKlA266blrwGbd-110" edge="1">
          <mxGeometry relative="1" as="geometry" />
        </mxCell>
        <mxCell id="LZs2rjxKlA266blrwGbd-109" value="&lt;div&gt;&lt;b&gt;Stratified Cross-Validation&lt;/b&gt;&lt;/div&gt;&lt;div&gt;&lt;b&gt;k=10&lt;br&gt;&lt;/b&gt;&lt;/div&gt;" style="rounded=0;whiteSpace=wrap;html=1;fillColor=#FFE6CC;strokeColor=#999999;" parent="LZs2rjxKlA266blrwGbd-120" vertex="1">
          <mxGeometry x="20" y="48.75" width="110" height="70" as="geometry" />
        </mxCell>
        <mxCell id="LZs2rjxKlA266blrwGbd-110" value="&lt;div&gt;&lt;b&gt;Algorithm Benchmarking&lt;br&gt;&lt;/b&gt;&lt;/div&gt;" style="rounded=0;whiteSpace=wrap;html=1;fillColor=#FFE6CC;strokeColor=#999999;" parent="LZs2rjxKlA266blrwGbd-120" vertex="1">
          <mxGeometry x="150" y="48.75" width="110" height="70" as="geometry" />
        </mxCell>
        <mxCell id="LZs2rjxKlA266blrwGbd-121" value="" style="group" parent="1" vertex="1" connectable="0">
          <mxGeometry x="-1180" y="360" width="390" height="345" as="geometry" />
        </mxCell>
        <mxCell id="LZs2rjxKlA266blrwGbd-92" value="" style="rounded=0;whiteSpace=wrap;html=1;fillColor=#FFFF99;" parent="LZs2rjxKlA266blrwGbd-121" vertex="1">
          <mxGeometry y="70" width="370" height="187.5" as="geometry" />
        </mxCell>
        <mxCell id="LZs2rjxKlA266blrwGbd-93" value="&lt;font style=&quot;font-size: 18px;&quot;&gt;&lt;b&gt;Data Preparation&lt;/b&gt;&lt;/font&gt;" style="text;html=1;strokeColor=none;fillColor=none;align=center;verticalAlign=middle;whiteSpace=wrap;rounded=0;" parent="LZs2rjxKlA266blrwGbd-121" vertex="1">
          <mxGeometry x="10" y="225" width="150" height="30" as="geometry" />
        </mxCell>
        <mxCell id="LZs2rjxKlA266blrwGbd-96" value="&lt;div align=&quot;center&quot;&gt;&lt;font style=&quot;font-size: 14px;&quot;&gt;&lt;b&gt;&amp;nbsp;Data Transformation&lt;/b&gt;&lt;br&gt;&lt;/font&gt;&lt;/div&gt;" style="rounded=0;whiteSpace=wrap;html=1;align=center;verticalAlign=middle;fillColor=#FFE6CC;strokeColor=#999999;strokeWidth=2;" parent="LZs2rjxKlA266blrwGbd-121" vertex="1">
          <mxGeometry x="40" y="114.38" width="120" height="81.25" as="geometry" />
        </mxCell>
        <mxCell id="LZs2rjxKlA266blrwGbd-99" value="&lt;div align=&quot;center&quot;&gt;&lt;font style=&quot;font-size: 14px;&quot;&gt;&lt;b&gt;Resampling&lt;br&gt;&lt;/b&gt;&lt;/font&gt;&lt;/div&gt;" style="rounded=0;whiteSpace=wrap;html=1;align=center;verticalAlign=middle;fillColor=#FFE6CC;strokeColor=#999999;strokeWidth=2;" parent="LZs2rjxKlA266blrwGbd-121" vertex="1">
          <mxGeometry x="225" y="114.38" width="120" height="81.25" as="geometry" />
        </mxCell>
        <mxCell id="LZs2rjxKlA266blrwGbd-100" value="" style="endArrow=none;html=1;rounded=0;exitX=1;exitY=0.5;exitDx=0;exitDy=0;entryX=0;entryY=0.5;entryDx=0;entryDy=0;" parent="LZs2rjxKlA266blrwGbd-121" source="LZs2rjxKlA266blrwGbd-96" target="LZs2rjxKlA266blrwGbd-99" edge="1">
          <mxGeometry width="50" height="50" relative="1" as="geometry">
            <mxPoint x="260" y="240" as="sourcePoint" />
            <mxPoint x="310" y="190" as="targetPoint" />
          </mxGeometry>
        </mxCell>
        <mxCell id="LZs2rjxKlA266blrwGbd-101" value="&lt;div align=&quot;center&quot;&gt;&lt;font style=&quot;font-size: 14px;&quot;&gt;&lt;b&gt;VS1&lt;br&gt;&lt;/b&gt;&lt;/font&gt;&lt;/div&gt;" style="rounded=0;whiteSpace=wrap;html=1;align=center;verticalAlign=middle;fillColor=#E6E6E6;strokeColor=#999999;strokeWidth=2;" parent="LZs2rjxKlA266blrwGbd-121" vertex="1">
          <mxGeometry x="150" y="295" width="80" height="50" as="geometry" />
        </mxCell>
        <mxCell id="LZs2rjxKlA266blrwGbd-103" value="" style="endArrow=classic;html=1;rounded=0;entryX=0.5;entryY=0;entryDx=0;entryDy=0;" parent="LZs2rjxKlA266blrwGbd-121" target="LZs2rjxKlA266blrwGbd-101" edge="1">
          <mxGeometry width="50" height="50" relative="1" as="geometry">
            <mxPoint x="190" y="160" as="sourcePoint" />
            <mxPoint x="250" y="210" as="targetPoint" />
          </mxGeometry>
        </mxCell>
        <mxCell id="LZs2rjxKlA266blrwGbd-104" value="&lt;div align=&quot;center&quot;&gt;&lt;font style=&quot;font-size: 14px;&quot;&gt;&lt;b&gt;VS2&lt;/b&gt;&lt;/font&gt;&lt;/div&gt;" style="rounded=0;whiteSpace=wrap;html=1;align=center;verticalAlign=middle;fillColor=#E6E6E6;strokeColor=#999999;strokeWidth=2;" parent="LZs2rjxKlA266blrwGbd-121" vertex="1">
          <mxGeometry x="245" width="80" height="50" as="geometry" />
        </mxCell>
        <mxCell id="LZs2rjxKlA266blrwGbd-105" value="" style="edgeStyle=orthogonalEdgeStyle;rounded=0;orthogonalLoop=1;jettySize=auto;html=1;" parent="LZs2rjxKlA266blrwGbd-121" source="LZs2rjxKlA266blrwGbd-99" target="LZs2rjxKlA266blrwGbd-104" edge="1">
          <mxGeometry relative="1" as="geometry" />
        </mxCell>
        <mxCell id="LZs2rjxKlA266blrwGbd-126" value="" style="edgeStyle=orthogonalEdgeStyle;rounded=0;orthogonalLoop=1;jettySize=auto;html=1;" parent="1" source="LZs2rjxKlA266blrwGbd-122" edge="1">
          <mxGeometry relative="1" as="geometry">
            <mxPoint x="-600" y="524" as="targetPoint" />
          </mxGeometry>
        </mxCell>
        <mxCell id="LZs2rjxKlA266blrwGbd-122" value="&lt;div&gt;&lt;font style=&quot;font-size: 14px;&quot;&gt;&lt;br&gt;&lt;/font&gt;&lt;/div&gt;&lt;div&gt;&lt;font size=&quot;3&quot;&gt;&lt;b&gt;Pre-processed Dataset&lt;/b&gt;&lt;/font&gt;&lt;/div&gt;&lt;font size=&quot;3&quot;&gt;&lt;b&gt;(4082, 45)&lt;/b&gt;&lt;/font&gt;" style="strokeWidth=2;html=1;shape=mxgraph.flowchart.database;whiteSpace=wrap;fillColor=#B9E0A5;" parent="1" vertex="1">
          <mxGeometry x="-770" y="452.5" width="140" height="142.5" as="geometry" />
        </mxCell>
        <mxCell id="LZs2rjxKlA266blrwGbd-123" value="" style="group" parent="1" vertex="1" connectable="0">
          <mxGeometry x="-270" y="441.5" width="170" height="388.5" as="geometry" />
        </mxCell>
        <mxCell id="LZs2rjxKlA266blrwGbd-111" value="&lt;div&gt;&lt;font style=&quot;font-size: 14px;&quot;&gt;&lt;b&gt;&lt;font&gt;Model evaluation and&lt;/font&gt;&lt;/b&gt;&lt;/font&gt;&lt;/div&gt;&lt;div&gt;&lt;b&gt;&lt;font style=&quot;font-size: 14px;&quot;&gt;Tuning&lt;/font&gt;&lt;/b&gt;&lt;br&gt;&lt;/div&gt;" style="rhombus;whiteSpace=wrap;html=1;fillColor=#D4E1F5;" parent="LZs2rjxKlA266blrwGbd-123" vertex="1">
          <mxGeometry width="170" height="164.49" as="geometry" />
        </mxCell>
        <mxCell id="LZs2rjxKlA266blrwGbd-114" value="&lt;font style=&quot;font-size: 14px;&quot;&gt;&lt;b&gt;Final&amp;nbsp; Validation&lt;br&gt;&lt;/b&gt;&lt;/font&gt;" style="whiteSpace=wrap;html=1;fillColor=#E6E6E6;strokeColor=#999999;" parent="LZs2rjxKlA266blrwGbd-123" vertex="1">
          <mxGeometry x="25" y="208.5" width="120" height="60" as="geometry" />
        </mxCell>
        <mxCell id="LZs2rjxKlA266blrwGbd-115" value="" style="edgeStyle=orthogonalEdgeStyle;rounded=0;orthogonalLoop=1;jettySize=auto;html=1;" parent="LZs2rjxKlA266blrwGbd-123" source="LZs2rjxKlA266blrwGbd-111" target="LZs2rjxKlA266blrwGbd-114" edge="1">
          <mxGeometry relative="1" as="geometry" />
        </mxCell>
        <mxCell id="LZs2rjxKlA266blrwGbd-117" value="&lt;font style=&quot;font-size: 14px;&quot;&gt;&lt;b&gt;Proof-of-concept&lt;/b&gt;&lt;/font&gt;" style="ellipse;whiteSpace=wrap;html=1;rounded=1;arcSize=14;strokeWidth=2;fillColor=#FFCCE6;" parent="LZs2rjxKlA266blrwGbd-123" vertex="1">
          <mxGeometry x="5" y="308.5" width="160" height="80" as="geometry" />
        </mxCell>
        <mxCell id="LZs2rjxKlA266blrwGbd-119" value="" style="edgeStyle=orthogonalEdgeStyle;rounded=0;orthogonalLoop=1;jettySize=auto;html=1;" parent="LZs2rjxKlA266blrwGbd-123" source="LZs2rjxKlA266blrwGbd-114" target="LZs2rjxKlA266blrwGbd-117" edge="1">
          <mxGeometry relative="1" as="geometry" />
        </mxCell>
        <mxCell id="LZs2rjxKlA266blrwGbd-124" value="" style="edgeStyle=orthogonalEdgeStyle;rounded=0;orthogonalLoop=1;jettySize=auto;html=1;" parent="1" source="LZs2rjxKlA266blrwGbd-92" target="LZs2rjxKlA266blrwGbd-122" edge="1">
          <mxGeometry relative="1" as="geometry" />
        </mxCell>
        <mxCell id="vtx9cN1J-irdlNJoeMa6-8" value="" style="group" parent="1" vertex="1" connectable="0">
          <mxGeometry x="-1470" y="330" width="235.6500000000001" height="105.0142353970831" as="geometry" />
        </mxCell>
        <mxCell id="vtx9cN1J-irdlNJoeMa6-4" value="" style="html=1;shadow=0;dashed=0;align=center;verticalAlign=middle;shape=mxgraph.arrows2.jumpInArrow;dy=7.62;dx=36.68;arrowHead=55;rotation=30;fillColor=#66B2FF;" parent="vtx9cN1J-irdlNJoeMa6-8" vertex="1">
          <mxGeometry x="39.99521739130434" y="59.99695062499997" width="75.91695652173914" height="67.88865000000001" as="geometry" />
        </mxCell>
        <mxCell id="vtx9cN1J-irdlNJoeMa6-5" value="&lt;font style=&quot;font-size: 18px;&quot;&gt;&lt;b&gt;pXRF elemental data (features)&lt;/b&gt;&lt;/font&gt;" style="text;html=1;align=center;verticalAlign=middle;resizable=0;points=[];autosize=1;strokeColor=none;fillColor=none;" parent="vtx9cN1J-irdlNJoeMa6-8" vertex="1">
          <mxGeometry x="10.000000000000085" y="32.50999999999999" width="290" height="40" as="geometry" />
        </mxCell>
        <mxCell id="vtx9cN1J-irdlNJoeMa6-9" value="" style="group" parent="1" vertex="1" connectable="0">
          <mxGeometry x="-1450" y="600" width="315" height="133.12" as="geometry" />
        </mxCell>
        <mxCell id="vtx9cN1J-irdlNJoeMa6-6" value="" style="html=1;shadow=0;dashed=0;align=center;verticalAlign=middle;shape=mxgraph.arrows2.jumpInArrow;dy=9.41;dx=42.35;arrowHead=64.09;rotation=-15;fillColor=#66B2FF;" parent="vtx9cN1J-irdlNJoeMa6-9" vertex="1">
          <mxGeometry x="-10" y="-10.39" width="80.98" height="70.39" as="geometry" />
        </mxCell>
        <mxCell id="vtx9cN1J-irdlNJoeMa6-7" value="&lt;font style=&quot;font-size: 18px;&quot;&gt;&lt;b&gt;XRD Mineral Phase (Labels)&lt;br&gt;&lt;/b&gt;&lt;/font&gt;" style="text;html=1;align=center;verticalAlign=middle;resizable=0;points=[];autosize=1;strokeColor=none;fillColor=none;" parent="vtx9cN1J-irdlNJoeMa6-9" vertex="1">
          <mxGeometry x="55" y="59.99940362825963" width="260" height="40" as="geometry" />
        </mxCell>
        <mxCell id="InL_iVOp99nF5Z81d7aI-1" value="" style="shape=image;verticalLabelPosition=bottom;labelBackgroundColor=default;verticalAlign=top;aspect=fixed;imageAspect=0;image=data:image/jpeg,/9j/4AAQSkZJRgABAQAAAQABAAD/2wCEAAYGBgYHBgcICAcKCwoLCg8ODAwODxYQERAREBYiFRkVFRkVIh4kHhweJB42KiYmKjY+NDI0PkxERExfWl98fKcBBgYGBgcGBwgIBwoLCgsKDw4MDA4PFhAREBEQFiIVGRUVGRUiHiQeHB4kHjYqJiYqNj40MjQ+TERETF9aX3x8p//CABEIBkAC6wMBIgACEQEDEQH/xAAxAAEAAwEBAQAAAAAAAAAAAAAAAQIDBAUGAQEBAQEBAQAAAAAAAAAAAAAAAQIDBAX/2gAMAwEAAhADEAAAAvQiRCYAAAAAAAAEgAAAmBIAAAAAAExIAAAAABIgAAABMSAAAAAQCBLETAiYiIkViYWBGw6ZAgAAAAIAFJAJQAAAJRIAAABMSIkAAAAACQAEAAASAAAAAACAREpYiRETEImCsWqsCNh0yABCRAAQKJAAAKEAAAJgSABIAAAAAAASAAAAAASBAAAAAAEARMSwCIkRExEVtVYEbDpkAABEiEkCgAAAAAgAFAkAkAAAAAAJAAAAAAAEgACAAAAAIAiYhEwsAiJiIiYIiYl2HTIAAAAIFAAAAABACYkABUwJAASIkAAAAAAAAEgAAAEACSEiEiAIkRExCJhYTBETEREwRExLsOmQAAExIBCYQKAAAJAQAAAABIUCQAAAAAAAAJiQAAAAAITEgACJgAgRETComCImIiJgiJhdhvIAAkiQAAhJIFASAAIAAAAAkALIAABBKosAkAAAAAAAABEokAARIgEAiJSxEwREwRExERMLsN5EkJAAAAACJJElAABAAAACYkABUxIKk14fNj0+bDtjzI5869vu+YmPr7eD7dXRNAAAAAAACQIAAAgEAgRETComCK2rERJdRvKQAAAAAAEpAAAAAAAEgAACkcMdfjZ7Rptxch73m6Wl83nssbZ2l5/ofC0Poev4/wBbU9tS9AAAAAASiQIAAAgCJgRMRESWImCImIqF2G8gAAAAAAJiQEhMAAAACYkAAAQ8ZdfOy9DlcOnlpXRy5X1HteT2V5ddsTVXWJ3p9AfKz27mPvfNdJ7yJ0AAAAAkAQAAABCYIiYETEsRMERMRETC7DeQAAAAAAExICAQkQmAACUSAADkPP4s789dOmHTlny93DuYa51036unlTlp6/FXLbfPLH0vP7l25Pb8ErNek9Tu8j16CgACYJRIAAEAAAQCImBExERMLETEREwuw3kAAAAAABIAAgAEJAgkAADwPX+dzY0rrjU7UJfn6cbHL1YaX7uj1bMmlF5eXt5U8PXfnX6vzpnN8zVz2e3byeqvUFQkAAAAAASBExCJgAiJERKIhCxFqxESNRuAAAAAASiQAAAEAAAAAJg8vye/z8Vryay9sU2TTm7+Ens83u29rTHNLcPozXz3H9T4RjOe0Ww6uXnq1dMtzp9XyfWrtFgAAAAKAJAETAEQCEwIREBYraCImI1G4AAAKllZJIJmILIkAEkAJJCRCYABIiYPnuXac3i0p6By9PPqd+/J04vH38FK93Dv5emd0SOfoxPmenn7JeHOt4X6Js6OqvfWoESIkAAAAJAABAlgEJgiJiICxFoKxKNBuAAATvz9xwaz0nE2sVw7MDTDs5TbHqwlpqucvTl0nFvTazjtWyAAAAfOb6cGbz6dsZuM66Wc+2G5z81pr2e/5X6E128zl093w+LGNtK80La6m+vo8+pt2RIAiYAJQJAAmBIAAIEsARMERMQiYFbVWImI1G4AABT0PI84+mt8rJ9PPzFj6WPlZPquX562d/VR4WmO/tPAmX3beAr3Y8Kx6Fonr5AQAADi8X6bwCvVx58tdd8daw211s8nTatcte3KW9Kowrq059L6JPred7NdXD34xqidQBAACQAACQAAQJUTAiYIiRAIi9ZaJiNBuAAAcvzH1fy5RYdfq8XsHyboxKdOHRj0dPped2cffyb8/ZNTaka5ufr5Zr2prb0/IBAAAHL1D52nscubG3nzi93T5nuHh5+vx6nFW2S74bZDp5e2zhrMnq+r43sVS1NSRYBAAJAAABIAAIEogRMEAi9JJzmIiCXQbgAkArydsHA75PPnvHnx6I86/cXldTPTldReZ0ycrqIGuIAAkARIjLYeLh7vmS+f7njdGb6/n4dRl521ZK5ptb465uXThprN/Wz7dSt4mgAITAkAABIAAABCYESliJghMCAiJiWImsajcASAAAAAIAkAAAAAAExIAAAFZZdSOLH0y+d5/wBDSPnY+gk8Do9qx5vdosAAkAAAAAkAAAJgARMASwCImCARExLFZiNRuSAAAAAEJEJAAAAUEAACQAKAAACAAAAAAJAFBACQAAASEJgAAgRAWImBEwRE1iImF1mJ1kAAAAACQBQAAAAAAAEgAACAAAAAAABIFAASiYAAATEgEJgEkJgRMQiYWIkREwRW1YitoXUbymBKBKBKBIgBMKlAAAAlAlEgAACYEgCAAAAJAAAAAFAASIAAATAlAlSDRncARMCJiETCxEwRW1YiJhdRvIAAAEokAAAAAAAkAAACYEgCAADLhl9N4d5faeTtZ6Dn2ssAAKAAASQAKlnFyx38M2jOvZqnm4+1xxy19CpTv5OS32nL1VAIiYWImCImIrEl0G8gACSAJAAAAAASQkAAAAASAAp52b3eRgxppjvz1nSbrSb01Nq46y7dnBSz6C3zPsdMdw1kKAEgQIHjaRlXprvE03pcrTC25evlFcanpcMVinr+b0HYNWImFiJgiJggiXQbykAAESBJCYABJCQAAAAAAJIkAHNp85m9e0687VlSL2Wjky0xz0lMaSlWmVkZ9Welu/p+LFnvM9OvFMTQAQ83r83LbeNJLwsItFRDI3x1wTlz2qV0v1HPF8I7OjK11aJVWLVWItBFbRLdLeQABJEgAAAAAAAAAAkAAByxy+bt38tzDBnordLPF1ckvG6OWb0yuq00Vu5tc3oZ20vauk1n7ngeh04+iOmABSPN15e/ma0vZM0irxiL5Kptjexg20OXotJnfOToxzhewasRMSxEwRExLoN5AAkAAAAgkAAAAAEgAAAj570/H579Dfh9DE5ulFimvnZ1li0bziUsbUI6+fo1Mo7OJZjWrTXn67M7ZRrn9DPL1bwFOHv8bLTppphMzazKuuFl9supeXDspXLlbyI9fs8n0Y2ibVny93Gla8+q+pfDe2ImFiJgiJiXQbyAmJAADPzpfS4/GzzfT5rc2b0eh5nuVppz11nqcfTWgsgCYkAAAGceFhjfl26HPTL2qeR1M259jVNnZWON+/WPM5/pOWzwem1GuvFhz3SvTh159E6dWNacvZXXOnq+T6+pA0eJ7Hk4d9bxJramlZY60R0Yb1rETdPA9/yTk9PyfUxOm+UWRw157b78vpy77Za0rJYraCsTEug3kASEcsb+Vw80t5y9HN5+vXOWI0k10x4D3OjxuuXGl946N/J7uuOgagAAADi7eCXwq2px6ytC79N9sZ8vp52tejat+nPfuid4Aw8X6LxFxvrl5+/lezy21jqjDlPUnl7+nPn9jx/XoNTDy/Q8rD1r8e0k6V5rOrjaG3ThBrPJyL6Hg67rp3V2kpntwWY59mNT6PJ6RWZi6RMSxEwViUXG4AKxzeF1cmNbW2iXjr156np8PKjXXo4zppz6S26+TUno87DN9Ho5oPX08v0uuLDUAAAcHfwS+LU8/eue1NTq6fL1zJ2x2rfo4u/U9K3P0deYJPg+r4eddFq4cus0pia2y2uN/S8z1+meX0+LtsDUx8D6b5zN27fH68T0Kc2tzGmI6J4pq3LtVrDq5869HTk2Z3xjSK00uX1iy7EaqJiWImCIIuNwkR5PpeDm06MtMar2cvSW2TZwdm0HH09Pnxw5+5wr49tp1K9HPHPW1s0dfRxdep66l+2AAAHH2ckvztsrce1kEma7RHRhdaTa0vrUxJpjau883RXnXamOqYWnPF3TCX9fzPW7Yjc1kKY7D5OPpvm8uq3HvhtrhpZWY2ObTsxa4p3rV710uby6JK9NcpY6KbasRMUiYlqQRExGg3JBx+b6Pl4s80chr63lJfc7PGzzfXrx9C+jyaTZa9OdLed6GEvBl6Hnlenng67Z7x3dvkev1yGoAA4+zCPl2k8ut6kslS000xrL07a86i0SqXx7Zx8/u495dfFdOnHW2LTS8WdXp8m3bnuNQABjsPl6fT+DlmytGm8dKz0eb2xnx+v5adVubS52tz9EufR030RK2ImBExLETBWJiNJidwDDyPW8vN4uXrxzbM8Tr2w2imkdK+t0cW1mvi+r4x1W831M2eal5eO8Jem/PKdHreH63XG6W5CYAAPlKer5XLpOuemdVkI1p0x2Xx04LUic9M+fry9GdfK7+LeaytGuefUme/P3J2dXD6HbAWAAAImTy/K+pzy+Z796ZvLfTZM8fRtZ5lvU0PP7OhaiYoQImBExLETBWJReYbkgx+e+l+XxXL255vB01jU6559832PPnKX0PQ8nss9F40bmk8nXz1x6dFJZx1oZNbR0703641G4BCYAHjezMfIz7fh8+m1s74ukzZja3Bvje+nJ046Kzx9pgmdZpfHezm7+fokx78O+zq3OmAoAABMSAASgTEwABCJgRMAERMSxEwRExF5idwB4Hv8APL83bHo53Li68dI682bea2yvfPWy+fT1V5/qccSz3UyMLLry+hw+llp0479sQlqAQmCYkQBjsPKz9nl568rXmvzvVlry8tZ9/Px3foYcjrm8V1SYiJrScvRS3rxPbkGoAAAAmJAAABJCYAhEwImAQImJYiYIiYi8m4AB4vD9N81jWdIri35NdNJ14OqTW9Kx1UiLJ2xuehjjQ9Lo8m81vTqzl6umJ78xBKAmBIAISAMvH91m+A9DwuW9eatrUt9TO+3VJyx7PXqef6JqAgUAAAAmJAAACRAAhEwAREwImJYiYIiYjQbgADLUfJV+p+a56wx6clp0V6Evn6vHGV60i85aWJlFOhdqfZpr1zIsRMAAEgAIkAARI5K9qObewkAAAAUAAABIAAAEhCYAgCAREwIkViYliJRcbgACQZaj5rg+z8vGvE0vnm9ODMt1YUjeMNU2jTss5vZtbpAoAAACUSAAAAAABCYkAAACgAABIAAABKJETAEAQCAQCK2rLESLjUAAkAAEc3UPPr6SPNv3jk03VEgAAAAABIAAAAAAAExMAAABQABMEgAOfGO558x3U8/jj2o+esv0Fvn7J9E+b6T23P0aQCAREwqJiKxMGg1AAExIAAAAAAAAAAAABIAAAAAAAEkAAAABQCQAy8H0vHxdfR8XTLp4NKVjOd1114++TTTDaL5zaM/X8zbT1x0kAiJhUEViYjQbgACYkAAAAAAAAAAAAATAlEgAAAAAEiAAAAAoSAAeNxa5YVtOsYO/OMfT5Oyzgw6+dd9uTTFvz7evXlxI9ZMdZAIiYVW1YiJiNBuAAJiQAAAAAAAAAAAAAACUCQAHP58exT57OX6KfnJPprfNdB7rh7bJAAAFJiQBlryR4sTplnpToRelc3eaylMt8jTS2ssOzLTPGaZevn0c/VAIiYWImIiJiNBuAAASgSryx2PNpHqvKuek5da1FAAAAAAAAAASjE08nk5822dKy3Zo1vW+bN5rE65K9vt+V9befUGoAkoAB53o+NHDtzWy06OTqidItlrDeuXPorZ1Xymt4razDn6+XF9zl6efpYiYIiYWImIiJiNBuAAAOLCmRszmJmVibQaZzeV08dq7GenQAAAAAAAmJBUy8LTkzYymubEaaS16LTmzalstJyulcuoctOjLb1fS+Y97pnpFgUAA+f8Af+YypMTlbs4+s1unK9qUsvGO+k9GO0bVtfTjx7PMT3817rGJgiJhYiYiImDQagADg6/JynomZmLRYI0K2iVtFoJmJzab0zrqRPQAAAAASAHnd/z0uOc1zaXnfNtpGnO5xatShE2VTSa2N/P7dNTzezlvp9G5unpkKAAy+Y+h+dyTWct+rm7C+kXkI0rl11yOm3OOzo8/0NufzfV86Tv6vO9S644mCImFiJiIiYNBqACDz6RriSrZE1F7xoV3rW3pz4qy9Kl41rneG3NppqNgAABIAIOTwfS8rNTXszc7r87KaxXGY0spWNWMnZPHvG/Vy72c+Xo+Zp6HrfN/SdYFgAHD8/7/AM9m3teuZp3+d6BppS8k6Y3rSMBNo3q3bz9OlPN9Xgyj1vJ9W3igqImCIlLUg0GoAy154xjSmYQSLRYm9JNtk605ugfPe55HVzu81ozuyvXUx23QoAkAAETHgcHTyyvR4PQwpdfFo3anPPV6XR5OPvq+P2+i+Zyi+jF6N+Lry7fG9vxNrfSfLfS7mosCgPN8D2PHxenOyS/ZzdBpthtJoitYzeK36uLpjfbK22vD3eZlb2fF9leCJjSImCImJUTBcagDl6uaOe/J05zKskzWxa1Mj055+jWkTzHk7ed6fN2Uray2lJK9nL1asDQBMSAAK2qfOcvThjWnXy9GZvG+UOnHp6ztSoIeP6/AfP8AZ5XbnVe7zu3jr0+LppvPm/RfOfQ9J1CwKEnzPD0YYuumPTGnVy9KR08/dJSt8avzdORt08XXXRpSacnZzxze14ftS8tb02iJgiJiVEwXGoBGO9Y8Xq5+vDmvXa5XoNctMyvRz5rfze6Jc+7HaSZi9NKyX0x0t0GwCYkAARKPmufq586vvy64npV6sNRpSnR68YdEIlUeN6HykuPdxdObb1OHu5rVvTU8/wCg+e+i26hYFCD5Cs0xdenn6Mui+PXZGtWZvFLVFZzOrfn203g0vz7ZZcfq+V3Zumd6dERMERasqtoLjUhICPO4/Y8TN06uD02ctcOhLY7ZGddoljPW5nvl1zWVb1ubJkjSmulxqgCQAADweP0vOxrPp5ejM9acdimubpNfO7OeWuHDgtskxfqx3To6MNMXet+DUx+m+e+n0kWBSl8j5Sts8Xpvlrlv1cHUnRMWi0IKTaU01xnTrrF9GeuOXLtlMvdB0REwKyliJguidQkQkRw99Y8Lvx58XqvydVzpWZNa3qVvql5tL0qYmYlaaz3pppAoBMSAAAcHkfQ/P5vPtSuL6PRwdMa02z1K42zrl4vRwXi31kppTpzNNFs3Xye/n3Oz2+Dv2CwQThvzx8qTm6aZaZdXRydcbtKpErGdLLFNbm3RhppOV6RzzSZe1np0REwImsqJgtaJ1AAAM/L9jPN+c7GOXoa+Z2s7Xqt0lSXVRZe2Ertln1WTMNAAEwJAAA8T2+eXwMeimLOvL04umnP1kRrz2Vz35iMenaM9V4qzxq/RHqdG9jWQoBz9HNHysmbpfO8dfVy9WTfl6I2i+eszTSpW85m2nN2VHL0ckZ6Z7y9GnN09URIiJiWCDQjUlAkAAFeD0UfOx73Fm8foedrL6FeWqdlMuoy06p0DUAAAAAlAkAHled9N5Wb5UbUxdNuPbLvrjrm50vnU3rmm2WelufZ0ehuZ7G8phUokEDn6MY+VlObOmV8tfS831EaQjasTZE2xNM85L9WOlThpaML52lt1Z6dURIiJiWK2g0GoAAAAABMBKAAAAAAAAAmJAAAOXzvbS/OY/Sc2b4enqRHlT6useRr6+tef3bNwLAAAAFbSfIt+fFjbG0eh2cPfMxaYFsx1YZ3Im+Vm2mWssRFV5uuu5omOiAK2iWsSLjUAAAAAAAAAAAAAAAAkABEgAAAEokAAAAAAAA4fC+r5cvl9Ornzer0PH7pO6M5RF4MNsqHXPF2Ve2VY0zWl31rrsiY0RMCCWpBoNQAAAAAAAAAAAAAAAAAACQAAAJiQAAAAAAAABhvJ52HsI8OPdR4b28Y8evqcscnTFkm+3Wc3TdqwKQCJggS1iRcagAAAAAAAAAAAAAAAAAgkCYkAAATAkAAAAAAAAAEgAAAAACIBAEBETEqEGg1AAAAAAAAAAAAAAAAAAAExIAAAABKBKBIAAAAAAJRIAIJRBZkNWExsiSAQmBEwRExLETBoNAQAAAASQkQVLTkjQmoTAAAAAAAAAmJAAAAAAAAJRIAAAAV4I7/PYy9NertOCejM5dcOgxno4jm2ZYr0aXs6XP0biJgRMERaJYraC6GkgAIJMZeVL3c/Hrm90UyjfmYyrZ6G9ebbUtpz2OrbjpZ7F/C767omLAAAABIAAAAV8yPWy8GkvsU5u2SvTrw298cnXYTFJgSAAAVPD9f5vp56+hz5Gp6LSxXn6OEm9chjmxVovG/TWvSc/dx7G0TFiJgRMSwCRUgRMDDTwi9MtMaV0rC2d86XzzTq35M9KWrvZF+Prlbc6XprnOs+j2+f0bzumLJBEgAAAAKluHl87N1xt05V9fzO2Te1ezTm2qI5+qSmnJppuKAAAc3Txx4GltOO6b4b7z9DbyvU0wy08rLp87qrjUdXJ2VyehztTozteys78ldsTFiJgRMSxEiRSQRMHmedvhktWZVItnUYbClM9dTo1M1fGaz6ssLLxvETpWc66urg9Ded5pfeAoAAAAcEdHh45Ztq29KL9G2WYvlvqIpC9Na61noz1Jy1pE9XKt6hQADzfS8qPK6unh5avtzd1noac1K6fJ9TKXl9F5xtxd2ETNWp0T5149bDKm56sTFImBExLAJJoBhvwHi6ZXi18pzaJjOrTkN+adbJzuqOhka8mXbZy9Xm+vLpz3tjcd/FtZ6mnF29OcDUAAAVz8KOnzKxmrxrG3d5sM67c3ZWuuF9S3o8XTNGmBaaTZbPXAjWl4nfy/UtCgHh+54kvLXfDlXo4aJ0V0rXc831NMOXpmMsMeiXKnXNnJjasa9OXRp2jURIiJhUShMTQDy/U8s8Xp5OiR18voy+VO9c6xhEtqyKdHNara897M5q1OjurnjU18+2p6t4vz1p2+X2bz3DpgICnI+dlvqRSl2V898pLRn07nTXDqjpziq7ac+1m2nN128u+NkmlkZ47XOb0+HutCgHmen5svHaNOd1jp5Tp14eqyu3JudWHNgdPF6WUuPV5/ecURmOzi6z1LVt0zAITCwmITCpA4O/mPCppZM9uaY1rnaXONa51TW2UaVgs5dGaxk6tZ25ulLybcft2eH7PVnHPvh016Y3gBhv4R5/pc/o51hr2cieVe+eGlOjROLWc9zXfm2NSumuuVjRW5e+mMrMsXxvFe/i7bQoB899F87m2vXXF6uWyOrfLLU5+vl6o6ONx162fn7LzdNOg4uft2y8/pmT1pieuUSWAQCJiQBW0HyeumUnRnbQ5XRaXlvbCXSeq9lbXzrg109TN8TXTDG8+X1NNTPd0xhTepXtpt0xuKAfLfR/PR6XfwdGWPn6UuTSIr0Zzz3ry7WzrHS9+vOs7zpnaa2WvWtdWeegx1zshvlnTv4e6goB4nt+PL249iHFfLF1ywzN4rurDS1z5+saYuvVwtXfnpbGrbcvo2d6Y7cwVEwImCJiQADxvM9vw463Nqlenz9M3v5+rpM8+mnTMxt0Z152fZx2Ty7YY3vvzzjXbt53dqaY8t9Z6OrzPU1NAAcvj+v5EnZxaMyLYrNK6VKWzrnXYz25706MdamYalJX3nKbRZW8W1LUtWNbcdZrt6efooKAeb6XlRx9PHnLTfmtJ0y2l5umm671jhjfmmmbrz7QTXn3a17eD0j0YmO3IFRMCJEAAA5vmfrPlYhNUWztL1en43q2dGfTnqX6+DfnvPk9DnKcXbwK1jXGqb8utmO++XTMer4Pv2SADn8H6T5uTojDSZhpJFb0qMtamfby7Y109HJY2rE7mk1SqtLJnPQnGa1RfY325+hQoB5fqefHz8Y9xz9OPrHoaRsvLxevwFvP058WkV15aTEDHSbe3u8v2umLwbyCgQmCESAAR8r9X84cemUyVial/Q8657OvFMvrcnNlnXbzc0TV2loWi1VUiyLdE6m/fx9lyFAPC93gk8eVpLVoS85K6crb5uVsbV1za+bWJtbEWtrMdnLqvHp04WRMQkVi69u1bKFAOLtxj47XPQv7fkenHq35M678ua9cfPFOdmxnV85rixvTvrn9jyvV6ZDeQUAChIAA8T2/PPCpbSTOlqE3ztL3ObbN2iyaw1F6Nsc03rl02Y469Opnt0+cd/TE6gADPQfM2248TWs3kpfC9bWwodMVS+hbn1XetoK56X1MNerk1E2ol8ZoV1x3l9Ia0AAiR8bG1Mzu0imb2vK11OifN3I6ubrxcfR4Npa7dOC106uXU6uil9QKAAAoCQAMtYPkL3wiISWiNJI7uHaa68pZ0taF0ziIi2cVrpj2bzsx9e5CgAAOX576vGT5bp383Lqtz9CVrvhV+jm6Y2z3hW/P3almey5Zq2TnEpbPO5HqU3mg1RBMAmB87yfSeBhrpjbFnHXIp01764OyncZ3txx3ed6Famte2tBuAAAAUBIAAPnOT2fBi9IuT053jDTPqixXHS856VdjWzSGVvTGft3O9zWQAAAAHL1D53j+u55Pn9Ojkk0tjrHfE2mue9p6YjqzLPPfMm/LrGHrX2tBQpEwAAM9EY5dY8rH20eHT30eE9VL471tY5enadzPQoAAAACoAAAKfK/W+ZHgx065uFOjAjZrE3ztN1m/RZl1cXTrPHh39617jWQAAAAAAAGeg87m9pHh39XGTi0tTUbc3StI7dTk65KAAAiVQAAAACRAAAAAAAAAFJiQAABEjl8v3ol8ji9fysWNuW8uvVwbHRt5vbvNr36C+hqACABMCUCUCQAAACCQCQAAAAAAKRIgAAAkCAACAAmBKJAAAKTAlAlEgAACJHNh6CXzq+mPIn1pMtSwABAAAAAJgSiQAgTASASAAAAAAAAImKAAAlEwAgAAAAEwJABQACYkAAAAAAkAAAEAAAAAAAAAAlEgEgAAAAAAARMUAAmJImJgCAAAAAASiQCgAAJAAAAABKJAAAIAAAAAAAAAABIExIAgAEwJAAAiYBSq8PLly12a89z1bcfX0zMSIAAAAAAkAKAAAkAAAAACYEgAARIgAAAAAAAAAEokTAmAAAASAACJgjl38aKM9PP03259emfX8/pp0z1MtKAAAAAAATElAAASAAAAAQS5uU9Ovi5R7z5+8e7bw9z12eulUwAAAAAAAAASBMASQAACQAAIDh8fr4ud2tS3Peumdtzp9Lx+3ece/k6UtJoAAAAAAmJKAAAlEgAAAEeXrlGXP154cLoiML6Wi2nPWvT9Hye/TpraNoAAAAAAAABKBMBM1sIkQkRIAAARE854MVtw3pat4bZ3rXXDXee3m6eKvTRO4AAAAAAmBUAACYkAAAUv5hzb8sc5aas2ZkNaaxjXorqY9GOde7fz/Q6VEwAAAAAAAADzzfPyeyX0duPezcAAAAAgeb6XhRxaZ68Omk5zZujOzqnPbS/RydtmXZ5Xq0GoAAAAABUAACYkAAAr8/6nk4TfgR6N+PqxdK56JpKq6qUs05rRqa+r5Hdt2xK2AAAAAAADM5fKrWXTbO8uvf5ffrPoTlqAAAAImCPmfoPmc29qW471257amymiX1y0q+uF6deWJ6Q6ZAAAAAAqAABMSAACp4/NPPyX5tc9Ld1dMMezl2l2osRF7WZXmxNl9Trthv0sAAAAEkJgAeV6PhnHvx+vz1y7ZbkdvPtrO3d5XqaSCJAABAcHger5vPVdKW57vaujMbZ3W+mOll9MradXF14R6duHu64CgAAAAKgAATAkADk6/Kjg59eXDPTfWu3mpOLWN+WO+cLHbGN7KRONmunJfb0O3yPS1dQAAAEiAChw+bbPGqdVe3Lzt6SvRNI6Yt7HiehXaAAACE5nz2CvLVplja9NIvet4Wznc2vhpZ0VWsx9fw/WrYdMgAAAAVAAAmJAAHg+585ljh1Rln08vTm2LxaqZcNse7SnRz9KYV34rnHo5r7bel5fSvswaEwJgSACAT53b4kU6emuNZ9lt7PEp6fly6Ges6TXLU+jZaqAAA5enzDxNMt+HStpRaYmW9q2LWjbWcJWNNOfbUz2rz5e4ie+QAAAAKgAATEgAGHzvtePzvHdWyfR4t83acOvLG8RLN89KduGlzbmrnqct63mtNsrS+5fn6O2QAAABmedxYduL1JpL6LHGy3mWiXScq6zel62ep2+V6qhQADwfd+Zjn2pbh00rEkXSltKq12550EZRrlezo5ujOO/p8z0+sDUAAAAqAAACUSCDzfP7PP5Xfn6axz10mG2WhNqWidc9qtXKdSebo4yykzXRSLS+n3+R6/bAUAAA8n1PmzHvw35615N8yKxtLTfDsTnwtXpnatqRt7nkepVxQAGfy30fy+bppEceuk00ktasptnW1WrNanTKbLTrjG+uHobz53s+V3L0DpkAAACoUAEAARbCPDqcrrjYW1raOfRoZ20E00WZy57NuTfmqNMtrpNWXo+x5Xq9AWAACDz/J06YynHpiuetsavvlCxXDZOaFOmd4RHR3+b1V6goADzvnfZ8fF6Jz056vaLZFqrMUsL53VMRqb357HZ0cfR0zSu3Bl7iJ65AAAAqFAAAlAnh7vKzPNrbLndtc7xaqp06V9fbyqev5smddN45c+nDU5eec62UmavbO0dvt/Oe/puNwABx9nz5ROeTfn6Zd9q8Wb183Oa0vnLNI0byvhvZF8qS/TK20AEHz3Bvnz1e1Lc7pbOc62qkrFoJVguRZFok07eHbU2w6c9Z7ejzfS2DUAAAqFAAAAeN7PhZc9YtyTaNSLQPS7/ACuzrOnKec59cIwnh1ws5q6rc7zEu9L6RX2vH9e3rHTIAHN8x6njxvWo09TzvVzdfL9jQ+e6O/rl8ro7+M8+YlMdKX3ItXWPY34+ygpnpznzF8t+OpXnNiukzTTHezGPQyXkelpvHj26cIhlpjV743Oi2F9Zn2fF9Pc6B0gAAFRKAAAJI8H3vBy5bWjmtaJLTcZ3XOikxZTO+JnnfHRaLS53m1dNa5HZ3+N7C9g6ZAUvxHz2M6RF53jT3PM9OW1661SLc0V8/p4Jc9sapXfn21NK2Hb6fj+xQWuHu8yTwPR87t573z6Nk4YXxunbl3bxHRbTpmJKp4H0XhS89e/l5aztS2NaTmrbp472e6ie/MAAColSAAAEeB7/AM/lENOaEaEs7l753LVnNIx25tMoiKvpjrLat6V1cxK9vxPbXsHXADxfa+ajl06eaOvo59Jezq8Xprr7fJ6o7Oe/NLjwTWWcerm1mnd5/bZvjaxPteJ7dBa8b2fBjy/S83t531ejj00w5NceO9fY8fs6Y7dc69c7KVL+B28Evq8Ll5apat8amaWtvKNY9no830uuAoAFgQAAABHz30PzmU3w15rTEkTMmk0saYWysjm6MNSlLwuemVl6Lc+ssJS39zxPdroHXIFPlvp/l5O/l684rakSqLtZdGV8uu3FezOL86a899dSvXnYpthB3evxdtBa+d+i+bjh3y2477ejhkia2zb93mdm8+rK/XHDzelwy8efVhi159scpnO81aa2mp0y0uev1fL9TrgNwAFhEwAAABHz/wBB4OXHrjbDqV0iLUg0vjuRlellOW9NxExNRe1IbY6rF4vLX6DwvoNLjpkCPmPqOGTy2VMuvPW9cOvfxS5KxLZjNm2Vq1XojqSd+aTO+PsHXaJtCnz/ANB89F+Tu4uO7jFgjUa46J6Pd4W2563BlhZthOfPUxMRVatsxVNaWt6WpfrrbtzCgEBAiQAAAR5/o5x8r0xXm2VRvW8lLK1ry7ctkxaFxtFitJE646rat/SWPVpfpkKARKOPyPosDxN8+dPW5+aTLn6cJV60JnOT0tvN6I0w7uuuL2K3qUKCHjezQ+Ynq5uW9opXF1rRcxfO+pe1dTLHurZyz3by+U9nWvF29i2nndPTNmd7NAAAIEQBMCQAAIkcfi/SZ5eDPp8eVNM6GmWVUvXDoWarRWL71xX9Psrx/R77aZayoCUCQAIkZ+b61T5rP6ap84+hmPBt71q8bq9Cxza6isyAAAAK57DCOgYNhlOozm4pNlQkQkAAAAECYIAgACYkAAAQEVuMsupHnV9Iebp3jhv1jHS6okAAAAEwJRIABAIkExIAAAAAAAAAAFAACCYACUCUCYAIAAgACYEokAgAACQAAAAAAAAAAAlEggAAkABAlAlAlEgAgmACgAAAAAAAAAAgACAAAAAAAAJgSiQiQAAAAQSgSiQAAAAAAAAAAAAAAAKAQAAEokEEgAACABAAAAAAAAAAAABKBKBMAAAABKJAAAAAAAAAAAAAAogTACCUCQAAJgSiQREwAAAH/8QAAv/aAAwDAQACAAMAAAAhSmCCCCCy++iCCSuCCW8888oAAM888C++++qCHd9BpqUH78qCCuCCGf8A/YQgggtihvvvEIAAAPPMAAvvvgghnvfQbemHw9Kgggsjn/cQQQPvvvrlvoggAADHPAAADPPOAgnvvCQfQqOA1KvrnqkswQQRTff/AP74LoJ7zzzzAAAxzzzwAA7777wn1cCgMEb777768EH3333/APrDCuW+wgAAMM8888gAAU++6yytR/WgDBW++++qC39999xDDDDH/S+CEc888888oAAA88+qCCWBreA+LU+++6iCCz99BBDDDD//AA9gvPNPNMAAAAAAPPPiggkqaelPO3Pusgghnvm4QQQwwx/6w1qkLg+fayAAAAPPPOAgggqba/AF+Pogggnvvu/ywwx3/wCMM976emKvo4XzzzzzzwgILoKxUPoQOgIIIIJL76oPcsf/APrDX/k5qpgMANpP888888ACe+CAhVC8rACCCCCG++qDDz3/APyx/wCmttVQf28qKz7zzzQgAT774Kj1fytQIIIIJ776IIe8vMcNf9ngU+48QcyDmIDAAAATzwBZajnszdsIIIJb74oIJb/+8MP/AHh/L/8AA1+1/cfgQQQQfPOAFAqIT6kHwkggnOspijkts89/+16WYuniSweHx0QUYQQdfQQQarNf6kOwhgghHFDHDpvrYwwww8YcTyd/Kc9sWQ1/zQVbQQQavAfx1PwjjggGLDPvT7QKh/7z3Yml1gEiC0L6w3/+wRfQSYflAObYr/vvvpI/hcvmlJiV/wD/AP8A8pW18kibsHIw/wD8MN31X0HoYCmntv77oKboLa09xoMNf/sNPMIzhdrybssMPeMd/s9/2HVJSUkIb76IIIY7v+MMMMN/+sO8MFPSyyA/f8MM/wD/AOw1/wDe1UqpSkJ74IIIJ7/PMMMMHP8A/wCw/ffQQw//AP8A/wDwxf8A+MMf+Pf0GurwEeCsMMNP/wDDBBBBBB999B19/wD/AP8A/wD/AP8A6AA0KDH/AKw9+dVxuAV0PbTTTc87TfffTSQQdbQd/wD/AP8AwwwwggDPAg1/7yzSfVXwiV0PffffSQUfffffQQQfbQQ88/shhwwgHPPIg05lHYv6C61vT2PffefYRTfffecQQRffQQSiKf5UgS1/POAhmOidGIAg4/vGbPYQQVWdfecQQAADHOYQS3QqyovPsVt6AAk2CqIGcY84u9MUsRXeYQQQQQABHPPIAARyCRrdSoKgxpQAF/pTHHbSzz2qQnQgffQQQQRRTXPPPAAAAVMNmrfvsTITIL/MyLsWmBwjFww7vXlfaQQSIboFeAPKAAAA1H1dYKU+A0RuU/EmMFXVPBVdRt2kfvfeT3UvkpcPhQAAAAAP2VZv1/weQRiRPKZecIW8hl7fVQge3ff2aPPvhrfpKLDHPLLtBuQOPx/1S/FvElVzhdJGGhmrQkS/cbcvAcd4vf1lNfPPKgrZ+Lz9yqWR3N/PCgAPh9lP8kNQrf8A0ErkMZIwv5MP7Tzzz9uP0/egORBMVXzzyw30Bo/U41lUIH+kGDK45PVskMqq3LTyz4K+Lipc1aaUzzzzziM882Mpa9UIHu0E9mMjVPyvWHXUILTytpcuj0Q5W/eMDTzygDwxTzpb8EIEOkFgkliY3Q2FD3jILZL61uOe3ONqepDDzzygDzzjSpb8UIAOEH0DeA2xi2HHqgY64ILIAIBoCcGAIAQzzygBTzDypat0YxcFH33+JMGgCsLQJb74IIpYAEP+MIILDzzzwBTzyDT4Kv3n7sEHyBFIdzyKc377774oIJawAD6oIIJTzzzgBTzwhT4Kun17kEHwAAgEONXzz77774IJJbgADyoIIJDzzQABH5MpdsuunyL0EHygAAAAADzz77774IIJagADyIIIIbzyAA6KoyNJICunwr8EHygAAAAQBDzzz7764gBCAADwIIIL7zgABqhDcR36AKnxbsEHygAAAAAAADzzzzjTwwAA+5P7H777ygB9YFRdNaR96nz68EX300ZLocAABzzzxzzzwkk1MfcFv76AAC1UqYoCT9rQHz78333ljubk08wzDADTzygUUuoplXJk0IBSDs86r8D6p3QHz733327F/lDjqLyxzzzzAAiQCRKFU7lssBSB2vSEmYOULgXz7333mgicOioTl/3333kEVqo/vhfnX9+wBSDTeIF2cCigwn3q333/AGPPtiPGLB399xBBLZvir6wHpF4KCUoq5S1NGO5G1J9+B95xLqfNzXn5h299pBBVWRWdxDf8KjiS8BVwGrMCoie6q9+B5hzTvvVAyXUiS99pBBH6T6QbRom/PWCwRlig3/XcIR6C12RJxLC9vZu5KLDh995BBR+xMtVA6fUlSCAFFuPee/8AOu1o/WgXccdQYKGy2DhiPfaQQQRZoCXyGi+meAAR7ahjiqFqq0KfRnKQQQZhG3Rm1DbffbQQQVCbOJf8rQ/IwAB1CJqJx8uQ5ieQgBTQQQUbig81PfffffTQQZe6SyH7Cv7CBK6FmIo1yqWQqeRkAQQQQQVXTffffffffaQQQZEoayvOQdfPKZEEwyX024OdbVlAQQQQQdffffffffffQQSQVffSUYQQVfPOD8sh6WVKUB1QSjAQQQQQRfffffffffffffQccfaQQQAAAAPPKQRkpO66q3UauQQQQQVffffffffffffeeaQQfbQQQAAAAPPPAAAANPAq/SdjQQQQQQXffffffffffffQaQQVffTTAAAAFPPCDBRebw64QfvQAQQQQecfZ8dfffffffTaQQVffffPCAAEPPwElkEhoaVVcnzAADVFJQSZeniFffffeQQQQTzM0F9LAAAHWGDPXQw2CFVQqvgluBJ0F5CGYvYvQYQQQQRcjb2IY6CQQQQ2uDK1mJHrlVQkvolgab83BgYQxRjwQQQQQ/zFyxmKGvAQQSyQc0rP4W911RqughhD3ho7bvWWsIgQQQQRc7ysacAiNTjTaPq85U5vbytWXEqgkP6E9/VooITHETQwVFBw1H1j+HemnfffGnJV+wFjJibZJrglNUzSl5eL5hrc/wA9/iEPs06BbroQ9X32ZFvHfWTgsV1AiyoJSN+JxW3PLC0bX4JpsfmnwrzqYBWT/wB9og3Q0tTkGK3IUUqGN4FzLNIJca4TI+uJq/XCsNys6ZDi/wDfb+lQneMOdXVwlOAlvQk8tw5lvCv1QfvsaW5Oct+vGxrBX/fa6QANLO/Ou3ziNCglMCdSbjgC+D/d/vu2Oxa7F2DZcc0H+QV4WliG9GgRv/vAOgAAP9Xj0Tg326vvvvIqUmSmD8+JQ+vAAFG6PhU61GVvvvrvgAAAtH1sSpQmO/vvvhRmthWJQ4FwZ/BHLJjiivHxZlvvvvvgBKJjEjyvfUD6sssogEBbi7JkIAE/vFPPPnPbeOgYAsvvvggtPFjmA8EYVUQggggggggkEaDJMNvvkPPPEPFvgggggktvqgktviGIJDUQghvrjjgggghguAAgggggEPPPOFqgjvrigtvLjikglr7DCgggnvvvvrigjjgsAAgggggglIPPGonvvvvrgNM/qggkvvvggggvvvvvvvvvvilAggggggglAFCKgvvvvvviAA9/ggglvvigggvvvvvvvvvvvlqgnvrggglgACIEvvvvvvIAA0/gggkvvrgggkvvvvvvvvvvmrnvvvogggpTs7zvvqtvvPKAw/wgglvvvNCnsvvvvvvvvvvkruvvvgggik1hNk/nqlPPPKAw/wAoIIIJjoDSRNb77777777454pLKIIIK5b8M+Xb77zzzywMP+sIIIB38SmXnBb77777776IyIMMMMMZfwxVj9/7zzzzzwMP+sIIDpGVcCAgRL7777777pHSmEMMMNZmMxXqPX7zzzzz0EH2kEABeUP7x1r8j7777rb7EOesYGEkF5K70GvRp/znX330EH20EFclFneP8tTz7777L7pa/rUAEUkGUWx4cRZTT333330EH2kEE3eZELhDegx7a4IL4P5QQ9E33001CTdI+NyX33201kEF2kEEYeU84T0xqKEIIIIJnraA91/32ltZicGBJW3b332EEEFX0kUkftO+xiZ6IsIIIITrHS5i5n32m4C6Qqyhgxj332nUABX33ekw+Z4RNtA/AMIILIk9R8iZD32kvTvbWB2NTb332kEAATwxcl/UA9qneas8csIB7q8CnvNr32kCu8Nr2Unen733kEAATzzSf2H8szOZ4lQMMOahDEe7sQD/AN5LVIVypjReVR99hB++++6G6NB6B6CGebX9tBcVq8P3/wBqF/E1rXCoacNVB+ffYQfoggghniWXHxLSWqxvff0vDM0pERQHeACzQ9jRbA+vGf8A0EAIIIIIKtCTQnPvhZKLzzlW8iOyNOmAuBA98QgnDFlAAEP2EAoIIIJY0Vzos2wsGnTzxG8UuwFDsUUoBBKGGmQj7tA0hSgBz4IIIKKsdqQEDbMlkkCAKAARBD73iwz7j3CdGGHtVDvAAAD764IIIBKAhXzN88W/44IJICipwjJ7776pFByA6wzAAAAAx77zygIII4wr7H+U777ra4oIKqaoIIIILIIIIIDDARzwwxz7oL32wgD776IILb7oIIIJb4ob74II444oIZ7zzjDDgABTzzoID333zz7764ooJKIIY4oLL7777777rLb77rCBjDwgQAAAIITz3333z7LL7744577774oJb776IIIIIIIIAxwQwDDSwgZ77zz/xAAC/9oADAMBAAIAAwAAABBLIoIJ744J6IIIaYL6gNf/APrB1xF99XDDD/rX4jD/APQPembAfjijjuow3YTvvvmmughHk4zz/VfcQdw1/wAMNu0oPvnjPYGQv766rKP3EE3wIIIKYLaIQ57/ADn/AAQTcQReQ/4169q6VHmTFqwkolmswXfecQTw3vlsloAjjj8w38YRbXQXcw17Q56S1qfg2wghghn/AH0EEH3/APrDWmqWymOPzzDh19hBdpDf7zz6RXIl+rPCCe+qGvBB99xDDDD7XG2U6iCHPP8AfaQQdQQf6ww1ag9Hx5eAvvuolruzfQQQwx/w913lAgj388wwQQRfQQfywz0wiWKvbdPusghuogl4QQQw3+z6x+qJ+8fKwv8AywzwAFXkMf8Ar+5vGBEY+iCC+iCW7P3Pf7nfjfzgvMqbqw1IBMOGCAcIO/H/AP3F2G6rAgggvrlvqg59+w1636w0MqjlVj7U4PvvvvvBPogv0xqRBxlAgggvugvql76xx/y+xw7DAy98K9RR0/vvtiFOBjiqd1T/AJ4rIIIb6IL4b7tOfMcO/wDNMoNzu2F4IMdCyCCC4M8AG9TQfOmhCGG+qC+KW+qDDbvHX3Tcj9wDaATOcoLDDDXAU4AUoL0voVB+u+8mA0od1lNHznPbTOhTO8wpT98xTjTjD/JVBNBM7w3ozy+6+8uayWvayiwd/PPf4KLI+sWIh3FvpV9PTrPT/J8rUXXXW+yys1O85jvOI6U7DTzxlI0FXf0was9rf/5D7XX3JiffRNMyCCGITcBj81MtA2rD/vf/AOc07niQcun6/wD8MWP8Muu6z+C5koJLoKaqI6Lb6gDWsfsdvOh5gtwBMMHeveNufkEG9+Hi/hmgcb6IIJrId+Md/wD/AIx610//AG8wC75ktdP/ADHf7H//ANU/Yif6cG/gghvpn88w/wD/ANPX/wC1wQQff/wwww1wuEvox+149S737FwJWaw887x/wwQUcdfQcdUSUfywxzzz3u0fXSxmx6w9+ww0uzBUUbTTfR/4TfcdTSQUSbdS8ww/wwwgz/cVQ9q/7wDi43Z1NPbAQfffSVbQQSffQQVQbQdzzzUlcYP/AGU32Pak3ghs9kouoCeoX33n3XnEF33nAADkX0EHL5hRBAByp33kNn90vapy1KsYOV5WU01nnX3nAAE33GXiEXQjQdV+bn2LSkE+pX8Das7jaNPeBjFmFmUkEEAE3mE32EVDXEUIbUL4IWnoH2jMjySlMH3SEE2AwUX1HWkEVDCU3/8ADFtQS/SPbfwY3KEsaBUof9qwwpamk9QOgpdpBBG8zEJ2D/rDHdKEooIqTlAtsnoxNnEshd+7m/o3JYaOB95Bg9ZSW0rZPf8A/wD2yVadSlP9FaF+qX1oC2UeLbb5WfQWbuX3/b1k9cUl2dtPOMNBZv22UdVt4q77H0Ss1NAnYGwm+VCYtHEqT1WZtjSjNGwMMNC1WmqgLM2iumkw10WrT0KhRjYJ0i790HtEKsTsk0kTXf8ADDS1EjqC9pFM1TA99N9iC4vMo6ly9ACXpVFQAAQ9oicIUkx3DXK9xc7Do+5dOABBN95LwWXN23E9EK7t9OXtH63jY3CNbCAnLjLi3zToI+/Ee9J19pFBNV9HXUreeXpdy3sE6eRPSEX/AMgtk/bG8LxrN3ryxTQUfafQfedV91L1v94XQdr4mBxsk3FqxjrggcQxsYHr8Yg/ecQfaVbfcfX/AMDfrOtW8azZA4idB5TwNb74Is8n9DXRLMN80EFH0EFX2HW+txdEENHdeMKZieutbr//AP2+aDX9TBVTrXD/AKRTXeQaVfSVa6yKxRWQ0lw993P32F/3/wDvf5YMfkdH1GsMNO1H3UEWLe9IFuAAtSlkMJevf/8A/wD/AMMNX8Pf8MHWlf31WMcMfsFWEFpB31ILMhwNAnsEdOvf/wD/AO/7w08wQQfS1728fVQ37/w3eRWTdpntb6KNS1FVzVV61/8A/wD/AP8Av8MMMMcvc8MVkuS0oMP/ANpd2Jv8dqHTAJ/U9T95B3OJLFwvPfjDDDjDf/ISCNMCO/P/AIVfRqHutJ6QeX31PR8RXfUI3cjuOczz/wAsf+sS7J2lsH9KYMUl2Sg2TNXlqAf5SlV332Eyj/5WcGtOMMf/ABBeIXDbGcZWHI9pdzYb5tHmcZYTQhw99pyrg59gmRVAAE84AENo0LHTOS2uc9pdE8d7FORxXwfV5s99oIIonlNmFFu99xBFHdTJ3eMN9dvT/pVTXBpUMnsGEeR9Q9tGVFmTGXLs2A99pBdpONiqRDNtHsRvB4WklQnb9L9d9d9AlRxsIoFNJG7LY99pB17MTF1bQtEs55/NoWCDj6m/xQlzN1Ul1nMR1bcdEAiX995BV9AXnzycDkE8D/8AbOiucDLv4MNLBWRrccR2QRw+RPXiffaQVff56QV25M0JKPeOsmiINH0vQNtlRZ4QQQRol1hrHMbffbQQQcu4PCVG0RGIkcUlzBjdcPYFqHmRpxTQQQZ1JE23nfffffTQUU140tqRoV7SRfscnVubnjX3/wBlpMEEEE32kG332133332kEFW+LprakWxT32C3ymoO4UPBivlrsEEEH30kFHX3333330EEnWkFUm13zyDGEVKSC7OUZRZbtVKcEEEX33kFHX33333333HVE01WkFT33330ENjKmmaTOH4scPwEEFH2kEEH33333332E1WH31G0EDH30HUEPcMMNcsHvattvgEkEHX2H333333333lGGkFH2nX0w0HEFWlP8sMpgzqrbddfgDUEEF0lHWP3X3332kU3UlX2kX3z30kEG0FZQgJlrnP8MPNQwAA1l+wqYozctX3013kEFX3Vqc7TW0EFXC/muIyznPYMd8H4JaHLXstz+SwSjUGEEEEFFLC1c0TcgEBT97tneAzQ/wAD3T7+iW7vsWLHKZ35Erdd9JBdUhdpyGdjsBB91+vMaLaMuaVDbLaCQLwRpys3f9Apz9999jycx2fKMAeC5xxUqHNmJgFi2/zlLqCCbfooV4bCuoPEx/8AaAEw5SkqgTCjxAQQNY59tcrMiL+8E71/2JWX22wEFcG/q89YjvnxxrgOvnEdqUYpW8vXilpxw2rCaw/+YIk0nGUXHax4virbFdxB9kdKaF/Pfbq6NjGPzU7ddgla0Yu3kPmx3e50DISkpADmmXbo4/0Vl8dfcTk0ZL4+SdFUHlAyQqpGgqCOf18nPSgkoYk7CZd8eIysT+QVbNUBh1Z8DH0Jpi0a0b0Se1tPWVVBjgt9BUGDM/kTqB6Xxfb2DUwSFWiL/wC4K7sP+3kX6c+cvuUqlaIKJdOlDNQO9/k3zgABU+sg+0bx/wC+KQ9D/wD0BK7v23Z+zQgggDzA1EZ45rzeTbBHLN4xxNy5zuMvvqvQ2x6EON61HTEFTjjnPr7q/IJRuCxc6FOIMs1i3j4UvjtvvgVSw60BWmpHnTu4ggwwzfSUcplM7ywwmOIAJFKgsgggtrmvKQ5SUZEwf3Svfx/7zzw94ww9U1/f/wD/AOsYoAAYqWCO+uKyIXvPfv8A60Pvqvf+3/8A/wD3vLDPPDbTzj3z3/vAcQ0OKe6iSytTbODj3/vDX/Df/r7z/wDw0/8A/wD/AC/wQwww0/6xPKJOguoggg/S1/ylw0/6w/y/8w6w04ww1/8A/P8AhpDf/vT/AK1oO/y0qggww/40/wC9cNPe8Pe8MMMsMMMMMNf+PM21/vPeP+teHcGqWsNclH/+vP8AWDDHrDFD1hVdzDHvfDDfDXHj7/PfH/rfciB+fhjVrD//AKwf1iw1/wD3yY6/Qbv/AP8A/wC9/wDP/PfrTzjH/Plu/NbCpTBDDT/vR3DqDD9pjMXnaSYX/wD/AP8A/wD/AP8A37RADC++n+jrN5+gBDDDD/8A/fQaAQY07OJZn9jO3/8A/wD/AP8A/fxUCIFH3zvZ3RnU4EkMMMMMJP8AHrCDXFCjsDQ6bj//AP8A/vf+x+ck0P8A3/JhMNK2nDpDGKDDDD/TvDCER/lTJl6xc/8A/wD/AD/9UjMAO/73/wBvYvo7TF/agwwwww1w6xwzYX9WpBoDS397ww/0WFdbLegw83rZ8tGmBH//AMNPOcNeOtMNt0Q34TP+zgIMMMMP+UzEiuZ8NcCCKvfSwxL3+8N/8MOt8sPhy7A4chJzJX/+sNEQGDqTKL//AHJu5eoY9tdo/vjXLCCrH/n9j49CIWzcBI+/vNdrW1U2+zX/AO9CmySPRPd2N6w1/wDyzhQwPbBPwVa9s74nvf8ArvUXm/CZlBf/ACXL53XnZ9uGqwx//POEPPlslU+2h4Qjz/ffMgv2c1UiK9/QyxlksXcbNEarw3/whjnusM0rv3eBGW3Pg0/vuc0DXOT2dfP92qtgxXEBxUww3+/ohhgqHWjj54+IlSPfzxkx4RYq7Hsc5Fk/ch9MeSLJFWQ/4A3/AP8A/u6fjTsvsPMal8smjvA4+DVGXdc5wCZJbbjB8JOeDLALX/8A+00/q7XOYptJ7sMD965+5LsfbagIaK0FxtQQwavq1oHPw1/6R4dm3GliXfSKMGI+OpiV5P8AVYzqYD7LLBIC+gcT6ID720HMEMO1Bsv5k0HT88MMPYDcGtVMJLJdrP8AWgUaeSyiiMeif/rBJBdfTvCwSTzDHLnLDDvrL/8A/wD747+MILQ4qZrY4xzqbwLa8sP3/wDjX/LDH/8A8969yx73wwzzzywx3vPNKlpvoqgABuQww1v/AP8AjzvLbznbjHPLzPz3/wD+885zy88xjGPvsihgtPOsR/www0kwzzw89zz3+88/y06www3/AP8AzjT/AO4DHIhshuriBn+c8//EADERAAICAQMDAgUDBQEAAwAAAAECABEDEiExBBAgMEETIjJAURRQYSNCUnGBBRVgcP/aAAgBAgEBPwD9nPY/t57Hsf28/t5/bz+1nsex/bz9wTDk3hMDH8xWv9pZwvMXJrsiElhtMS83DCI7NsBFb8/YHsftWYATNkZnMxnTVDmANZlG5UMeqWA6htFajUHrHsftGIAJmTIWlWZiI01FlG+zCCjFreVF4+wP2nUttUJ2i7i4hH/ZiJaFgNpbCCzCKmvmpZEX0j5H7TMLaHFNOmY6LGJQmne4KjTkRta5K9iYLO8X1j5nysSxLHm3M1fNp/iFRUC6MlT59QMVgR3B2hVTuREANSh6x8z4mUJQlCDyy2tmLmF78zUxKg+4jDYn3ij5YGow8QtCdom4li6HrnzPffmu2bL8NCxE/XirCmf/ACI/xMH/AKA/xMT/ANAFgCpg8WAImXCFcNLBo3uInzQVREfi4j5BYJinsuwmP6j6Z8j6BPbrAfgNMV/OPypigFT+faDTtt/aYVGvGR7gReB5ZVuMpTVMbcG/aUW4MCkCjH9v9RCCpixvxMY9/sLhPpMoYEHifpcP+M/SYf8AGfpcP+MHS4r486uNiBBnwtPAgJEDlnIMfgRSbbeYy1Coqfn1T4n7cgGHGs+At3Pgr+YMCA3UAA+zP7ef28/an7K5qEseB+3Pd8qJywn6nF+YuVG4Msek2Qe0Z3gs8mESq4MDkcwEEeB+2fIqDczP1LafljFiQSSZq0qPzMeQ8jkTI2V35MTqOoQ0d5j6hWoHYweWTJZoQbdzCYRcVtJ8T9plyaRCxdrMZS0ICCoRbTGaM9zEJ1NZhsMD7TF1RRqbiKwYWPDO9ChB5CMJjPt9uzBRZmXOcmQqvAir73LNzIR+YltvF2gjAoSagIbGIyEjadExC6SfBnBYmIQdx2vyGx+36xyEKrzFShBUy5KBA5iAbFuSI9g7VUBMxkFuNpkUsdIMCaQBMTgMA30maFxuGB5ikEDtmakMCXzFUKKHZVgSzHWoCb7VDtFNr2PmzqsfqDwsGZzyZryXYbaLnHvFyI3Bg8jOpfU1CANpNXC7oBZuB9wWEHzDja4nSwdIv5mXDS/LyBMQZ8wUmOMVFW2nyqgUrZECg4+OJgNp2z8ASovHYGLxH+kz37LcZSYopex8SwEOQk7Rx7wKYFA9pkNLFbY1AzLTCYM6vte/llNIx/iIbXkXCWIqZCfh7+xlKwFzBjT4YHd+J1DacxqPlGbQR7CLbTGAuFrnTb47/J7Z/aKwMFwwGByDHYmKOwMu+58CZkcltoGI3M3K7RMfuTGKjmNTCBIbFgGC1ZSDvMGYZBR58cn0N/qKKJ3iPvHxBnJBJs8R7U/idK2Q5BZ2EVg3bM4CmHGTZqJi+GDW1mBhVe8w74yJgFYl7ZVtYAVYxXB2lwdlUNCtdgZya7nwzNQqBbhvmoh0ijA1nmCqbeIpIAuEbVHS2tZobWbmIlMimA2AfBx8pjIJpX87wgpRmRkJnxKFzD17WRVz9YxF1FbWQWMJIDhTwbmXK+Rb4InTH3O8wi0aKKUDvkQVxGUjiCKY20TIpIEYE+8AhajQmNa37nwy8xVsRtNGjv2C2bBjISaB45hcAADkTWSaaKF4Mam2EpQeZ0zXjr8eDcGPYLX7mfJ/2EEneZDpszqOtDJSidNlpwTGd2xD4YFzH/YX223hVS5o7GME+LSDaLSMVveYR8i+OTH+JpWoVrcGC9zKHIms8TUSaiYqN+B8M3EV2IgQkQiLpEUMcn+4cDC5kX5oSbIE33gIJAnSDSWXxzYyrGMOJZJmUoUKnkzqcBB55iJvOkvHjo7zTrWDHqNRsQxtUTCS9kVMY28nxg7iPiyEwY3gxNBhMXGq+J8M4mN6NVGJK7RrXkQnczC9G2M+OkyODksDYwLRDe8NqGg+oH+Z05tyf48XQMKMfCVJlHmKo5M6rCzZFX8zR8PNpb25BnTglSwO0BB3EUVTXM7qzCYgXMAoV6xh8ci6lM06STEcATIxyNQ3qWRBvKBmwPMI2AgBAKxR8xnTLSX5EWJl6YgkpMoKg2DtAzHqsbsTpBhwHrOryOCNIMTGca6VqiJrCIAQLuNm1EADiYkyZG00ZixLjUAeufPNjI3EI9onyLQEzYivzCLuIIUsQqBDku/lmJS7rX/Yq6QB6GXAmQURMn/nU53+UzDhTEulZ8INP0wPtB0ykgkARUVRQH2B8yLmXFRuKwELhhUZQBYnxN6mqOxqJjZjtMOEYx/Pp6F/EoD7M9j5EAiPg5qfDcGaHMOF7uBGi9O7TFiVBX7Aex9ChNImhZpX8fdHIo958UQ5/wCJ8Y/ifqD7iDqF9xAQRYPgfvx45mPAMXYzmVCQs1XGaYMrBwL28D9ufQHi25MZa7YSuqjOpAFzFkCzbLxtUxKfiDb38D9wWAhyT4sGQQMD5k0D2MEEa25iYhqmRFX6REY/Ev2vwPmXUQ51nx1i5Fbg+oTUZ4WhMbOo2ufGvgwZf5mPLdA+WQ0pgMbiCARRABcqxMgphF3Udz5Pk9hKMqERgw4mLOy7NvAQRY9J2hMbKBC7tHWjBOBML2KmJ72PjmOwgjHaCCVPeJuszKBUQ2vc+OVtqgHciUCY6iYcjLV8QegxjmZGoGAkNzLYm45uCE/iY+L4IiPuCIDY8M3t2biCCfxADEFCZjtMV0O58DGNtB2EsATUvuCI1ExzSzpshI0n0GMa9zGYtFUXzACYcJPtCjCBSpifUJi+TIViceGaCNBB7f7lb3Ad4k6gkATpjaDufBo31d7qKoAhUER/leoVDRSVIqA2AfIxpm2Q78moBcwdMW3MXEo9oUEfEJmx/iKaii2xN+QRE8MxixuJ7wQC4OYnE6hRpudI3ykQ9j4PxD3O0U2BCQBMh1NBKmE7V5GGZ/7RMOMWDCCqgAdzxMoBEzLTiYzWNP4eJz4ZPeDmGAWewNRTBxM5+WdLVsI3J7HwaOSCIOzRXIjsTB2Ex7P5GNMgs2YhACwklRAezGPxMo3U1MW6ce4i8+Dz3hIqaqMDXNUSe0zfTOl2yG/cRuex8cqQHgdm4lQ8xA1m+wmMfN5vHj0EQzE4OMQtU1k9mmc2VEwD5B/Jie/g/vBzH7FqgG8U0RLmTgzp9sghPY+LLYjhgdoDYHaxLszSKuCAAC5jWhZ9/PII81itzMT1tCNW9yiJcyZAODCLmNqqIKHcx/eGEntW8HYNYEybiIaYei6XHJUjaA3KgBuoQZaKP5iqX3PHoOtiMIyb7ze9jB1JXYw9TvDmZjNRs3EMxJe8Hcx/fs8xkl79oR2Ii/TGuot6hBD6DIGhxEQq18Gf1PYQYsp94uBRufSyJ7iOlwgjYiFPmvtdRUJ9pi6c8mAADwMeGMLgFQ9jcANQwfXBD9wUBjYY3TAwdJF6UCLiVfbzfkwwbmEQQneHie0sTGtt/s/szpcYEQDeNAJ/d2Y0Yt3MWMg2f2cqDDiT8Q4FMbpz7GfAcQI/4n6dm5NRMSp+3n9rsSxLE1L+fsLH3JYCO77VBddls8wxyqtu0RsoaxxFYMAfRZwI2ap8exs0fqHANbzB1DsxDCDMpgy/iajtA4PplgI2YCBsjCxtFdh9UDA+bZqcgmagYGlwuBMmckHTAoZrPvFAAETZiO58XehDud49FSIt8QKSeJjqyDDjR70nePjyYwCJ+pdeRcTqMb0ODFPos8zZQvvvMYLLvCxWgIxs1EBBitfieIzK7k+4ikKLi6TuJlyBI7O7TGnNxPaKQYFrufF7LHs53iFQwJmw3P5lWxMFjiDISdzCUc/MBMiBDtOnyHSBe8BseRYAR8hPEL1HwHIQ1xV0iuyEEwAdgw8G+kyiWhoEQMOJkRmPEC6d5lb5xQ2Mr+kDAeCDA1jufA8So0YRStAEQNirSYEogqYS3DLPhpwZlxBaqOGMxNpaYjY8Wao5N7wbmfDBa4KEIUrAFgWmM2qGHkRT3f6TG2gIJEIrgRCXUxlMeiRF3VgPxEEBFeZ7aRRhS5UoXLFghpqLEUZSkxmdmPM+DaUa1TIGQzpHY7HwZq7ZSoFzC4YwCPxMINGzNIG8YVXYnsnfJ9DRSCu8IoWIGYrMbio+S2qo62P5mIkWILBMLwcDyMMuMLMZaMZareUYjkPAygXe8xk6rmTIEdd5mIyadphSm7mZCSagLARre7ifLPioFiKCsAoS4eICG3lSt4nv3y/Q0+E1XCTdEbQaQDE2smEg0wE1rZmMUSZbbzVZ25i/SPIwGHSJQMfckXFwcXDiB9ocA3O8ZHRqi5Sq1ouFC5LEzEr6ueIgF93NQc9sinkCZsjVQ2i5nDAGYOpQqbnx74iEsLnNCBQh2EIgf5iK4i+/dxamXtxMgs7dtwedoaCxoj/02jZfYzBu47nx4MZbEa1mP52G001Hy6cqpXMMzfSYrkC4mUm7AiBasCDvl4iCuwEzYARYG8YaSbG8QSjEzaQBFYEXBUJgUBri924MEKe8+GSY+JqjDQu8bTRoxCRHA/Fzpb+Mo8j2PPYgGYqBhadUrEhl5EHUatuNpkYaIVoTAooiAVxENjvlg7AQiZ8Sst1vMfTCloz4ShZ8PUYBQqVKMJoQcdzBCIEqMNpnUnEQY2sS9t5jycCtpgQarr0DD2Box82nmHKCTvzGNXQihuTGa/eY6qXQmP6Qe7ixBAZqAhzANUZwUMTNQqoMrMYjUZkY7GpZoHswBBi8DwE+IAwEEI2nUEgUIeIUvjiIjmyPadHr0EvzfoGHvktoq2YLE1hWphtEXGzEiBEMWAUAO5hsRcjBqMIJjYri+4gxm9oCQYn5MBDLxCJVLAbPiTUO7g3BkuPlNVGO0VrMCquQA8GMiqtrMa0g9E92NG5ZuUY6lzMKFBZiGIvv4GOlm42Pi5ZEBsTINO4mJ96hxi7hG0HZ7mNK8c5KiwICZqIEUfE2uc7QaVYRwH4iJqq/b1XBqE7zVEJviXMa35kAwoPaHaPRBExGnHZqqG9MUngyvIgGHGp9hGwIYemX2Jn6d/YwdK97mJhCwAD0jHyhWqJkszIxIoT/AHFxA7wadhUGJiYoAFejUbCpgxMDBGF9gPuKj4g0bEybifF2oiB0JqoppYqMTAP2qhDhxnlYMOMf2z4a/wD3Yduo6shtKTFmybWYpsftmfKMaEwEsxMwmiITtqgIIB+yLAcmHOgh6lBF6hWNQG/terYMwWEBSKmMg0YjAipiNFk/HH2LvvQjtGMMC7TBlP0n7XO+rITKuY9iRMfMzMUfHkHHBgN9j6rtQuZGIEV4zwzGYALiNY9MZLah6GQ0jGP9RiXVxRvcWCnQqZ0z6ko8qa9fO9UI+JmQNcZGBqEEdkNGAzFx6WR/aY+Ze9efVNWOGY2AWjAagMRqMR/h9VXs/rveTI1RNagTI9sTGe+yiG7FTGxHEU2PQZqEyNxFejEOpofLrW4Ha6hyXEeAgzqNlRxypmJw6K35Hq5TSMZjVgNUOfYRuTB8MjeVBEoxV2iCh5mZH+aPzBzMIjcjy6pgXl7Qy94sSONSEToMtqcZ5Hq9SflA/JisyiiNpkAvaNcHfHA4i5hYHnlahKs3NMIozC1QnxOwMzH+oZYqUTAu8CbWIGIiGxFY4uoB9rg9TqW+df4nylFJmWi+0I7CJAKEbIOJr+dYu4HllfU9RZYEZgWiLQEPEU2PDIaQzIbcwAQMnvEAZoG0mNWomA0RMykm50z68K+mZmbW7RNQSrl7wyrMAiihEuFSTUApzMJtB4uaUwLvGNEwljMQBsGe0J2mPjwzn5Y28EI3i5NNQtqNxMeoQ2r1FTUJ0h0ZXxn02NAz8wGpW991gFiKtQgTQJgNp4sbNQ0BH3JqA0IrU0HEMU+HUmMogYHaCGK0TMViupcEiI1iZSUzowg9LMaxt/qLDzBMWHWtmZcJXcRFJESVG4hNCdK4NjwMI3uZTUG+8ZYo3mNwaEfiA7+HVNuY113DAyosJnT5qNGZiGUTp31Y19LqD/TPYz3mEqUWplICMTMZ+WIJcY2IVudGtO3g3bJTWIB8tQKbjLtcxmjD2HYzObaMbFQTRfEHSPYi9JtMnTBVNRgRFik7zpHpivpdT9H/AGHuHYcGO7MNzMUE1nVF3mymdM15W8LjN7QAVcEdwtRm2mMWY3HZOOzfSYFDNMmAbEQp84Uzp8NZDvYECAHtkHymZlBWxAaMBmJiuZT6XUfR/wB8REUzezKizMZ0f1nu5oQGaSXP4nAgJMZOTGMwrQuNBzE47ZDSGYmAyCZTYJ/EzvbWJ0OYX83475WAUiZGCibEy6MxIG3mM2g9HP8AR/2HwXmLxDCBUO0c7ToeW7v7RxtcUzI9Goz6aiuWWouO+YFoUIwixR2y/QY76WufqbUiVc6RaeyYbjORMuXmfVClHsuXTOkYtis/n0c/0Q9xEG8GwhMBuPGPyzoh9XdtxBZNGaYcY5jJZioFEE1CpdqZjg7ZfpnVgBhUXmLNZUzD1RJozNlGk1CblkQkmoFJmPpXci9hMSBEAHouLEdSDBKgg2lmNBQjxMTMeJjQItDwrttBCL7aTqJiqYBXdhYImfE5uLhfeJgcGNhuDCRwIuF63E/TPB0Z9zF6RBzFwovCwAD03x3DiYSoFjbS94AT7T4LGri4VEAA8qhE0ypUryIBmgfiaRNImkSpQ+wKiHGJoE+EsGJYFA//ADD/xAA2EQACAgAGAQIFAgMHBQAAAAAAAQIRAxASICExMEBBBBMiUFEyYQUGYBUWI1JTcIEUM0Jxcv/aAAgBAwEBPwD7Wv8AYtbF/Ti/orTxYvtaGqFROSdJCLEkP0S9KiKSQ0cDLEIfol434UrFGkdD2LKWT9AvSQWUhkuBK8nSEVZX2WPRqHzkyyn+RLJcx9ZRpZTKZW5FcXl2jihqnkh9ibH6uLaZ82f5PmTvs1y/I29y9hxOOcrKEUJckuGaX36eisqPgfgp/F48cKNWx/y1jppOUbZ/db4n8xP7r/Ef5omJ/LHxMYSlqjwiSptfh7bFK0JDPdC7KiMs7ZLpehW5Zpn8vyS/iOEfHLV8iUXysWJjTksXDr9Duyb+I1TqXCxYpf8ApmHizfw3xEcR8xlJL90Yv/cn/wDT3RFzRKInp7RafREkqaGIb9CvFg408GanB00L+NfH/wCof258f/qH9t/Hf5yX8a+Oaacxu3e9SaZrsfKEkkR7ZOuCRf2qyzUxyb/rBZL+h4wlLpHycT8DhJdrxtpGs1WWxWy64fq1Fsw8OF8uyOlOiicE1RDDjGNOiWBhT6VGJ8NOCtK1vbHBNWnsTJSshL29Thw1SJuuF0RlRqlJmH+geXXSIapRaMf4O1qh2NNNp7PbwJ0yLsXpUJW6NPy4fuy8sJW1wWksqaIqyCcZGtI+MivmWtkkxprbRWUXzmvRo+Hgqc2TlbywsNyd+xUY9CkibTfA26MNikqMZfS2u0Tm5p5o18jbfeVlCiNVk+yEObzW9KyGDatjwoo0xp2h4bHBrtb0YGEvl0x4OH+B4Cb4FCoVEkuO+aJYqiLHMOacuemT04eE5JEZYqakuRqU25W0n7E5NSaJZPrYhZSyUV3ZqUS7yW1CiI1JFsgrY48kkuYmJhuPPtuw1c4r9x8M4L/xkh3ZizkpseWG+TCuWEkxRlgqafcmfM0pWYi1YpiqpVlVrJ5IixuhlliFktsIpIqzpjYlJiuLNR3yPlNMxIaduH+tD5RONx4IxSSbXKG+OGYq/wAN2uWSi4vL4fDcp2OaSq6J4rxEv2Q4OzEVTMR3N5RfJOn0POC4Jx2QzWyC5HIVDV8org5tEmJifA5IlzFrbB1JEZDlJPovWRjIjhpmL8JCQvg8O+yVYaqBxJpv3IxUFSMQxOJIbtt7Ek+yuRR5IxJRaJNJ9ZJEVmtkckM4S6FJLl/8GltiVDdlNDMRU9i7ItVGj6v+BOlwR5ogoxfDHyiEYqb1sxO5qJckkxW4csn0jE5k9sTSJI1E5yuhoSFGhZrZHvK6E2x3Q60kcREWKKpN/kZJdmJyk9uHiNxVCf5K4JOUE2fD4ydkWqRirVJO6G1GXXZOVKyEk02TxFRLvcmWh/sNNmkS2rZAayiR6Jq+kaJEY1FJs1Xx7H4H0zEVR2wm4O0RxVNKhyfRjTm++j4OqbfVEalG49GNJKlXLKaJc2qIRcYsxKirY3fpIumXY4tijWV0JsuxPktPkk+DFlb3JtEMf/MS+owOMKSRGfycGKfZiYim02U5StMUattmLLDhG7MTEc5W/QLdhyESVsTJDI4lMU7FDrknKouyTt+CM3EwviEkq7J4rm7Y8Sh49e5/1DSaRKcpO2/TpkJ2VY40LumOA0QXJ8xJUTm5vx6n+S36tOiOJ+TUmi4jaY4l6Ru39iWb22amWy36xIpFGnavskSdMjpOCSzexfZGN5Mg22TjZWkm1sXqFFigaDQxprwPYuBzZB3dsnTqti8FoVMryqOSNDKRSJ4futyHteUWe/hlKhtvJCkvJFZJCSG2SFIkTj77VvoTp+GUqHmmckWPh14UiJFcjoVJZPkSaLdj6oexdbrIj7PZeBu3sihxYuCPMh1fgS4EWajUa0WNjfA3qimTXOz2HsvgZEatlfTmtjH3miPWTX02KTTLF4F2OVDn+BtlsUrIklYrSkiexdD3JF8j6FktrzT5FlN0ks472Ltk5Ec12iNo402P9T/eJPrZ7Dye2i+BdZLasNSscabQsoyo1jbbzj4Pcadsj3nFe57ljb1Eus0PrKmNFbfYj1ktt0Sg+XnQkTUXGNZMj3vj0e5FcyHGmKJoWTI+7H+v/gl0tj62Ue21ZLcmqdjX1OijS2KNIbdlMpiW+D4GhJ/gaYnRqTyoToSJPND6ya8CyW5Dw07aYhMfRRT8MXTyTy0JmjgSSKs0EmlsQ88VRTpbF2MXQvCmUmRUUio/kbihy8UZe2adoZViVEprpD52IeTZeTyWS9UpNCmhTQ5o+YOTe95SFk8l9oTymhDPbJfabLyoaNIl90X2qntX2ShJZvJJtdDp7FujFsWGLClfRHCi2rMXBhFKmPBkj5b9yhx8lFoaQ96w7jayrKiMPyOVIY+rzW1KxEe0MbJq1wKc4Va4IzhN0PAg+uB4Mo2/Ya8KQiUxdZSdF7UJuMaOWx2RVipEm2NUNF5rauhESd1wK2XSOHQ8NeyKnFcGHJyXJjQqTfgSGa0jvJ2ix2RexdjfAm0nlFpDdkW6P/IZ75rdEiSTvs04l2hu07QlHuMhzn7GHiNp2QaiYkdUSSp7oolKjVkm7IkjnJcKxO1msqEPh5Loa5sn4lJ2hTLL4ErTTRpUV0W0LSoo+c1O10Rkp9GPBJXsSyguTFVPKLtk2uODU+hStFOuijTYlSzj2Nc5e5IS4EMYl4ouhSsTtiaJJNDUnxXBNLSQg5xfBhLQ2Y0rjsivclQpV0STkaXfQ20y7ZQuWNNLJNi6zj2KSGsuxfjKhwvo0teBqhO2WRfCHiCmxYz4ITUoksNSd6i9CSROSrom72OSonJtkJfkwoonhxaJ4MrFhtEuBcckpOQhRpWLrNFCfBaohWnq2O7Io0/WjQjEVQfgkJiVj+lGojC4OQjB/UhxTtE4RVc8saldWPOQ3eVmHiO+S7XZdI1IeHqdklTrJClsWVssw51Y25MTl7oZB3FGPp+U/A8roldFGC10z5dcmHGWqzVyT/I5W1ZNU85dDzRh4jTHjM1uzXSO+SxsXaPbYxF2WQl9SPpcSuSlpMSXFX4HsjCyOE+CMPyxuPSEuSV2Plku3m+h5UOLaRGLtHy7HhpIcWzDiuV7lLU1YyL63VZaLRDlitM1DddmNWrjwPNEOBPjJxbT0scpxSTHOcR8tsexrkaWWrJTQ+VlJShLsTrkk7dkFztZ0hxIx5IpXlbaNTY+X5IkUtKLRF0S5MT2JP2W1odjyiycaVkHaEybtJC1PhCViVLalbyaTKoS5yXA3Xlh2Q6GhpC6MWSXgcBxaIk+Y5QtDdysSd8EY1vtikzUaka0kObfkjCyUKRhx5ETxKQ7/J81KK/I227fhopEoscJfgw01fAsNe5XqU6FKL7FD3HGRKLsclX2xTkvc1y/Jrl+f64wsK1bJRh9thHU6FwicT3r7ZhprkhySVNk41yPlKXoWxZqXJXpYRaihS0knfJMgrTj6GPLGhIolaFJifjcGo34EraF+lEmXwM5jJMxY1K/Z+gVJloTymrWUZc14oQ9yfQ1vwVcymTg07KyaJLVh/uvQOhRFGihiSGl4UrZAmifRHdgltK0NuRHDpDiMw+6/JJVJrzcGkRzkxl8kXfghHhkZJEujEI7sJUhU0KCRXAxvkUqkjHXKkvKihCzkSEmKO+Ktl0qLE7iTFt9yK+miEXZJ8F8DkUia5s/VCvLE92LrNk2dsUGKPD3wVRskJMqkSdtnuLZ7ohGTQ3KD6HbLpUNWc0VaZF0TVSfkXFEu87HIbyT4H0S72+6L4I9I4RNtZrZHsg/pRitaRM0WNNKsl0c2T5in5We2byXYjUx97rbZHhKxxJLjNbIIjKVktVjXFoiNWhRTZLD+l0SVEeYteNdjzeTGiKEJE4tK9vsQELgkNNbsNcEabElQkiUGuSJJ88EZMxo2RTTJKn4vdbnkhCMR3FboXHkUqdjxBO2TXGSFmlUUQ4dnLiKSXZLHi0x4xHEbYqJEiXoJCElWSVmIqhHN5RRJu1lGDZFVZN5rOT+lCkQ/Q2Yk+C3lHtEeGaUz5cfwYkI6JeL32MYxCyw1bMbiKzeUekU2xxojLlIon3mso9k03Ehw0jCi4waMeFCyiuSK1MlaXBB3E+InXHi99jHlEQkQ7MfpbI95YceLyaSlY5sfLyYso9kFaPlU0xzZjTtUJIogi6dinaF+kxMLVyzEilKl4ffYx5JZQIrkx/bYxSFiOjXwXlTOExrnOPZgdEmMcE0ThSIW2VQopkErojSRi4sUqQ3bvxvOrEhZQHNIk3J3sa3avpSHtwpwSJ4keCWImiOI0SkmXyKaPnUfMZrl+fK84lZ3vaTEvHZfpqWV/7Y/wD/xABGEAACAQMDAQYDBgUCBAQEBwABAgADESEEEjFBEBMiMlFhIDBxBRQjQEKBM1BSYJE0YhUkcrFDU4KhY3CAkJKgwdHh8PH/2gAIAQEAAT8C/wDyet5um6X/ALZLSrraKfqh+0P6aZj/AGlWP+2D7QrXGf8AMpa+5Aa0p6hH4Mv/AGqTK2sVbhcmE6mvyf2Ep6YWXH1iLTAsJWUd631m0Tu/eI9WkbqZp/tG7WfEVgRcf2m7hRcmVtW1Z9lM2X1iUe4LErcRX28DmEqBtXmVqndkBfNK6bG2tPpLwldloRmJXp90m182zKWpV8XzL/2feajWJSxy3pKjVaq7iZp9OF/EJFhK9ZmDbeDBWYWvNNqd422z6yvpWGOsctc3N4tptl57xrgxd4bcJQ143WY4isD/AGaTNTrLXROfWIpNyZv8G2Gz6QDvBzxDTVwLECAXuuMSkDusvMeqyUCWjZbs/RM4iC/h28mVaDZMsZ3Rmm1XcvtbyxWBH9lkzWawm6U/3MS9jKQFpUPjW/EY09hAHWBynEpecbjYSnXFKudvlms1CMgVJUqB911tBwYsJmjcCsgb1ldFZeI1Hxm0qKB3ZEqDdUYzRak027t+OkH9la7WEHu0/czTqL+KMPHYSmPeW/E9cQVAqspWdITdEFs3hpHde1pSpDd+0qLZzB5uMQ4JjE4l5p9TW3Kt8Sse6qMTxO/L8wNwx4gXdczRVt9Ox5H9k6ut3VInr0jCxHrFxFIJzzABC23pKiNutaC8Pmile5zbj/3l2TayHMOnLUjUc5lShbg4goHmVFtE2nw9ZpMakBp9oUgyR0KiLmItpplZKm7p1/snW1t1W3pBkm8sQIBkGbsbp3hLGVGZ2lGnvuL2tDbeZ4mbwyhpDf3i0iEtDRTZ5Z3aXttmp06FcC0emVM0jWr0yT1jWcTV0AFlGn4vaVGu6qIgUUTNO++kD/Y9epsQw5qMYPNP1QDIiY3CU8OsreGqcdZU8LFtt7iUaW9uJp9Id0CKiy+69pfbyY+opoGNxefeO8Qho203nkE02sXb4sTUahHFlzK1TbwIG8YJMdmtuBxPs9/Mv9j64+ICA8y8VrtKZWxJl/GREQkK3pKreJj1lJmdwD6TSqKTuetsSguxMmBrtKlYZwZfJOy8rDNwJ3pXEBj32zu/wriUwQd0eo1V7mFfTpGzTRfUxKXd1xb+j+x9e/4k/RA2YG6xCLG0SxqCb8ZlVfGMR8EWJvNOjeG/Uxo7eJegMKqTLD0jUqbcia3S92bykfWdDEK9ztvabvDgy2yirXyYp8Jj37tJRv4LnP8AY+rO5v3j+G0tmC3EAKtCWUqYDfpGo7wD6SpsFSzLNNWDFFIlcGJ4mF/g1Sb6Le0RfFKYu9pWfaxA9YG7F9J3eaAM0wvXJ6Dj+W3l/gHYPgt87pKvmJmpSyKfaUvOLypQXd4T0l/WGpdR7RGA6ynVUfSV6g9MzTVdrAmNlAYcVV+CuwWi5PpKNyZSwC0fzmKt2AldVG1RzNNTvUUTW/6lET9IlFNifysQ0EPMWgnflf8AbDpqdpp6Smnn1laigpsRFortH0jUlWrStfM7pZSQd7VHpDTWadbpn1MroBSY+kRAVX6SooFWl7md2JSH41VfSMosYxt3P+75WoXa5+sfx6Uf7ZszPESoJndMCt/WPTszWgY7Zphu3XlU3N4bz7P1RdO6Jz0jLdb2grL15gaFhNfrBU/DTjrKWBKlThVlQeMwHbtIlCm1U7ozGjU3AcTS0r0+9blj/LP/ANx2D/U/+js038P/ANRlb+G/0ieRfpKo/Fon37KX+orft2abyN/1Gaj+C/0lPyJ9JWH4lH/q7KY/Hq/QR/KfpKnGm+Vr1AaU6m26ngxaO4XEqUWFnjVDWcDb0lbDriVTd2C8CL4KRbrDexjiIzIwZTkTTa1K6WvZ44KlgZvqp5WlXUV3wzxFuYxVB7wE3vHXIlOjvKgRKZVe7p/+ozXhS6AebrANqon9I/ljNYfuJeWG7d7S8Wyw2ItBgQ2JB9JeU2/5mr9BLwWENiIMC0NjaXmL3jeU/SVPJpvla6nup39Iu3rzEqldxg1C9RCV3e8rZVczujuzKoPci0UYsZUQbFllYe8AIOJ94rKcm8bUbj5Y7AwP6TN7y14vjtjiadO4omr16Sj/AA1lOn3uvv6Rs1H/AJZqyRRa0/4rVn/Fa8/4pXg+0tQY/wBoahOeJ/xOv6z/AIpX9Z/xKv8A1Sjq6m9mvkiDWVPWNXrBb3n3up/VPvdT1M+9VPUz71V9Z96qepi6lybXlTy6f6fKIuCJqaZpVYULLF5zCgcSwFHHrNtwCcC0pqGUSuqp/mVKiVQQq2lKiLBriPbfgWlSUtu8b+Iw8ZtGTiIu42hG1iJpL96LSsN9WnSHCyqwo05o77a1Q8/yE/M1f8Cp9Pg09PcRNRQV6LqBlPgocwczB0jxYybLSnT3Bj6CCkDT3ekqUvwt8p+YR+NP9Pl6qj3lMx1I6xFtfdAQPD7TaBT6Zlx3bD0mmFqRM1KG/wC8WlZmHtAvlF+sq4q2JlRR3NxP0SkLvYypS/CVouJkvPsxB3jMf0i803k3/wBWY34p9onlt/IB82uu6k49oUYXE2n0m0z7NZVqeLpEq0O8qeLmamntrMBxLYljKIN5aI3/AC1Reyo3eIvsJRYKtUe0pPahUUwP/wAoy9bxAd0fih9PmV9PwyysLDywjqDFrtkNKZHHrNOLU7Stp+oF45ceLYJUS3ilTOfaD+DF8hiG1QGGqfupX3g4ireEtRp7B5nxE8NIC/SU2g/kJ+YReHRoZ9xX+qfcV9Z9yHQz7l/un3IHrPuA9Z9xETR7TPu8+7z7tBp593n3efd53Fo+e69h816YYSpS2tKiCBWvNHUYpeMx3W3Diaj9C3+sq7SlrxlsoiHH7ROsTmPbbaDNhE20fEf2Ep1KlWpczxG0RAo/s56auMytpXX6RlP0lK+215TJFcCVRZh7R91xKgPdfvE4iC0t4o+Vga3EWm9Q5lDTbf7SajTbpPu9uJ3RBvsj0nck5lSmCij0jK0s444EO8iKlQnifdWYynoolJU/tg00PKzuKXpO5pf0zYg6f/ZNvNw9Z3i+om9fWX/ta8q6hKfuYdbVPC2nfakiFdQeWn3apbzTuWLbYdO4itWXhzE1bDzj94lRXFwf5y9VEHia0qfaCjyKTDr9T0VZ9+1A/Spg+0W604uvpHoYNTRP64GB4P5JnVBdjaPrFt4MmDvanLQ0LZ5iKPSCW3czEYWeFPDKdMMx9pUpXXiC9M+GUK/eD5J/ltStTp+ZpU+0Xc2pi3vOSDUzKxXAEOLGEEzN8wHawMqOjjCYgQoLgkRdTqE63ia9D5haKysLg/OJCi5lRzVeIBvtFXJnSFbETbFlrGEeOPVFgBP04MQ3p5lYDpKTlG/7xDuUN/M2dVFyZV1hbFL/ADBQZ2u5mxVU3hPiAm0MnuJfNjEzCpMa0BP7TJ4iS49IlSpTe6G0oaxXw2D8wkAXMrVTVNhxEpzusSmhtnpLCWzG4xF7KkIJIjYNor3lQ8Cd0Qs0zMpsTj+ZV9QtIe8/E1DG5xBSG2wmzbLU2xaGhniGntHhlVMAy86czF4FmQuIt7cxj0g5iUtxtFrvQfa2REdXW6n5WqrbjsESnLWFoOznt4hzHXEa+6xn0ijF4EPMD+GXBlMn+YVagppeVqrM/uYi2TaD9YvlhHiN4p2G4F4arEcQ1fDfpHvm0ud2ZyYcRWjEQX5m0RFtN3pD4pTqPRbHEpVVqrcfI1FTu6fuZTHWL2CW7SwFhMl4PSVOcS09BEAv2VLWsIoMIsBFa4/l+qcNf2lPTlzeUQVUXEPM6WAlOlnPSGx4lc7cQXPWES9pc3m/EwwvEsBCeoiG4jnxQQiU37mpccdYrBgCPj1T7qkpLZYM/EbbjFtfEvnPWE5jWmzwxARmLeFREAHZS5I/l2prd3TPrKQLi54igHpaBz4gRDTfeDCdhAtFN7i8QimLNKxRxmHy8zebGXhUy2JYgQMQIrXivthMUgQG8rCaKpjZ/j4qjbUYyn43mBFPZeXjVhfaJvMqcc5gYAQ2gVfWbRyZzLdJgcwtmCpO8N4ptV+v8tJsLxnOp1BHSX8XdiwAn6PD6yoH2yib4Mv+KQB+8KN3m6VKp3mGKL3hXbOnEBHX/E3jdAt6ZE2AiBdsaXzORiDwm0ewHilJtpDDoYMj4da+Ns062F5zMDttnmeEGw5MKbF/3GWsJ6kS3JL5nfbfeDU7uJfEvYQG8dbx+ezcfAYh3KD/ACzX1dlK3rNMDuJEUbXNxcmDyjpGsBmLUUviHagJjaq58MJu14F3CbWAmesuBA2cwFc4lJ7NaFcmXLNtPSbY9O8/huIFL3tKtNmtuh8GBNI26ivt8OpbdUMpr4RBzLQRhiHEpizFrcTduG6FYtLHE1SVRfw4l7NniJZdpEHSWvANoj+0Y9YzG8Fipmn8n5QsBG19K9h4j7Sr9oVALrTn33Vt1AiV9RfNWUq9Yn+oQVBezYP5L7Qq76tvSUn7u0+8MTxPvLF1uOJ3ykAjmW5IMrsx2gH6wjb0lgReUla59ISpGYwxaZA4hJg5uDKb2OYtUDMwo3mNVq1r24EFQgoxOJqR4AwlDUVzU8HpNrt4jNQrjpNE5DhOlvg6GAXqDsHMWNxLxheXslov8NYBZe3X0e7e44Mo5pyk3hE3QgRnFzKjgzct7CUltcyj5fyTOqi5MrfaKjyZlSrVreZoF29Yi70YW4m30lIG+ReaRCi3aPXWodqrcwCoL5n3nabHMSolQeE/Oqvspu3oJ5zczriMQIGmTyZSewmL4zLesRbsFlRAt1H7zmU9Lvy0+60pV0F/KYyMhsZtm21pqi20DpNNWp92adrEwaWpfM01S4NN14gVV4EpNjP+JVsRi95RZe8pjbm/wVTak59pRzU7LE8RWnMOIaizauIotN3A7ftRh4BKXlERbKJ1jGVmmVWJlhbrETwt9JS4P5B3VRcm0r/aXSmP3j1alU+Jpsm3EqigKaix3ynU/FBC2FoKVyTEpWKkCVNal9ufeadlfxjmNs2H06ypSFS5HHSUkqDKnIlGuKmDhvT5uv8A9Pb1MZfSW4zCsVZ3d9ondbaRitmAp+80a3qk/wBOZUHPvmaah+oj4NRQFVD6xRyJY7L+82i0x3uPWKpc2vGU0mUMOYzxGZsCVG229ZpmD1AbZ3fBqf4DSgbNOkDeX0jtaqIGvGbEtmLNwjMBO9XrKmtoUx5r+0qVTXq7jKFLraC8Gb3lQ7eI4M2xFMor+G0UW+fX1K0vr6TU13qc/wCJY2t0lrTSjvDnpO4uxIFo6KPO8XaV8MUsMHiK5BwZbbUu3UxNVUpn2g1i1brxeaVn8t8CHxHwm3pKtW7I22x9ZQrCoPf5mvI2Jf1jC4xCGEuDLmaJCfFNSPDBYwzSVAO8/wCmP+ge0Xyj4a426hov8K3+6WIIhRAcDMDlSG6x9QznPSbzeaUtuvK2aeR+80A/GPwa02ofvE5vFqra5lxjPM7vEO6nDmbcS1gBOI7YjtYcwgN6SlRpAjrFqLe0viEgQkloQOTBBFxSHz9VqO6X3j1SWvFohs35lQIDsUX9THoshF8yk7I4IEWrT7sHdGNCq/PMQNnxQFu87plvD4GZWFiJkXv1m3PS0WkCQRiOzaepuXiCpvQ79ovwRKYsLNwYgFwBj0iPuweR8vX2st/QwcTkS0aaWsaYPilbVK62XmL7xbHrKK2Y/SJuY/QRTj4dS19Q5iHEJFoY7AzeucZi5IsItxUt6zUD8GaAeN/p8GpTfQcShbymBl3Z4E3eBSifSGrxHvtvMxZutN46x2ucQgubHid3sYRGWb8zexjnwxcQqTOthNPTu2Y5LvZOPnE2lSt3lR26cCVA4YMRa8TZ3LEA7oicv0j0yvPWVaDgIQeY3ekBCOIlMgXzNlAruvm0pCopNXoJeo7GryZ3yti2Iii+3r0nfVaZKsmekr+La27J6QXBzNM9FHK1BmVqxeoBxbiI5wd3iiMHW/ytcgYC/RSYOssTPaHmFcy6pA9xeIvWd5YzSlbkibwpvOe3UahaK/7ugipubMttjuDL/wCYb5gF1lMFesGHBlS5000PkY+/w6qkaFXjF5TcSnXabvWE+ES83mFrnMJl5eMRiLe5g4it4ZlpYLGJPEp0STKjbF2rz1M0uNz/ALD532hXsNgP1lNXf2xLPsAdbj19JTv+Kqn9ppSirtbO6O1RNnp1lahRamGvaVPDa7KbxEqItqdiGETYqFn+kp06abgfJa8qNVR6mwWB6RaTGiXA4jOxM72oeXlN8z+IvvMs97cR2uyf+8fxLdJo6h3bT8rV8f8AoaXgmZcE9ltxlIZtDjEIN4hs3M7zcBO8an5f8Q69v/Lja3UNwoWbCxuTmIsYF22iNTF8tHbMUTpiKt8TqIVP3K80y7KKj4a9FaybTK9B6LGUNQy4M3XgZibQGDJh5jExXznpNrbL+oh8uYIjXBxNnS8FhgQJfmBN2AJcINq8yoIgso+bUfYpMqKHLsTmLupjzZ6SlqKh20mOPWVGRap2EXmxCyt69I2l30z+JEo97SALYi6eifDaUXajVemfIOIfutWnuZMSrQr3FO/gHlM20zS2nzdTKujr0UOxtynkSppnSnvM0+ketbbGplCUbmE+kWseDDeUbhswAmq1ubSm25B8nWcL+8sOZmZm0jMPME25vfsMpqCYJebQYUhNhePqL8Sm9hiODhp9YpJwcSw2weG0tuI4lX/SovUmDA+LUUFrL7ytp2puYrgcym3ixL5iVNu71ivZrx2QkED6xKFDu1PVpWBJAE2LGxKQ3H2mekwPrKQvzGqJwsuqj3iDcdx+drD+EYtPw7499q3hK59ZuGJodSBuQ/8ApvBUL7tvPEpAhPeGq5v4fEJ3mR3iY/8A1i7WpCwveamrutTHSUaYOTHuMjEqrTqr4lzHoGkcPZekchwNx8d4xArH0EqtTZhsW07sFLsczvcqLx61juHM09a7EfJ12KIb0abb3vFRryyrkxX3X9IV9BOnYMyzXlKmLdtvSM9vrK9S6YEqNaUz4eYGuBGwY8XiekoICZVF6tNf6Rf5FagtVfeajTtTPEosVMNTrN9oGJF5QK5vK5pAeFjA61aAtbfKoF/Dj1lmL5OILCFoonei20GKrxKW5s8fP1gPdj6zvG8KesqM97Qk8TuPU4gplfEf2lGvZD09JS1VZbDd4bxta2SFzfmD7QRgF239ZT3U0uBKdIEbreKeJDa81Rqbb34gYPTDDiagKhpPzGp0q29gbSpQamMmBVFjCTfmLS3rxmJTwy9ZSU02HydSu7T1PpG9YOJi1oFtLngiHM5irFopzAIZe/YUF73jUrvk4lSn4oqECMz2wIgJUGAZzNtoMZmjXlpRJdqlQ9T8mrSSqLGanSNTPEp0t7BTHGy6sYooiktn8fpO4Ft7YhIJlFLAD95Vpju2InMXdF94TeUKa8mC36R+/wCQrXsLSsirWTabi01AY1CwhW5l8Qm6+sT2loxuJQW5gZcbW45gOZdes11a7qt8Smb0l2n6xrsp9pT27WDDyiVmTuRt6mAW5iIAZTAJI32i+BwTNwBa0U3RT7fI5BEqeFmU9DBDBACX7GtaUPPkxADacQwtYSxPM7ruwFVsk5hW6m0O69jMzMV7jEJPNopJOYuTB+Fp/doi7VA+UQGFjK+h/Ukek27xRKJ3Agw6lttiI7reI7esatUYWljaC4iqxi0WPEp6cDzZ/I6nFO81FZd1IgYCyo1ybTcIaiwVTeA+kW5jUWF7/tNJY5tkSlh77eeY99+J3bbbAzVaCsl3vummdr26T69Y7eD6zuVNDct/eG4BzKZHWL4m4gx/mVwRtYdZpjegvyftHSZ75f3l4TcYieU3lhM8Tbx6SlSHmMGfKYy9Yuf2m25Blrm98TuVDlusats4lTzk+sX0M/QQZRa04ERwxAlJNxi+OuBfA+a9KnU5EfQG/hn3F59yY9ImjYdJ92M+7fSfdl9YKNMdPyeoF6T/AEg8hxwY/qIwboIeZTRDB6y/WUTvp+MRiP0tbxSnVIqWNyPURqq/h2469urpotdGHXmVsgek87Af4h8F0uZWU7N4AzKiAJTNsRgBbqIALWEaiDp7HkTSi1O3ytboLfiUuOoik3l/H2eWJwDHOSSbBZQ2qhYm5l8C8VsmXNxODHbHMu287jeFuJcQG9jaLfvYSxtEW17TftSwGZp6Xdpnk8/yhhcER1PebfeAWxCbSot82gO2CuL5l8cxdY9grWtKhosw2Cb1piydR/iNU/BR73t0n3yp+lv8w66txiIzPUucmKtTKOsIY1cIMS90qF82MvU22GQRxCtR1Xb5R0lt62C2KxE8QjO9jiUSTTz8vVaAVLtTw0YNTcXFiJuIERHZbvi0p2amTcxkAYg8GLVVHtY4lap4d1jiaaqlQkzkwkyqpVibw2xNg9YfFiWIwPSJcMT6ymw3WM8t5o6B/iv+w/lX2lT2Vd/RpuBUSxtcR6mOIYtPd1igWAhWeku7XJOYrta0dGGbYMzKdw4M++P3R7xbY5lM+LHJj0kLgc4huGIvxAXKgoeOZuzi95QG5rMekJtTNp0HzK2mpVx4x+8+590/qs1VHvalxiw4g1AQbdsv4wfWWUnianFFjNEpsW9ZgTfmOu5jniNngynuuL+sG3vDfHpACWnWblv7zS6Xed7+X+V6qj3tEj/EF6bm8XcPoY/hm3dKaERnUHmXvadexNo5vKdbwlXubmbE7vdi0KUbBt/PSLUJBQ+XpKFHYyPfmaoeO+7xXlalUU3lLaqeI2lMKKhzfMUBeIvI+fV01/EnMs4dgyzeHT94GAH7Sr+JTlG9OnmNUfdDUYQs3Sbz6ZiW7N1pe80uj3+Nxj+W6+hY77YnedI8X0lSowXECkyk1sTrA21r2iuDALw3GN0OOkNVPBY8T7zjft+glRl2e5lMPsx/+IzuU7vxGDTkHdzNztU5xKC/q/IVaKVRnn1lbT1KN8fvFfGYVUAG/WVa1xZTPe8uIrD0njviG95ZCMc2i0mqGyrKGgVcvn2/lzoHUqZqaBo1Ju9YZYy9haHBuIlTcMxiIMQE+sJM3CCmczfYBJ7zvzt2ZEo6llG231jajbTG0i5lOiWfM4x+Sr6FXyh2mV9PWQ2YGbT1lhnmAe0UD0go1mOEaL9nVGN2xE0NFecwALwLfzCtRSsm1pWotRexEvCY2TAl5S07ZMWiTCMkGUqZjLKShrgTc6Qi4v1hv9JeJtRb9eko0mirtH5QgMLEXjaLTt0n/D9P7xdJpx+mBEHCj+a16CVlswlbTvQexh5NptvFE0/ia15TqBAyuv7zUoBmIw2nOekO4xDFbccy2IJtKDpnpKNK7ZF5SpBPr/Z9WklVbMJqdHUom44l85n7xFzgwarG10vHqE4tiKDfiHbxFWxMxiKUEbPEoUGYynTCD3/tEgEWM1H2arZSNpaiTu6gM2s1y3M7s+sSnfF4abhpapKdNr5i0+gS8o6Hq2Iqqgx/YZ/IlVbkRtKh4h0PvPuH+6f8P/3QaBerT7lRg09EdIABwP5tuX+oQ1qQ/WJ950//AJgn3rTf+aJ950//AJggrUjw4lwev9qNqqK9b/SHVO3lWA1W8zmfh9TGq0hHrqYSDABBzHtBjgxNVWp9biUdTTrcc+n9oVqndoWlTU1HPiaUnW/MXaRiVdZbAjapzO8Jm4zvIHgMC9TNl5smRkczTajvBZvN/Z+ufhYRLZiVHU4aGmrRtNYXDCbWvxNj/wBM6xFtgCbMxd9sCb5fs038Qf2fq2vUbsKxaQM7lr5myKADEph1GLiNQpq11GZ4hkymRaUioVl6wBFTdsvOTe1hNi2mm/jW/s7gGVW8XY/MW9oMrNmYElBiBtvKp2veG5N4PpNz8xPE/i4ndIUvt6Qoc2mm8OoX+dGrSH6xPvFD+uCvRP6xAynhh+RrG1Jo/Mp5MfmUs3F5TxBz2UtyXN5W8UHEHlijw2i0oC4NgTNwW4K8ymv4yH3j9P5tU1NKnycypr3PlxGrueWM3zdLwOYmqqr+qU9ap8wisrDB+drDamBDEHWGUllpZoDeGMMRcxUxEGYu1YzWNxaOS58sGHUyp5f5o9RKYuxlfWu3lwIzGEzdN03RSLcwES8vKdZ0NwZR1qPhsH5uubgTrFYBeyjzL3JEvtlMbr2gW3MNrwA7sQCyiC0/YTpz/wC0zHm29NT7flCwHJjatP05h1FY+031/wCuXqj9Zi1K/wDXE1BN7iJWR+P8fmK9daQ95VrNUa5MLQ9uYKUFPNp3M2mCWnBml1dvC/HzNafxTCcwGXlC5aBbGHPEphhOYadsxcQNfsX6RVbPMqXm65lC5or9IefyJNpU1YHlh3vloqAdm20tAm6bQnSMvBgqMovyIjq4uPytesKSX69I7s5JPMJh7MwUoqLBkzbcRWxMHmNT7CB2aPU38Dft8vUNuqv9Y3bRxB2A2m6F/WEYiWCynbrOkdhsveVhYSiqvvv0E0hvp1jizfkdRWLttHEVI0AvLTr2Z6QE2jLie027fLEfd9fyZIUEmaiqajkxoewITAloM9IZkQzaJ0l8QgMJstMcRSQZpq3e0/cfJOAT7RjdiZeDsS9gOwdh5mc3n6QJsvaKMwCMtwFxkystxmEEG8+zrdyR7ysPF+Q1dYjwLKay2IOwcQQwHHYXg+kIh5xEfd9fyWtq/wDhj94YYYi9TFAhsI5DNgWht2DmXmevYL3hXvBaVFsezTv3dRT0Pya7baNQ+0XsBiyxPEEE4lvFLeMRsQYt9Ip6zEo2v/2j33ESrfM+yzdDK46/PqPtWeZrxRaGWx29O0eksBL9jJYzg3EBuL/kGbapMqOWYnsMprfJgtE4gUwgg8S4viCE8SwwZfIh5gM4MrUg9PcOYIvlI/xNLU30R7fI1xtpXiwwCU+YjbuO08zG4zYN2JVubRKvMatYRGJOYo2jjpKvr7Sr9J9mW3MDK/l+fqGzaU1hPT4FBJ7AIKfrDStGpYlovMZrxRcGKdp9vyGtfbSt6wzrALmbbtjiAekXywtaF5vE3i0viboH8QnMHW8EpHoeDKqbKkQXeaB7VXT1+R9of6f94vXsEp8ynB2DkQDxzO+0tE+kZcwKN8pkksf2Er9PpH6z7OxqG+kreT5zYEOSTFwJa8tiCCLiLY5gIXmNWfpH1GoB6xddmzQNuzB69it0j5EpNdbHp8/7QfxWhJi8xKXgZ/2ECkCLiKBeVLdhENjLehl5um+Ib5m8ekRhNWA1JGE95QqbdSh9/kfaP8FfrE5jjAM4ETMUnjtPSbvFHezTezpExCDaJ0i2wBK0YC00eNUPpKmVPzqvljC1JfcwdmeJnsBgFryndhAAOyvpqdVeLGUnNGrtad4Gp4hitxLqSbQeHPp8/VG9VvrG80Eb8MKntAZbBMAtCogp9ZsBxyYujrH9MqaGuvCQ7lORECm244jLnw5EpueIkuJh6LiX5EW3MBuAfb4/tRrUE/6ol91pyLT1BiYtDcLuit17esq+aUb8e/YIlr5lMHd0lUHrHwZRxXQxvKfnVzicrSgsO2/be/hiLtQfB9pLasD6iaU3piNCbT0h4tKB8NvnVj4mhlEXqL9Y/iqky1yZa1pjEOZTomr/ANPrEponlHbX01KuuRn1lVXo1ChmmZN208NNTQ7l8HEpPiC1po/E5HtNUNtT95fwCUDehT+nx/a7fwllOLzG85i9J4iLekHSDsJzPNeUwoubxYkE4/8AEh8vmlU+KKfGJfjBh5+bqJROVh7bTr2UrbgTBwPg+0mvWtNKbL2HmAQWt6xcP80+Q/SP5oZpR+KIL5iCVTd1FuIsWkzD2vALCw+H7XpA01qekpbWFjLb6W39Q6xPCYpvNG1qq/WfaCfjVBFuoE0hvp0+P7Sfdqm/2xIDZhCMxPMIFO7PEXF4s2yphYeBaJy0TpBaC9uJ0ECdSJWEvkQPhY3mPza/EQ2eHJMvN3ZbsP8A7yhVDY7dRXWivvDuqVLnrKXHYvBx2CLzBlF+Y3lb6R+vZp/4hMDmUQB4ovia/Zp6j3CdPi+0v9I0U5nFrHpOsoygR3iz7R/jGBrrNF/pl+PVG9SofVpTg5h4BiAmMTgHpF23g4xPF1h4gayiWuTFVoqwTrPpeVI2JRN6amVPMfm1vLG802Na/tN3ZeAy8Yy+0gzv2HlIMqarVdFAjd45zmUqRBuYsMvAYPXsQ+G3zD5T9I/LdlHDzAlP+Ex6QEWtLW/xENmT0v8AF9r1vCtL/PZSbaDPFvEoqIl1cT7R/iY9JS8uZov9Ov1+Otkk+8pm06weWUuZ+o3MVesvN8a04tiKN26JF4mYSZm0cQ9JQ8ntKnm+awuDKnmmlfEqqO9IEXwiG0HYYewk2m0gyxgi8wwBbe84E6Snyfm1f4hh5i+eWu3tKdvu5X0lELfM5dpkocSnV4V8Nb4NTqqenXPm6CVqrVGLHkxeYkXLRvAxX2i2us14/ENugitcftNH/pk+JvK30lTmJFvF8WIpxFQFfeDyz07BCYvWJEuRBLeK82i/mlTjEfE0r7qJ9o3T52pTMSptwZ3oaophmIq4lofrDmLAsbc0pkeGMMzgS8zDmYlMZPzdSv4x+sfmDzCbuk09mTJlMDeVtG8JBnCRrOFx9TH1Op05PiuvvB9snrSEqfa1dvKAsao7NuY9iCLbxTSKDVW8JvUP1iHxj6z7Sfx2HFoi2QzTC2np/T4qn8N/pK3mlODmObEWiAEC0DWBiS2Z1hNuymOykZ+03ZgjypmaJ8FbZh+dVTcsrJYyihZ5WpqlO4aL0gv07GgWbbQAkzrFH4meINhh5ntAJ1mJT4+brl/F+sadZ0mjfJuMEQm1S8/iForeHYYWKyoQ4ItKtLaZgdgij0jWXwyn4VJ6xBKQG8fWa1715TG4L7mAWUD2+Kt/Bf6St5osE275TPSLmKOy8OZtgg7ATaWPpBHh6zR3Wo8/f5+ppdZchhKR7wHdxGQobRTiYhGYF6HHYuTaMk2z2gXsXmbCZa8AsLfN16+FWjQynmb9u0LNzMt50xz2F9uIStvSOo9ZUUq1oBEp+s8sAyIIoMQ2JPoJU8TzS0rvT+PU/wAB5VOZTgiNmLYwBekAx2Wlo3EU4hqcRi27EojEv7mXj2jACUB4r3zL/PIuLStS2tGfYMRa5frKdjNszMMPpABEUDiETbjPZu6S0UeLmMWXqDFzn51ZN9JhDzGiGxtElJttheWBGDL9D/mOvvCotmd3ePTMUW4EsepnMQEzrzLmVagVLdYqzQp4Wf14+G+ezVfwHlTzGU+wReYvZ1nSdIZtgEtKcuvrP3jcRjByBFa5/IOgcWlWkVlyHisfS0R54bRSwi2K8wXhJi2JuYABFv0EC2tuMLU72gG42H5DWU9lSEQ4gNxN2BBUvafpi7dvqYXUEC0aoo6RrWEPEsTKNNYV9IBmXUHxQ/ivfpEpFiFHWKoVQB0+PVfwHlTzxDDBkwQNjiB7nmKb9pEMXsW5hpt6y1hmV2l+IvniNcnP5F0DiV6Fmz/mB2Q5gqC+JRcxWsIL9Ir/AKSI3IAM8ScrOtrwMRzCV53xd1R+MQAAfkNTS7yn7idYyxTY2nh2D1nWJbZNybVEddwteMgCzZeBUvmbMRcWje0326zLGU0t0zNPQ7oXPmPPyNX/AKd4/mMWcxeYLbInlESmRcn1gvBAOYJidJ7xL3HY15VXdaAeKWtKBBLfkmUMLESrpfTiPRI4iVXTmU9Rc24iueb2hZHtzAwU4MasW5MaqZvVliUCctx6Tj8lrNPbxrx17HWI9sGcwNBSXYD1hFkm9rWnWYlx2M1uJbdb1lKjKVEJk8/J1f8Ap3jwQResHMXCwRexoB2GEgRDmY9Z0gXMODG8s0q2Q/X8o9JXlTRn6xtMyG8JrsOAZtq2HgMGn1Jg0Vbq8TSKvmO6BVXgfldToyPEnHYyAzeV5iVBBUtfM2kWv1jFbzcL27GebmOBFok8yjpvaKipx8rUC9Cp9Iwg47QhxFGO0GGDiVDaXJ6zbEEKiWxBxKpzDxKQ/DH8yq6WnU4wZU09VP0y0NIGbagne1bAWm9z+kzxn9M7uoYunHWU9Ox4ESgi+/zHF6bj2jA7uzrFlIT95a3bzBxDloV7FMPZdrRRepGH81ehSflYdAv6Xn3J/UT7nUg0lT2i6RurCDTL1MWki9Pn6hdtZl94YIpMonME5E47N1oKh7b3ijt3SmnivBlv7L1mn7wb1GY6ns6iUPpB29Y0IsYsdxtiDHYDDKY8UJlPi/8AZlfSU6vsZW0dSnyP3lrRGYRdQMQVVtzL9nWPYwEiXJIisLQmKZzKeItPqf7PfS6d+UjfZtHoxEb7Mb9NQT7nqR0hp6hf0GCoy8w1pvhqS8RrS94ItNmHFoiKvH9qkA8iNpqDfoh0FLoSI/2a3RxPuNcdINDX9hKejt5ni00Xgf8AyQF+o/8AnFceol1/qE3J/UJ31EfrE76n6w6imJ39OAq3B/tJ3VBmNq6xNkUCImpIJep9LRqbC3JzFpAtz04jU6IHlxANO+BO5RUEfS0SAZsUWzCp3Mu73ENF/wD1R01KMrjBlCuzL4x+/wCc3p/UJ31H+sTvqR/WICDwf5gzqi3Y4g1ne3tx7Txkiy/vAlfeEtb3lBHVVHOcmbRaVFCuCOZtJx09IKb06t9mI5SobE/tNgC4EqVNrWIlQ7bnaOIldmK9J3LHIfwxtP4PNKDkrY8j8nxzKmuppxmDW1arbUE7rWnrG02o6vPu1Zc7p3tS+25vGdgc3gKsRugpofLU/wAw0ubCeJev+J3tRf1m0Grqel4msQ8qRFqI/lb8y1akvLiHX0f0gtDrW/8AKi6w9UlOtTqcH5+s1G7UAHyA8SnSogDu1E7tUF1XMq27xD7xiFUWMbz82xFyola9rgWiuz2FryrRAsVjVX07DdK1VWceC4lfxFSIEDUyeJTDGkFQ/WBW27b39YQ1OoG/JVayUluZUd6xy1h6S1FT1nfcG1p9/ZY2sqsPrDUfbbvM3hGcTPU3jkBAbD2i1W9YKz3HtBVve4juGtaBXt4mxMdLiXO/Eo6u5s/+fyrMqC7GVftDpTH7ypXqHzPBRq1MxNNtYeKINpLHxQJTZLkSppyPKo9pTq1ExU/zOfmO21GPoI4u+7m8oPUp2ybekTWEMd0p6lTqBa+YADNgl7DMrvUYDwke8LbE5veF22Es1hH3VkXxXtKo22F4lYKLMoMXxmabau4AQOUYytkZPMoG6Z6fkK9daS+/QQsHbc2TCv6hLbhPLBbsG3MXzDMLAYKxQrUiLCDzES73ttl7iDwrjmGq5ner9YPHnZPD7Si5XB4/J6nVKgspzCatS7dIJRpLe7cRWVrbeIeVxG48sp1cWM3nd7Q7fSbXpMShuvpKdRKnHy9Y1tO83+ED0lNr8R2lA+NTeU6qtHfpKjeC94mx+HmpYj9UuS0QqrxtOzDcTCu3Npp9ipczyuChvHDM5gpi/MpYd1+fUcIpYyrULuT1huMxHEqci0+s4l/WLVtxkTv03cTcf/8AYxY2jbXtbErMBSGwZi1ltm8uWzaXtzALyx9YinvQX4ngvjrKR24v+QZlQXYzU60nC4E3ZueIGdv+noItDas2sRKNkm5N3ExGC/pgtwTieE+WLzHTO4YN5TrXw+D8rW/wwIiLO5Aa44jZlNZScXNuZ0v1jOLFSvSd7YkAR1xc8wL4bbYFAa54g1Kkbbwj1Ep1cbZTfa0rVLuNsC+pzBjUZ6/P19ThP8zw4nlOY6jkRWUjMuesxKjNwIGOwWgDNjr6yluRbPAM+EyxUcGXS3ERLuTHqP6AzZWbN49SzWGYhJNjzBybymtvEMj/ALTZjdaLlfnVq6URnn0lfUvUOeyzObTTafb5uY6GUqf4k2Gd36dYWYeEmI4CiG7XxNpHtFOd3WN6ekS12v1EV2p4OVmCLj5H2k21U/eAuVUCWtTteYtKd/WU6Y2qRzHFXG2VcJk2MJ8V4C7tu5Am9ARkTVJn6iJZc2lJ/WH+LieAciXTcDBlm6yrt7+mR8+o++uT0jpY4nmH0iehxDYTkSxlVQ63BzL1ExaU7kekstrXgp34j1NuGM+8B8QdSJ4r7t0DeAesTuwbnMRW3Xt+8qtbFpTbp0Mp1f0txFBVrfN1GtCYTmPULG5PZa80umA8RlWsqAADPSUdQoXxCd4DfE8SeKb29YoNzmAcEzwgXloPPmWW5JgBuLdZ1iEo3+w/I+0jmkINLdb7hPECYucykq9fKYand4Q3EOsqeUxqFSqPE3SfcQV94KK0k2esqjaJirST1EZRuG2I/IAE1SWYEekBqLtPvNxBvBqLcRWNWoCOnztQ22i59ovHMQ9JezE/5jVQ1PbCcWg3dJvAB3CUwrj0Mbwp4rSj4ha+Y6PTFzxDVZh4TKaJzU8UNKhjZ4YadhmVKyDAE+8bja02G17Rar4EbxZmRYymwPi/zCdwBB+WzKguxmo1pbC4EY3nWARNm8mGoipzkzfuPvKZI3FheAri03Y5wOxFGwD2i85jbM3iL6w2BHWVAOkQ7YTzN42iUXv4b5+P7W86/SUqjhL3heIMyioYbY9BceK0S2+1TiU9RSva9pVY03BHBgIZi17yqCH8QxLnuyR/iBLvzzwY9LYwle5CXh2KAC0MSianW0Wg9E+b532g1tOfrBHOF9Zb15mOIbekLm1unZebN3WJYR271rXxESnT8wveLRpP5an7Rg6ZPELvUOJSoUtrF+Ybfpih9qi8ItzDsOJYr1icZ6xH4nt8mtXSit259JW1D1TdjHveGC7RVycRc9iYW0B3U1EUWgFsSmL5ivaFd2QcS/i4tad6RjpFUw+W8wbwAHErsgVVELbWVh6/H9qDxxaKqmPNaeHqIouLqJRt39zGWqL8W6RqTVLuce002zfteNawxH0nj3o37SuQFK8zdYYMV9yA9RKy703WzNgbSL7QU+8Nl5hSouWE09YI3EqPfIPWDgfN+0/4K/WA2i7rXERSTeVKP4e48z6zbLNBCCJmI3jlxALFiDb0jNUqUZTYpKtTcfDgSnp3Kg2m7ZyJUrWS8pMtQEgWtPFEwbxuQ3SUG3Lzf5Gp1a0BblpUqtUa7RCAnGY216kI8XMRSfLzCNt7+a8CsLN6zrPuq92u4294gFyAcRbRrGIcWl5RbJB9JX8guM3hW5zwZfNhHMvjiGbbtGXj4/tSnemr+k013/aKiXuy4n3ddvhxed4iEYuYlZKrbXH7yu60WBtzKNKg7HOY9Ng2DA2wWJjeMEgxaKNdf/7eODTN53rlOZpyW0xHpKlgb08R6u4ReY/lBi+UfN+1P4S/XspvbmX2nHEoHfgx6W2oV6QgbffsuZcmZhpQDE2XjVGC7BEQtk4mzPhPE2uKe6VKm1blv2hapVbAlOo1E2tKD06nHPpGX+mEnaRNF5R9fj1WqWgv+6O7VGvyZ3a008XmPSDxeFOsde7Bl0tgeKAescZgbxCVEQHwNfE7xytt0pDAxCesX/2g5tGPGIgzDawzKSgsbmFagb/tGt+86xoCFErMrbNo6/Hr6osElKr3L49JVq3eU+7a3qJVSmCeZQCKyHmGixffuxKL7Hv6R9QGI2Stdm8V5RcpWsDiHcr3TIjUtzVAWn7zR/wnjYYmPnIg5vCwYCL5R83Xi9H95sV28IjILxRO96cR2ZskywvzNrZniEE3LP3jKLYm04jXzaBiKeYSWstoLzUUzfdKFcK3HM1NEv4wMxO9U2FwYrEKN3M355M0Ya5PTd8WordzTLdekdmqPc9ZSpqi4E+7LUYtuncrToM1syoDyfSUhbLQsWFpabBKSB323jjYWXm0RpfpBe1ollzOTeDrLkmU2s0Pia8Nv3lzxH6QFKg2HEZAHQX6/H9o51JEO4ogA4iKHqJun4dFT4s3ndtVsVPX/EpUaiXtYy5WjmJl2mnTun3Hgzwu5PpEWl391mzw3XmVawt4lt6yoAfJNIfwagM3eYesXHMU5zPDyIvA+bqV3UXHtKB23PWFLpcQXGYW3Qk9YvF+scutoHM71S1ygtDt5tEy3rHDB7cS/S0ZxeGmzHBiUgBfd4p4hzmVai7L9RKd3cC0RrWuOImy9xaVmN8TcwmmL3QdL/F9p1ruEHSaWgCu8ylSLNbpNiU5qKoPhB/aWBv7TBxKNLBzDTucx1seJa+Y0SERDmADsv6QWESijcxsb/Y4jdCvMawO71hHWU0DH9pbxr9fj14/5qUzU7wJtvCjO46ESpSLk54iJUWxWfeL2FsytWztie8719lopb/MZXplpTquF5jag8kA+sqWsK9PHqsWkzUSQB+0padWq2vKmnpp1lRFW1sxF5EHA+a3EYFKjL6GbzPMthDTZbWm0kza27wiVKrN5uRKVFnWXN9tuJ3ahTcXJ4mm0wJ56QPSTPmaNTbdf1MfS11yUvBF2+s1Kv8Apm13PJlHT7FvAsLFRBWneXybRPE6H0Hw8Srd6v1MSygCUVYc8TV1vEQp4nvMG5/VAq/vF3i/pFvbnsKGe0GZYxUtLWvF7N4iVhticlpgHnEvaEkCXKbQfW8t+On1+PXXGrUgRdnhJG1ot2qleYaQ2Tcw4ECJ180qsD9ZuuRO9JqW2xv4m1f2lff15gY2t0gziLuVNy5lHGmuDzEa2ZUq1C1oCCspBn2+3Pz9Wn/MPFwJmmbwDvAxvaKh5JisTW9JXsGPWK5vjEp0r3MRFALRW6g2m1G9jGpPv80pOrJtbNpWpE1DAIlM5ndtBuT9JinwXtCadotNGuekTS0myMynffn0+GubUKh/2zPmlKqm27jxdI2pVcsc+kqEm7esxaMKe1Lc9ZvU/tNwZIDYTdmEXirBTzNstNuRLT2hEEtniZA6TxekQKUuRmVaXG2KD36XPx65tmrpNHel4N3MNRUh1itYJO8O+947uXvEbJvCwPAlPx9ZaoG8PmlVanJWKm5rGbQmLwbluR/iGp4Btb6iNvNts3X5iLmadvHs+f8AaC2cPBzNgwQYLARqspVOJ3IqPe/1gQhzdfpEvtIIMq8gKIVHXmGnfhbTzA3F/eJcMfQ8xiN5Mq+GqbQPgRak70CLUVr4iJpqhhotTUkes7xgvm4lLO4/Drf9M8QXMxuv0EbxOTAxwIVS27r6Qgymo3eKG0FjCg6QEHwymNtweYIektHgF8QkweLrEJwbXisSY0y2PSHu9uGibbYM/wDHH0+PXbe+pM3pKmoPe7pTqU33X81pkObTfeLUs0P0m6xlNmupEDoDuBEqVO8KhDKi901v1Tdc57KnNxE1F1AhNzBNId1Qn2+f9oD8MfWHmBpcFbiXiE3lFd0NDaWufoIuTNpv4ZTC71mqNqW3+riU6RQHM/UwlNfCZV8wvEAMsRNrG1o1FloebMVrNK1Z3K+kKfhk7pRH4fw63/TtKZ2tN5ae8MBN5eejR/WAxagtaWHSAwdIRftXEa08MyDMS7HpOG5hXdeUfC+YB+Pf/b8f2rhaZhpU32Z23lWkaO3x3vN0FxaUqDVTj/M7lxfxQaVriwlILTO1sqYdIUO5DuHpCbObTfvbxS2bwta8BRsdY6d23tF8l+kt1E0K+Y/P1S3ov9Ie3rKfMFd9/wBOkVibE9ZwD7weYXjsLghYw3WJm9ShAluB1MSnuwvSahbOcwcTYp/VFusq1WcLCDcWOfSBvbMNQbQOu6J5B8OqF9O8BsYlsm9oeD22h5t0hXEIiW3C/F4GXcQDAQIDC2TA05l4TARBjxHtJ5xLebH0gp3a1+JT55vj4/tYfgrD4QtmvLtLdZQU1HlBFCAXzHpq/MbTYw5EqNsYK4yIlTqJqV21iw4MRA5OYAVvCcCbf1RheL4XsfKYoXu+L+80y2TtPzKguhHtOL9hl4rEQHNz1lE3pr6ifpv0jeI2BikqeJ3hwDO8UWAXmVkdgOI1Tu6QUH6xvFxFRfQwrT6EzPEpbDzFKDL2PvHCbRtOY27egi+UfT4XXcjL6iOPFATA2ZYkzr7TcM27Nw4PYRKFMsCfSGZtMiYxLjj3hMti8KCykfvA894GIwY3WXC/4lkdpQFt/wBfj+0xfS/vBe0ov+Cw63ntNABtfcOmJSyB7dusQMVlL9SzUFsKYGP0nmBM2swxAD6xj1mzvAbDiU6b0kVw11PIiDwj55moH41Qe8E/T23mmqWGTzA122IbiNVWwERkZfFKqW2+IQ1DRpdLzv2tc8xqhYzxARarek3g9IQv6eZ3Rta94GIxBwMRaVLaht4r2+PWU9tU9mbxW6QsRiDIhvbmacqtS7C+IL7pgKZRq7SPSC5+kHW8XgXnEMLZgXeQBAu2nY8xlK9Ip9JmOBbmU7FgjcSvTZDuWacfgr8f2h/pmgEAsZ1miUPT5zEwWXsJAlSnuGYy7WN+ZVAa3rBSINrzItshVl5xLW5md3tKRdLsox1iks4XpeD8hrltXb37L2h7aZ8UchBwZTAPJm8jgxybzPYqIRmFB+kxe8XNo1TdkrBtviPg4M06M5PoBLNu8PrEH44HoLn49fTum6Labd0bwy8AOeynzLCPe8pKpxEEt1nMPMAhUHbc4M2mn5WneEsMyu/AEXLgdYxti2ZeP5gY7uUtFFlUe3x113UKg9pxAcy15pDYiVXIC9HWLq36pN+5huMr1V9ZUrCb93Amb8TyfWFztEOREF7T7psOGO08zTUrVj7fkftFPFui5WNe+YLLk/B34KbSIDYQEQ75vzFfERw/6YKSMTKlFgAQ3M7isom2mWz4DDRqHI8Qmi3DcSMCd9sYu2LzTXZTUP6vjqrvpsIB+IQcDrC3juvE2km8IliODyJbEFM7TU6CKwtLgxbb8RZc8EQJbiGXE831Ebf1iH0EK5gOxrys1ypHpLxxKYu65+RyCPaVRaow94JQUbGxF8Gbzv6dVsxrpkQVk7wXxGdXYj/3jJE0b2D3jO15TppXpWPmEqUHTmUtH3qeaLpe6ez3MqNUpm3SafKX/I69N1K/pEMfxm/pHYG0vLy8URVyPSMgXE2m3Mb3E2r0mx1p3gbbkGGoWIvDTNt1Opn0j1qgw4mmNLzce03IqE8iVWeuyp6mABQAOnyNdT2VT7xDtneiHiMLTcbQtiw4l4OIFO6/SK22NUzA2ITLbuJpr7+OJXBZRtXIlyLTa1RsSxuQZ0l4eJoluxb5OsXbqXHvFlIr3bKDaMGZIoYZhrYtL5gGJ7TTV7XVv2jm7XlJ6gbww1e9Xaw4lGp3T+0NVt1/WVGZ22NzEXaoH5Gst6bD2hwTFaEdghimUHG678SrU35tbs3GXSXa3qISIxEu3rN7fqEWmgIs/McodNsSaGiQO9b9vk6vT98mPMOIwZG2sMwxXS14G38iAG07t2O1YBzfE3cQE7dsEMQ9lJadtxOYrbnLRKhJY3hO5p3hU4hrXt1zOSbQjmWubCUqfdoB8n7Wp7awb1iSntne7htjXXE2D1mRKd24jg3M09K6bhzO6cKUKzToC99sqDx+IcxwyNkQIGphr49JRW9Qn0/JGakba7jstBL5xO7NsxZwcTpxPDebRadyfrLOsJY4tOYRa0It+qbaZCXM02ndzdj4b/Lq0KdUWdZX0FWnlPEsvENorAmXHSAZm2IIvEIvAvERltwIdg22N8ypsCeHrBhbwQNtDSnRaoGt0EVjxN247RzKNEIPf5Wr041FEr16SnZPCwIYTG7ECWYAytcGJfdNmZRFPu77siUyjVCHlKminwNK2p2txFqlWuGj1la3WVrOcpNliFWIth+T+0UtXv6ibp0ggBvK3eLs39gnSdeJ9DNzTvmgqIAbjMLJbGIrZjne+BLOzKg5Mpp3aBfm1tJRrcrn1lb7Pr0/J4hL5ziAwAj6QykTxF4jA9JuzBfsUgjxfSEjaw95eMbyhqChYesLEufW8oUBTF+vzGpI3KidxS/oEbR0W6Sp9nk8PBoKy9RDpNRNtWn5ktKA8e6FnV78R3JN42GvaUgSvlmxiBc8QIB+U+06W6mG9J0v2emJTazA+k1NU1CLxMkQ2E2MsvLwHFobRlNr2ndWXm5g5xPFusMzTacUlBPm/IVdNRq+ZZV+zqi5pm/tPEDZsdikrYxWnOLyymKJtxAOYT0lVGWbusp0nqHjHrKVBKfA/JkAz7tSve1p92SfdKXpFoovAlvyzqGFjNRT7qqyn9oFLAkdOxeIVH7xQZ1gmG5m03gRjNtDAKm45lWtR7goiR1t1gmj0vdjc48X5N6SOPEt4+gT9JtHoVE5S/0ikcy+YJeBrQut0AlZla021K3/APMpaVV5zLfzDX6XvVuB4hKCHxXxPAG4hp7Sc4hi2gUbYolrHmXP1lDcT4Ul9u8tkmaZLc3zKmmLNsVevM0+jp0c8t+XakjciNpUPGIdJU6MIaFcdIlGtfxLE07Y3GChT9Ja38zq6ZHh0VRHvys76nkEC0rGkWGwWgtGWkODAh6GbPwj4enMWrTpAWGesFWtVIVcDrE0xWr4sqOJ94dnKKspptGef7TtK2jR/Yyrpa1M35EBhvAYauLXiujNmJqlp0wBErbk4u3pKNEU8/qP9rWj6ak/Kz7hS95/w+n6mH7OX+sz/hn/AMSD7N/+JKdJaYsPzNs//UjUqqkOoZus71vWU9Uw80DBluP7ZdtolZyxiEwRVlm0/i5pmAgi4/thnBZvaHzTrFMTmUwHRqbemJp3NOqaTft/a9RtqExqkv2CCUKnE+0KHlqrKL95TB/k+5fWd4nrO9T1nep6wEHj+V617KBC2Z4T2dLxGiGxgPe0zTb9ppz3dY0z1hg/kJxH1KLH1b9IdUx6zvmhrNFqkwswlOowzKdQOP5VrXvUtDExzCcxPSDy+4lM5lKpYrNalmFRZTfegb+QkgC5lWq9T6Tub3Lxz6TaTLNOInMLeGU7bcyidpEBv/KCbAmVjerOsF7TmCdcRbQR/FSE0jbWKfyHV1c7BFTF5UPhAip4CYObwZgTM7s3xADYwXEQ4lN/5RqW20jOTeCAwS0EEBlIgqRKgKOHincAfz9R9iEy+97wtDmXYLtlvFDgCBbwAicGNAxAlKpkRGv+WqalV4iVmYE3gqcRTcfO+0H8NoOxcidIvEEXspk3xKyA0riaR8FfT8/rqmQggOwXm82i3jBosaXgPrAt+IyZjLMiaep0gNx+Uq17mwm7cYrWFpQYDmJioff52ve7wCDjsv2DzTN5zOIjBlgPdV/zzHapM3b6pMqWvniKRLxcwjstDFa0LRo95SNrRGv+T1Va3hE3HJiCGI8DYU/NJsCZqGvUlzAZ0mnVXV90T0gGYOZxbspnM1C9Zp33Ux7fnddU20resXAldzutFq2ESreBwBKZ3NGHEPZ0nEcnsQGU3t+SqvsS8rVCXzGMU4hbwxYl9spHw29PmahrUjGy5nSehhMQ2inxTrOZ0HYDH8STTNtqW9fzutbdVt6djpulRAnE04N7zZESztFzOZ9YIRAvWWsbxFtLeIRePyOqqhn29JUNmEVSV3dgFxKYiYEoP+KR6/M17WS0HYvPYsHM6wGdBBBF8pEfwsDEbcoP5tjZSYzXYmNV2tKlboJ3nEQACb7TrAbRTyZzF5AhwIOwHsptn8hWfZTJlSzDcOkN2YQKEo2loIggxKZ/EVve3zPtF82iiHmLBB2idIIDEMrCaN/CV9PzesbbRPvOkdbxgd2YqEtE7ttw6ysMrC1hid8L2EXyRTB2NgzvLRXwTEe5ga35DXVLYiPxKSDfKpN4OYDFMZrCbuPreL8vXPd4vSNBB2CGDJl4vYI+RNM22rn83r28SrKr7UMpvmVEvEXaBFchozAsMxgLTuwM2gOBLwG4huQI3EYTf4YhtB6yi26mPnVG2rNU+42ir4Kf1lMYPs07sOkZbG0HY2by00tS4C/KqGyNK3iqGWnSLOsHZ6Qcwg8wcxD2dIcNKD76Y/Natt1Zo6lhad2VUGd7e0vNuLTaAexrczdm/SbbxeZ0ljmMRabpuAEDTStkr87U1PF9IKZdv2lJLinDS2nZFQ7ZXUq8HYT0MvaUX2VvlatrUpfxwy8EtOIenZadO1TLyoJo3sxX8yeI7ZZveCqsJ3SmBunES94YpxH4gU9YliJ+q3ZUvtj3xLeKZgtaUGs4+bVbZTYzfuVppFG0mDFQ+kKBrNAJqKYKG8XsPnEIzHxUBlFt1NT8n7Rey2idgHZeXhHYpxCl+IDDFMXkRxiI21wYDcX/ADGobbSf6RvLGxEewlPLRLQYjKSsGBaHsHM/VBwI9rSquIYpzLeKDEQ3Rfma6vjaJp1BFz6yl4Db1hRi/wC0TKCXzNRUGy0XrLgWlQJcND0tKs0Lfh2+T9ot4ogggOJbMEBgPrF80K7TA9iI/nl4DZoDORDNM96f0/Ma9rUreplrzULttabPCJSTrN8/VFbEMF4YoiLmE2jud8d7DMABvNsUR2xNKb0vl1X2UyZUbc803FveFvxVv0MquN9wYKtlj1vSO5MGI17iXBBEPCypNE3it8nWNepE47AYeewLNsBhY2iNHiw5iwRxNI1n+v5jWZdRL2cxhvS1p3bLzDjHYg7DxFnWARTCenZVzDxiDy3MR7iNzNC2CPl/aNa3hguZR8DC8r+bcI+64M73pN9xBKlLbtN+ZUOBKd79hzNPh/kVDam0rH8TsE6QeWL2LtPMYS/hEBl8TYcHoZwey85EU7Xim4B/L1zeq0ZvGZceG0fxQDJgWxl8xYxgMEuLYl8mZvCcRzEzCTYiUsCGaA+L5TNtUmVn3uTKKG+J9Y54jnAvAhiUd14PDmPZljNi0XiHJB7KIUJv95SO6mp+PVG1KMbtP0iCZ+G8GRLGc4inZtlZfCD2UwZSpgZP+JWte80zXS3p+WPEqPcvFp2y3MIsOYb2vKY4hWOMwe02wcy2Jx2KZeVTENoGMvibsCabzJ8rX1bLti0mOYhFiJ+kGcMp9ZV84txKajYwi2QAmVthvaJk2j+aAdhlPNNhNG96Z+vx/aDWSDmJmcG0BjcwdgPZeX7MHmE4t0lPYx2yjuW+YtybzVgY2zRv4rflq5tSaWha9peEXxFwIXxNt5bEA7BGtCJ+qbrCc3lpTt6QjmINzASkAs6fIJsLys7PWi1PAw9Z7RlJQQjw56R1IZSI3glRt230jSgQDmPkmcWl8diEgNNC3jI+P7TaJnsMAhHEI+Ay1p0nWXitFsdxvYykdt7nmVuIh2teA3H5XXNal+8JsJ7ynAOwxFG0G8C34EYMoFx2LAMx+IyWzGtL5hi3vCxMpmxi1fEJTN0X5GsqbadonrFv4os3XxEG4fvGIJH+2VGDJmBvDbsvDzDEMbs0rbaqH3+P7Qa7ymO3pLy/wXx8IgMpgGiT1vMw8maZ91P6flftE4UdqcS/Z1lBN7BYFA4jICLGVKBTPSBfFaGiLQiVDiNBz8Aieaac/hD5Grrb6sDcS9iYh5gTcwt6RfAMw1rXhqS8zbstHti0U5hh4ik3iG6Kfb4TwZrDepKY+AHstBDzOJedPgEpuVMFT2jTStapb1/K/aB8a/SE4lsS2JaCC00wtbtqj8NvpFgaM0qG8fzQdg4MAGybTEPpNJ/C+PVVNlIzdeped5mF5S5mmw0YZj023H0mzxWncv1gRnssNJAtutoOY/SWnTsCeK3vNOfwV+GobU2lbNQxZbs6S0EHivLQy02zMysB7BxAYGha8B2uDAbj8pr/AOMPp2dewdglKp0i1p3qesr1bi0viE4jNDDaBOIwAME6COpuLekXwbgRm00f8H4/tKtm0WNAMymu3MoUmvNtzO7G2DTDvLwUPMZ3QTiaprH/ALwQ547AJ1i4qAzRnwMPf4dSbUTDl4BLQCCW7KSEqTKdPbtPrDT3PF0nrPug9ZVoPT+nrHuQPgB7PSGaZ7p9Pymt/j9p57FzeES5iuYrRuwmHmMesVbmMLdiAXlTu9i7eZ3hNpqdlwRzNH/B+J22oxmofdUMXsUSh4vDKItEWWlvSbuY1WV33HsUjY3YhxNn4e/3gM0DZcfDrj+FP1TaCgMWmCT6QqQbTp2GaVCQRCGFkMSmF7WQMCDCNjshnBjYPOIOy8vAcTSP4yPX8mZqv47QrOIOxRYdlukCxY06QwnIlXmLiWvOOxF3C/Ze80X8L4ta+2laHzQIScRUJNoKVwLTS09vMU/4lJhCIMCVP+8tuP8A3la27HE6TcROYi9ID4LQC+6aHFb9vh+0j4R2IS1MCUEa4vxKtA8jIhHSUztdTaV7M1wJRH4SbebwgMfp8Oq/1P7x9P4ccx6NReYIO1TaI21wfeDI/JGar/UNOktLS03ZgOYCD2Xl5mPAfFG806QdOwxbIBmPzBNF/DPxfaD3e023lNipMTxPuh8JEpm/PEOaRA6TTCymKY15VICQ1AvEc3bsbEXmKyjpKVMNTcxOZpcagfD9pmLNOm5YpXdmEialRuuOogl+Jp7BR6QYPwE2F5Xa9W/vBUVqPuJUqEgwS9oM9p4mmbdSX8kZqv8AUPBAJ6ns6wQDN4ezrGOJUOIvF4Wj8xMwqL9m7pL37NF/C+Ku965hAsbCWs0okAyo1zErFcRdVzErbesTUCd7eapsQvBmYCQmDmdJTfwsJSW9zKP+qH1+H7TPjglB9piXb9pXPhT6R3uIOykxAtFHisZvK4ab19YaqiV695+qb9ojNeDs4bsS0BO0zQPhh+SM1R/5h4vEMXsbESDHZcWhwYY+YcYnWE5iG0v2cduj/g/DUNkY+0OXYyiu6k/tOtovha0zutG5EJufDLkGK5Ep1cys9+xTaM/YqnBl4cGUqmy80YvVJ+H7SP4hixOZT9jKzgoB7dg5iyiu4zu8qb8R1F7ngx1/pPYw6zbmPkGDsHasE0eKh+n5IzV/x3MQ9gzLzkRMTrB2POkPM6z1hgEWX7BL4ml/gj4a/wDCf6RTkyi5VLesVBn3jfpm7rKrXOILKB6xhfsvaFow8F5eLbdmWURM2xGJvGl8TSU9lMep+HX5qn6xYsBtC2J0mLQniad/WU8qZYnEqIBGhtDxORCIIeJx2rNJ57/kjNT/AKh4t4p9YPhEMcXEPEY5mey3aIZi3Zp/4S/CZWp93XYTdZVh6GW3Lv8AeOmPDKdKpUvbmMCuGGYl8y8LQNL+Hs6ymCDmKdv0hXctxKotaaan3lT6QD4aw/5j95q6IAVxB8F+xTaUaxHWLVlSpiF457bRlt23l4ucTT09q/kjNcNta/rBLmIYewkiKYOIY0ZjOnbxCexZaHNoo3MBEFlA+LU6Zao94QUJVp4pRq7FIihWcR+7puGXkTUEtc+sW9oYTFBJ7OsSmanE7u3PSEdYrEhrGMS1ppaOxPf4tVjUH6ysV7tbfAfgBtFqmGsTO8jNL9l43aLmU9PUaUqAWAfk9bS30/cQQC8DWl8y2O0QxzNmIVFpaJaEwwRZfs0VD9Z/b4zK1BagzCj0HzEGNx4mkK94LzUCmGHuY9NQj5+kXrL5ljaKQoEvDxKHlCx3W5+kGVPpBcXtNJpzu3NB8X2nRP8AEEV/DAcwcdptLxWl+xjibswHsvMwU6p/TF0b+sXRr1i0EHSBZb8owmqpd1V9jN/EGYBZoTi0AjdjtGbM3eG0ciw7T2L2LTd+BKGjAy2YB8mrSV1sZW09Sne3liVLNHq3PM7zEYjZ7zixgJ5hPYTELdIKNV+kp6Q2yYmnRekC/G6hhYytoGU3pwUqinKzPpPH6Tx+k2uf0zuqv9MFGr/TBQrek+71rcQaWrttB9nv6xdB6tBoqcGlpjpBSUdJsm2W/LmV6IqCxlTSuje0XiXz2XjtYxmm6eZp4YRBLW7BxKekqN0lPRIOcxUA4EA+WVlfQq2VwY2krDpO7qDoZZvSBW9J3FRv0waGqYv2d6mLoaQ6RaKLwJtlvlETZO7HpO7HpO7HpNk2TbNs2y0tLS350iFJU0ymNpnEO8ciE2E3XhOJuiDE257ApPSLpajdIugH6jE06LwIFlvnWm2bBO7HpO7E2zbLS385tNsKCNQQ9J9zp+k+4059xpek+6U/SfdafpBp6f8ATBTUdJtlv7WtLS0tLf8A2fP/xAAuEAEAAgICAQMEAgICAgMBAAABABEhMUFRYRBxgSAwQJFQoWCxwdHh8HCA8ZD/2gAIAQEAAT8h/wD5HPo//Rh/+jb/ACNykpKQH8Q/yCwSKI2eiKlq94whX9pgWMYAvMUrJAP8M/x9M0R+JeW1BPJOUx0sYWnUCYgKiz0lMNtQElkv+Ff4xYsABBuY09pRJVM5O8XxDtj38xtmOfEStztfeYu4q8ywW+JWEllrGBj2A6Qt/CP8W0n9QE09XrggQI3PMNHwfE58COg37cRDRpdzO5c3KqEjnZDLRiUKU5irjG9HeZXdRnZDRGz+CY/xVEtJ8uksJl29xoa1uLIswnW+UnaRQz0vcfYadTYC4uGx7lZsm7MrSTWhQz1D+GU3LEUm87aeoCRsf4Fj/E0Sy/iJyMsuWskFY+RHu+V+Jjnh4lKbhyxuNpq2UNObZZbVFVqGABqcHNTTVssxSE6BHOLuGwYgRM9uorP4F/iGOHz+qbtuHbAMExyjmrkge29MMvw3BzhZsDZgdRT52j4nOZgHkhVFTqdTa5e178ysTbRKaYATJoOO5ZP4jXfG/wAAx/iKw2xFoW1lZmvTM24TRcMFHKVGG8wFcR7BUtct0O4W5kUjMiFEpc0iQWrmTcAFsmEeCagBDMoNY5ga9Gpo1uKJD/B2UVsYED5TcbujcDtVC+HIy2ULxL0tUVKjjyMFa9MAOnREZF8mY3GLJQSXbtbOJlA+uIqxqa0t2YvYvp9XPSajBMrl05n66fj/AAe4cuosRCU6ZfQxNx3LBjFwKq3onVbtUskBBqjK4NFa29TAMS/A8wIa/wBwA+EcwLkIqUTMHMp7mG4SalkVpTCN/ZlFDZvc/Mf4tXrEoH5lKPEuMcS/OXUvn2JiISyDLvgwerO8xGz/ACjiZufdllnBLH9KOVXhHugIqfKL+9wK/UalrxqZBpG5RzEtL9yJE4SEPR/LP8ZUq4JjbcoixOk7l4IO5/5gMDWI/QSaSeE5f5YmqvFxbfIqHUMGpToQ9BzLwGOGFpcYmwqVCGTEKgjYDUuyu8zUbuyMGc9e3+Dind7gfLUNPMqtYWYAyl25ra9xAHMcmDTMgS5jhq4KW9/19Aj5FkVQRA7S5GoCk7iNQqI5jRLe4uarr+MLUPKNPS8zMVtRmUSoE1LQ3URhmV9p2lvMZSfM0dSLYfMvmZ53MQaOValA8i4q/pLoU6MueGZU3QSjDVf7l+vepienEol+5V92VxBeJzHrcrDzlVyk7d/wDH7VbL7IwsbCrKMRmE22ES8iwuJuvIhEqJHMfP8AuZhapUV3BfLBQwXYsi03pK0vIMfLBVLVKhqrumUPA39qowR3KqMmzimpgvcK/jA68VLtuaubtgivuNsXyiJ/+EC0qgEuAFWFXbZT5LGD53oCaBltkN6T+5yXfv8AgWP2uCTBnCQ0iBl/qp8ixn9CE9BBae8/pYlkMoaH9lP679q0svJZNQTwhGN0Qc9dX6YElMi5ieTnMDFcyiIlkIPGyQyM9zPtPDLJFPESQsG5W7ZYPlQlqrhDZZ4fEbfYI/RL5f4F+2V//pcrPcsJWUEOW4kdiIA6hdcsRMKv0tVDu4kDzEAOCWLcOJWYLkxX7qf1H7VMdwG0KOomnx5jUuStTR4DqIZ3m5QGEJ3ZKlCzD7wQLYM2p4hcYvcFHFmTSV2CiBkMHtUw0zNMFLfHvYD4rfeZIYZEq4v+AfuImxmeU11LdVOLEVDBEjm6jIAZs+0t0o1/ISyF5lRU8ycvpdVzle5Dra5gv3H2ic0kvQYZgXGo8OkAeM3CsyqGmANoGjfEXoHGUoJCMZVdTXwmYZqUNAadCEHsjlTMOxzCw5Ou5Tnu92WkNYJhulqH55BE+2P3ZZU5nSyvHc1N9nYxMTLN3tFUWr0wZ1EFjcA6tkRyxTq/Qf2v27gGSIAK6grgYuVK5RoLpAu4QoBq6iznDCOxjokkxo5YktazEI/MRK/MusRyXlzOBMFF8k2jusw1NlK/8fwFAi1mLH7XmZx1DXoMfO5aHRDMPEm3lsVLbj49K89oYw7m3iGITazRGbzjLeZaqEp8ErLmr5/czC5yQclfJqM0oqVUGCVaOd4V/bL3kLmb5ML1KTld5gsWu43TKC9KxVGsswUHsl/EyEBE+IOlCqmKvfEFH8BcV/coJ2RnfpGVKZy2iy0zwJjMkCyyVvZNaslL4lHNRXCStbJ1sqApklDXkv7uMHx6BVsMwlr1NadZxLsnlrcSlxsuPbKXk8ly+vEaDzKWuIdVw6Gp2OFVSruBjdUTyLl/w6pD5iFhccEwl6sGsTMpzUSyVWZhdsxfEFx8RA3zL2qYBAeFst/OYC4gAUfwr/Gbb9YkavUqldIcUvTKuZE10agnlAA1Kl+0AFlHEGwW/wAO/wAfc+Jqz0oUGoZQaP4l/wAdY/48/wCPP+OPo/46x/wy5SJ8J/8ArQbQlPuMf8JoQz+gmpv7Qohm+4pZUwpZyOt5i+jOr+kzRH2n+PuwQJ8roiEoXLeYCf8AGzejXiUmB74mbB/CqIEJQQLNpbMmAy2KBYRJHCo2xKWmp+xmWsaS8qtREUj/ALhZSk3/ACwbAeI8rO0oTLXdymCuoDQxKxJ4wTAF1BNJylq5wDKbT0zEO++IKEn3nCUEu644OCYBmEZEZnaPyJt4CBSOR4mIuoR/3g3avumY/wCTCv8ASWY1D1mH7D/F1JBL4oTWF5hVWmAk1UKZ8Ua8yW4Z8y2uog1UvVFPehuDCsRs5T4YXDKb/j2Y+2gTBF+Ax63BmJzcQlZ7RoGWylqkGouMzXEsHbE/8SOKVojtG5QM3qZZf8j2B6JamDKojcDdX2mxBfEMvkXCtgezFH/cKLKhiZTnjiXxA7llP1lDGuBN/wBmsh64P2uibzKiuYYDcdFcxu/EqmY9Qg7r8RVolO2YqMIc9Rv/ALRTBEsaHUCYxMBef5Bg/iI7ckIeBFBVxMwmnVRV1FQpVe5ZxdpmWRKg6RTV6HjZllVOJiOfue+lh4QFlcwevyIdf3OvsWldBHWTWeWA8TCZZhOPRRpF4D9xWoxLKtG13Ls4COqxMISkhHoG5kXWYVx/H7VjSJ3jqU8eZW7Za6mEkIGYwvhh1bJTVUtN4yhNtRI8Q29QJhvmGSlspcwbfEbMczJQ01H1LTWo/KtIhWH6iIgODEDLC06hNQZcu0qX3HESx5OZh3QrDJXMWCj3jdIHtgLOYZjcaqKvrz/DlQcjEqvvb5mrgYQK09xTDepuQpBvrGJrla1LpQbgCwaqB+SVAtmIhuUrW4q5SAs+ksjTVw3FeZSXBOIGKxDtbz9Tw6S3yQAg3OJYz6KYLY8ZbKGFuUI+8VtTLsXUL6PaZNG9VDCoYhxJU2oQPmXQgrr+NAy0EvB/4EHnplxb+AxQL5iDcnMy4ZBMjQRd5hmNo2PEQC/b0V2htKhWsQWqMQ8VZmLeMkNU6iGgzWoc0z3JgxWYBcBzyfEQCafpwT7y5fMrnBHBBUl3ghbONduC0h2vUTpvOWUqEKZZhG0iwAiAZzUatHo7DXUCEIqcxTJdM86fj3+Luef9ZzJdRblosqggnhmDyIa0xUvmr2sS5YvMPA3LStxdSGFxrZzAujUQ02lX2wkfRkNQdCooViiXrGYo8yjjO4+RVOJZeO7jiXI+lffUSj2pwSlUEFT+9xG7QhdULLd4mJdVK1tLIPyg+X06nMIwCqsy20MS4Sh6QDJmieZ53E1v6n7xNqBAt0IoK+WOqLwShvqVyjs0ykBbQ/hHRcYTSFszicag3KoxDFywNmrzUtjoIQWxQhjk0DcwE6xXcohvE8zUCXUJLx9Stkcq+IDUhXHZKxUSr04ZdABgygU3VGJWplVM5WP7fQ4TxM27miWrM7Yq0jZuNaFQObzGNOpSrzx6bESyHUwzPBcux8TJDsiy+oHLqYwimZcsFoPwq5WmEsg274iTfXXEzqoymLJuIwuA5jiPRxWJ4ChrUJVccmpZxAdS8fB94neRmV5mDWCZTmZJTGCKwHzEstFopgh+l/tBWFajgaiFFZhhbvEfhULg+dw0pSkUDRU+ZfuhLOPLuH1WMy7uIVQ2bGV/Tk+jww5iM0VUxkYIV1OkCpgF5iwhgkziFsl+tXnpmkcxjS7MrsuMtXLw2/eWBstwvZg19Ix+0qEO2EbHlqWBFmg1Bgdt6j0w98TTbqncehKvFRLe7JqGHCdwMa1KSTAjJukXjji7gFFG/um3DqJiy1DERxMS4ioWxyz8SocRBv2TqkQzAV/R8EYmGVPMTE44SyqCEBXNGsHE2uJip6RLxUE5IheabmPF/oEfV15cQAi1FT4INPSZmY3A2fmZXuOvJLKgG66le1RYtnSPsYv/AKTCPA1DSGwh8EZKgkuZ1epesi6NoSh9T9kLuCJfeukaSMJnuU8L2o8xfjC5hOm4iVFbPePWvEEmuxnAc9EQQoGWX9JGW+F9u54QqJSHT7hBWLP9RJKFVCcRiXM43iZb/UOJaqBGwgXa8DZuMoaD6MwR+biLd7RyCXEuUq3tC+PTxB1nmZG7ahyV1+0tTo+i5fCM2QFlKZbUtxjTJtgRBw8Sw2wvQcygEvaA2vPU3mPmdsvm4guV6gLCq1A8M3M/ErxAGy4VvGIaM/qe8r9b9gMe+pha2s+YUbFUq/sUnDDjgxGAYdTXKjLLFcFl6hqY5ohqBY1zKcPAgaLDmUArog8A5nOw1UvdERLtU3DJK/vMzyX27Sh0EbphWBSVMKHJEWSkbSDmCsjPm7RHS3En2/SFtgal0XXcwa3ncTPDHIF/pDehQfonCtxzGt6H0exdkSVUe5p4/wBkUgLH9JU05My58pglzD3mxWU0qG0mLedRFD9QNZzLN5iLLzbTDY5Xj0oxBT/tBeg0Sq+p+swq4JhCxDGrNSyoBnqKhJTLM3ZLJDaDocz/ALs0U1VPE8iVBykFpY5uC9ZbPELS8T5ldu3eFMXEcw3yit6MzosdxQHW9TBDmE8e9PJBB+ftWKhYEIDiayhqlTaPmUBrMuqQDylBzLHZ6ngzuCARx6scliD2JbbY8ctb3Eavb0TtBajNHJLF5rMPv/p3UyW+GW156ZdqscRZsQnMzYlDj0QqYzOVxAJzCWjsVniXZfG9T5YbjF8MEN1tjTBx+U+oY/Uzncw5XseYhnTtF5gcw9o1e18MxDUcpQOsZ8x+BTO8UKwQAlKZefEq3dRHlYhZ/h1PJkwArk1KtI+8rS5oxMCrXCpQLGm2ZjutIgMFOO4ey5+1WjAyab8S3OJdrCOIg03FWOIGPbAPt6Qo9GyHuU5zH6QJzfeYzzG5bOVtZRg/cuN7whc8xMagpmYKfvEuoPFkm8ZZ+1vpd7OGA1MRcvmDdpuU84CM5h5oKrDgyxdEbkmBXuFEYgP2lsAPcY8kRXrcJEjiN5MTByynfdJfgmbP4msR4JShnlcxE5FrXtDVBVRxG8hZfUu3po9pl4vzuOlZ2nicgGLqDK1L8EyQi0SycdQpYB1zEMF5q4PtGVB0OIyg0VKkXeoCpgX7CXBcmH7P7df6mSCKo1AuEzjP4mIEFXuUq7mcwpVTJyQjIcEa8e8qIUItlr7iAjPMTcYYpENpbBthSOVx0fgwUHR9VNQ8pjSGAvRsHx4iWfCKSNyyQcJvkT9RCmgphbkuoCWtXA1E0gNWYtW8QF/uhIP+i+8BdywVosIAmz/qUm6am49wSrae5CLXiOMymlU17keb1PEM5K48e6IgRwNRaBLRiiytRXrTkhWvyl85ym7maf8A0eZRBexlp3bywH7T3hl6VojBydwqyr+ykg1MtsbntMoqRFAKhjwYYMssWXZYCCPdbgVUQUuCpwu4NOeVQwPcgm+ZfflKosNBuLGobBmDb2Gatau5Uern2GgngxTcIn+4+5h5mg/36OZY3eAmCRrXmZDBiVzk/W5n9zBK+oHEbLFNhLFZzF2KbmDB9L9llRbCCGlkme3jEQieZtFtyrgz1amxu4WKpZ7Zy04vqWYt5y5x0WoXWRl+RSuJpZ4uYhPKEQFz7Qm2hiOs19RSF9nnUoXkg1C3/qFSO5wfYqPv/UveeXiZPvqZjKoFqnQJT4QfhLmiACsDjUVQGdS5YDPxFKyMfoiIrmB341DiaUJu3cQqBMxGm50AB7H2aS54Ym2JeKr/AKiK0zXmZx7ZjVO9ErYYuO5i8IbvC40r6itf6grKzGVXicQohfAf+sTBg++zUHPPtEDAZ2mxbKqbhz1MAjTnqXqKdTEQjLpuMol4DxLtSCZo3FFw3ZOiGjqEJA6ThzZfcp4tTHROA3xKK5blYtC5ZOVxMvO7/c80fYIIclTgpQicHEKTQjxWUWjODDpxYnlEKsXFqoTdxBQqyKT3JXBy+qlDjtlxMDOu41L1uX3J1CiKh4sRYDZie032q42S+AVlEmUOIIZ9y0r9xRc3E467nICMIp4mLEyat1x9t+pWdGOvdV95auTqJNJCB4mQoqVByrUwCqjHguBQ865aqMoNK5dVi7YoNHNQV6+HmNguVMyqub43DuRl1OGHgnZXcYl0vmMxFvC+JaLpPaGPspi31gjPUTG5lGpqAU5JmciLWCO41LoYDbf3YgucqJ6yVdKnEpUfdLYZHMq9FMn+yNqWtSslbiXtZqEyVOaqGsSd/dM/vllbERBcpL+0CqDrIKO3+k7B7wwUY+4/VQop74+IBH0wWEMqmrYAvpDTLLqJSIeeal3HwBxNKEXslDNd2I+g+hTAmCzzZfCaIvYBs9pcAUqUpW65e5jTVsjzdd3FXckV/L7SWCHCJVQuCqGPEWmuIM4vxLfDJ5hOOyXWHxLJ1Acy7+nctVUWNaIrFS7IiQ3DR6cTMQ3euIQzQVNexcCGXwT5FfgL/I8mEK9ApmCr/wDiNqXUs9kvnDUxwjw+yUhpPmWmgmfebMXOO1DdAZlLxcCW7B8hLOKuITIl3bHV0pg/3HdKk7iFZvLcSjHB7oluUO2ZisPfErdKrEAI8faGe5IOGZOhpiohl1NVkAzQOK5mYCmU2Vv3FvUBcMZLueYzEygHEKPJi/lUGncKWwjBUXjwpZYn+wX8UoUwf3AWDfMP79M8hq5lQaRQWJdPEqijniMpqoXfXc4K/wB0qruME0xQx6nMXejYPEoSUs5rMLF9PaDJKMUci5PmUWptGuW1h/V9woZem40F2YhCnDnVzOq/uLw75MytVCCy6ms6yqXCjSEpVLUKqoJjMmBQg3FDlmPYahIQ9DR3PH8G/X2XuAAPcg8pw2fMQ8QXJCVZzcIVRGVeb5l+7uk3cLnEpliuu/UrnZp1Mkr25JSHzTAGOmORlgVmsHEu8RwNQlKDbuXveaWLj91pKSzqHxTx3HmKvMKQvENCE0d8MLAFzbU51NE1mMRXGYOASQrGZmvm49+IbO4VPAncAAAoNfxh1smYBrwoqC6vNlSweEy5mqme/uCMo3fEzG51GH+ptQhmpbriLzTEbt+8Te6grgmmq2/Yj1qVe3cwctGa7Jb+K3jqXKMBRNrfb8DDNcBD0XF1hUT8xumoL9sh2nvtiELVLODEopealZ7iXjMRM410ng/jQ5wxcVjhlUq3hlkUliDqe3RZCXlskcYhxbiqr4R16gxUzgbI1zTuVhtYRPGDwMoxOduYH/EhBgvLAADR+DxTkh74TxF3uECgrF2gmIvGfcyifEKORmWuHUY8fyCAPZ6j/SYFP9xtETkiaxBBXWpX+6imuHUrFeNkQFmXtMpJXDRTmCwVrmJ1s8CIo7dQ6+Xb+JVEPMUu56DtfuwnG+Jf8ovzOGIxxwwmIpKKKJA163K2zGAtkPwGkydxsoZisNSsQds3AhmVDagwPtoTdZf4f8fz1E+Tgw4VQ58IzahMzlcGHUqcPulQwmYUpAzDUaYOZaZjrnDzuY98v8DfvKhs6ll+qOZIXBhixGfPprFnGWXxc8xEZIl7GKOh1Kwa/wADV+j98iiZ16C6Mv0lesLyQxWs1s48j+WR2HzNl++VevN7t/MNIP22P+D6LY/WfrKaSDtzFMQ8TG7X5hV2XOAuMahiEYBombKfMpfhMIyrkvtP+DYct4JmbXRqCV7S7eJCPVLQGWssCqHYlyVADIXHeyXtkmMLzCHc6uf3/h/JcWym5zTKgvEcVcstEPEOciJaqhaA5lYgz1Zt2E1qFogicxI9VTn7L/g3yCOYlwnzO4qYMPrmYj9Ec4TicJzLdQuBaybOyuZXKEEqbqZ3sNf4atjolifMNkEbMdRFNJWxcbEzIxNUrxBuSlqZnjukvUAhg+EzPio/zGttTYftnizQQ2Q+fwb74mSgpizh9oi1WLKW58y4O8uF5nCzWyzBzBeJZ4OoJN8oQBqLZfYf47mXoRVMEVyJfuDZe9wGmVeT75mJq8ywE/e86MpbK8Jmt1DpqrqXphwanXgeJ8mDkSk0SkWQbzPv6IOKo6zFJCUbHn8mvy8RhLU/5c2rlEZvG8Xa9x06y8tRlR7593N44uU84nLMJaBBUognS8+hZETgxBsR2inHyRBdCAyIdJ3KmH4kuwCHwFTVAJc1aEgJ0+YsBa6m7U9t/kZfniRpa9JS73MQE4jG4qBLF1xK+J5Hpt2RKN4PX3LylEaMxd4jBVwlXv0niJdcmYBVEIxuC0OGOGJCrRQnCAA3UcHuJFY2fggFWiYrNlWxi0rB5luUtWZgVuNDfz1MXdzLsv8A0ywP4venSORa3OqKZIW1Cq2AzDsMS1nU7R7QcMpShMkZqCkqDe77RLFcDMIR5s2WD16JxucGkrGamQeYm1tKMiEsWKJWJeZmqmwn73Lj8BQLZYnHiZMxYoJtQRh+JxXOIuIGUAo5iU6qZAtiWS4MM04/DOVgMxS64Iosy8UE9micYimBUBqYAJaqvccUAMIM2mPGZgbl0V3MW2QAvzfZXhlPdCIfSEAQSjU5EqWcIv8AoRoRnBbB2LjFTKGOYNBORn+iMJsR0MQJnEVfH8ATkdxavmY5bm+ZaGCWQs8ZRmMTBxicpK0r7IRUIDlxK6Om/wALIQO3cbepQjkFWQMYuWOhAOdQ9C1ww8o6lVrhcBiV9Tm4t92fZDyGK8xcsyw2wdUCDMAtziIy8zLqWGleYa53uxEK4ZdrzkhsUMwS5JQW5ghfErr74GeZtcpGJmTG0OJkfHUDGVmV4l7Kbih6lPiXaW4iZ9cT41gEPwAR4I73LFqz0WkPb0ha95aqMLwjQ/aWFzA4VEOqVZUIugpJOqTMDqNenmLvzg/Y9wTQIIziaSMimjMGAXFZxiNgDEfaJYpHq5fH6lCDO9gCLjvxh/aDfsj6I4mj3++6x7QlmTLUMlzLzLx6AcSxqN7JWHhNyr/1mVAznmCrckQl6hLm62/ArA5i1jMLZWW0ShGiYUyjohMFiqvEaGA5uZWMC0gWM7DuCj9Erh9KL0/Xot4+R9h6dy4b59TiYmTAyEpm7l6A2x6Eq5emVtCud9w6NSpa4JrSck5WmMm0MIZfeVr4heghyRF7miBMM2ibNXL/AJRCxueAOJeTCosNmmR1PFiKJzKcduLgHzmPzH31lXBKwcQa36VKr36aaDjmUrfU2WmJbTWJyDE7wa+SU5MQZZ+ogHpgLQmOCyoMWTDLSxxPgp+4/Xe6d3vLILsmQhKxqGGuYMFKHMGQ9lzADzUxx3whoSbjVDmcb0EbgRhO0RuH95057ppSoxaQlviFCPoBhlpZjuaQ9FGPCxdfhqUdCNNShtq4puU/5KWJZ92849DKWrU2jylVb9xdwXspUo5Iu1gXZxxCgB6IgKarTLJuPDLAoYa8zdblSWgyjZjxjMAohbzRZK5dytvuyeZh9eibh2fKEzhiApYR3FUUHM2bjVvaWdsQQICHcq30ESy1iJSaTYV36G/btTmcx+7USLX6uKy5czxCuYSrcS9+0oH0EfwTIOJi4LmDi54Ym1OyK28a+46mKvxLvMxSruqQ89CQ4rzEPaVzqPbrl/0gNCeefS4oBOM4H6lj1ywN2sk0xi3blENLxBf3E2ZcfH68RPbU5ruOKOGDPsj+zS9QW4BlvUYt3HkMVOsWGBauKs8Tv3LOQeqjvkomJmML0kzpLFe/3dT2Zj751HvHMNktuoJdwoyfRHinUdt9BkOCNm5gizpqVFXMBdOIkU+Yn3MPdTNzZIrg1BZy7U4cCFycLCTXFAIKD6aR5VMSajzMlI/0IsNy+TK/CGA7nyKfA/r8GFS+cR4GB5lWDGYLmG2V5hwwbWItsokOJcDvMUcBxEMMpbgq+oDeV41LXXMa0RMWWpfJ3902Ip+8di4Ze3oM8wtzEw5mJeYsK0+q1XxItmtBQCZFl83shrXEqYgW7Fa+Puf3kCvjGNLGhhLpmQFgR5epaq3MZmeH6q/OSsMyk6OUp1mlsAg8yg48S7emO/n+o3PMxMh7JywXJSBuU9aKiXF0TCMqMw0hbcOP3BYFq5Rbe5fWNRKG78RTEM5zQcBdQOb7otzH5ywn3Qyg3dQ0qJWZTcC8SwOoksHp3FCefmZamYc+0FBaRQQV6asYaol76P3Dfupj6Tj3Q38F5lmC3uUDn2S/2cnz9RBnLmDdEvvKYmZV7soOM1iCxTczzzxGf2n1at8RZTlNybwj/tLpI2hyQM84aQwzC81LwZSoArUFNXiYYEPAimrqBzMsiFHEZWxpqpW6fdqXiGoHBcQOqckO8nWR2XExUxmQDzE8TBYSArp4muNCvEHKK6KjucC0ME2i/T900HlmKioYhn1FlXOVRTpipqGqgcqq79pi/wCcPoZqGkXftPSVfuVPPtPYkCkGVIBwLGWj1B/s+pU/nL/2nOZCF8szM5lkNNsvGsomGom/iIe8tcUY/wDQgXmLIbFiUFFSSg5vo7JVsdfepT3BWiJBFdVqZNThR3YzF0lRBftHUTRuVXGoylUu/EqB/qX7sGlMEJTHfcSgOc4iHt/cJXPhDM3cWBwvEocTohk+yYN+o1pxxBQZVg4hwVnBHMj7zGEeNy5JXuOo7Uo8AqcaJdhwwntCZmNaTMJQfq/382SlkqWggsL6XDBzUyoWP6I+kZq4nJCjUAxMm4HgVUzdkpE2g0sH/MpjH3rLsjWwWaIFZY1BtcVpUlXZBf1OiD6GrzEyDRHUkID2LKqrTDeHpIWxEAM2vb92hvS4MRwGFoSU9MJWvmaXRc3j5lNjUrZfLCuE9owVYLQjWEEAueYM5pUCy2Mqi2rv/UUDAy+AfU6i3S2ouJdCSuNEoLlxoXMhHX02GJSJNIXOX/SPZyx+fQewyEs1km/v24cxXmElLpbEX7Hcwf1NMMwBvMPLuFxAa2QNNa21ByhNt6gUNssEbYAcwomIFOOY5a4lB0Pu2mNNMG4cTEWtckSQagkAqdsYrnmMORHrLCyFyljUW8KmxTM1UOGzPUpWkpk2S1s1fWX6/wCnP7sHMwYh4y3SQUMCVNDphSOnKY6DmVRgRC1svJTzDBEEGD+kcqo+PsH1ky5nGf8AmIdXcAz8JmDG/wARKnV1HZthBtgfZ3MWptgAVIJWC/ESwAA3MIAJTR97uOsQVTqCL0GKqtudDMbYLJaim+I1JfxB4H4iFzUdlF8xTiL5mJ5NyrYldArHKo2BERMozliCeVew+m1ivoW0YOZTTDVyb3LoPRU3hPKDC4bKNSlVEBzmE2gDKXpUsh95ouD7B9i8viIOMkbAC+Ql4vRAxmK8RvfiAY6qC6ZXPeqXql4uyqhQbjsgp5i0AXmXQ1MgYvM1g+/aoYcksIbTUkbIxcnBREzepjOUY7EEA7SoTklzhHQJhXuVtLma7+4vKiwihxNxyz4JoGFfYStTJHk9LUPMwWLHZjTWKhVUbmWNTMClwvuXqITqzzLMfXpJyOIg230v3K477lvSuoq2Z3EcBBWLiaFxcFEyzbL6q+YVub4mDJnDZKVbRwdxxcA5ii6TiWiU7StH4FjR0RKUyRZK7CZRl/UuWPeYwcZiBZhlXDDtm7NVOaQFsE2KMTIsx91zF8qOSrLUJcm99jCByQXmU5RVCoVLZlBlmWMh6ENIrcxS9sLyqiPMOlcvywPqojpxMIZzHUVTs+l+6utEpvf0RwIsgn2YjFVRGlYo3Ltl4ZjEWWMujDAgMvRmVA0NQAKCj8JGllp1MsCo6JmVx6aJ2KuDgyx0Y+ZqEsRFMOpQDiV84EbPOPjFsA2f6/ZtFZmkeYSMyPMAEzJWoLbRxFxc5GYNEtW5tGYuJ40941akYzZlE95ueyc9z9R+8d09xOg8ib4PcggGeOpgjRmcCkY6IVlgijPxGkRLHiAvlV1E7nCSnQx3LmXcao31M2sDMAuM4n/ZT5NzDma56WTDgdwjt39qpQ3oDT6ZMY1LgZYY5jjdztDaeIuuWIh2h8oJB5omMl4wQBllt+pV9S/ggdEt/KznwtTu53G5kiWMMUFZqLseI7kCqrQPTiAdmVmE7ZsMvueaHCK9XNBK2mdMC/dgKcIHO1fMWWYuHGU/SHJNU4nFKVqLRMzGI1qczohgPpfSv43TPuYl20PeVc036hv/ADmEwctYtZZ8y/q5frIq2IuWSyXWpaIdJjbGoBw9LHHMFN5lUQSxKJxFxmITE3nxD8P1Ppf82fYfQu/M5m42MHR1MEX5Rt16MLgGAnNRr7QdCFnFqY5XNuJZ4EpzeoHIb+t/wUdfnJY2V+kwds5yEAyigDmYjQFlzEWczJHU5mDuJbGnMldzJ+k+w/4NspyTSI9mIqcPY98R49PDA81y4yGuYzWIyd4hm5girhTMcQRXlWC9u/qfV/wu5ol+ItaD2xGzrNu/qGmH5ly7+Sctfaf79f8A4QbGgzw//L9MqY7J/wDrT/8AYiW/2R3P3z40Gu/SMxPj/Erc/YNx374yxumeSc79sy8mJlWJ1VNssoqxcazCy87JnuEdQYYVLA5WQA3mzAGN/IVKlMx2RHf75VA1paMfb+QYVBCVqHFDLMI99uoRQatLcU2zhfR73CHbY95nYPJQSM7uGKPhHYfiPg//ADNNrseYqa8wt3EbjnFGD/8AT+GoLQEao3/qVRjHcZ8ykfruCF0A73MlBTFOJWku7l9KPE0LRshhF731Aopxnpwst5hws/1n/Y9NUPjn8ivSYVpLxD3ULLxztDp+8Sxd04fczNk7I4VRvljJAHRFeF20bbyxX211fMLdUdyslN/2wpVjF3czjOIuI1zBiDJa4zl1NOwYLtr3PwnCZ4JwfNJmSx27ubchAmP7leCu0Qmv+Cd779xMKU77melpf9wOj+oxKLFXO1n9ym8TfbOJBHxTuBWaPEoJPJr8SogI1vykTL16HELutXNye8Nn0p6iw4PEwZr+RDK7OkEAjZ9zySMdqQepmaMGRQHLmMCTtNhrqNeKGtxWeY6IWBxvpP04arMUi0PvExUKq5mErHcFIXXiWerzCHDRFzvU8q0Oooitw/A7AyGdn+iN5DiNCynpiODriPjvmAYrEyZNzQynIG9sthc7zDYEIEUi5kllyt1IYLCuprBV+iZLA83Om3vK7N/pMJZr8Kt95sBsfJgHWY8HjNX4ahKjlzL2Hjn4lBTBqbHXZLawTm5YA+ZEb5NnJ9v3JiWQYVdzJFmUJZglgQVmoLumtSiv2iPHP9SmWp1cxpbx1KvdLmUQEJlMINsxqVIbjmS0dmyYda8Rqnv9/hYiBfL2mg+Y6rizLDqIUGfUTQS5UKBjmCLHkqLIwf1LS6+IwSyuCHAXOQmUfmsAN0xsIktgLlbJDgeP1AQxbO9I1HgxPv4zCDr/AOxlIQAcoIV7dzE1jxK5cuO4MbawS2PSFGF0jUHepu4Q0czJfWg/tPDK+yy5zcu8pxGzU4LLJxmYMFVmb8wKGUOev9pWhiCv+8RM/PiM8Hxuf+UKFmvHmV43a6l3TdMPiodRk0sZXjM0nEblXT7+v944Lz3DDsRJNkOOTpqXS83HeczceGFYeoa08eEAQYTTg0yiUvMb63eMQmNcExg9xFwqHURswxAVRwiqxisjL9Fm4TidcR0r97LF8Isa9jqZRuABMypyZjxK5zE6YMkbk3zLYpmLBLiGCTRRV/bc3VWKqNwDtLCN4vaIlvdySwJY/YWI3WJbYt5uKvlDk7a+JQ4IyyN5JUXr6lKaNNWTHVotmIt5hF15iu5bvaX0K6ZvMbYLmxxiVDcXqNRpjErLrNfedQbe1iWLnnEM6iPCLItE3El1AtalCXqDtHKHFLsfYyw3YM3Ng5qDWgkKryaGcjEtCigL7oKYLuKxPELmEc38EYXNrUQrTqP3C1r7R4xWFw+R1AeWH5xhfmS8wy1HUxZiJCjz/qBTSIPwY5RrOSU7KM3CUVQ5qIoswYNLKmVW64mpPR19grnOP3MOBCOQdTbjXJGgOuSDQ4dwLptw9QOg+EwY5MYYWP3N7jMpTLj+JSABzczTQYThMutm0Sdr3A3JZmaAGL95ht3qYe9ib3t58w/2hAdNOGW2cTE0aNzYA8bjDL0MaxZ1cAgpH71IZP0RSNbkjGz5RLqV2MzCe2DBKu4AMg6g82A0x22hfU13Bi51HClmo5z9p7UJf/8AexYW6Qtri9QjqGJai548QyLfKYlVYlXJdZXmDKFuyKuTHiAqbyiSnsiQBcxGx/UFPSiaph3ESaIha5nXUpWwZ+PrWDqBTu1LLzCqdxS3XEULMTCcrKA0Gr9Cgz8OoAWQ694X+CVhMNEzZprUbvTc2q7lBYTgriDzO+uYZD7u6bEd6gLh74d3kQL2xiIpxlicJuot1FVRcpS3ODjupdYyftmOochl06+W51vjUWHggEBp+ohQnc8SItOHcGE1A1FiGqZA47imOxzOPD7N+PCNDnB1Fj1LWUVAnbGo4ELfFVOy5dE4YtCYKufoyxZ4uGPCIArF5j1FbNRqrs4SkLfCTk1Y6mjh1La46hgkMwZtaYu50+u0K9VOc6Gn/iV8iGOq7juimrS0nHQZ5Rs5M4mDo1w7mDQHcLS8Jl8rmOAjxRDsx/8ASNkPdHZMDmCFfiGLxmfgUqf0Pu/EltGAIfaUI86YQ8V6mHC9o5VfzENZgb1MoGIvVmVSVDFdMNRyioriIthncT9Y7joxuCRxkvv6S/RisKbxmLY+IkCZ4fDB/YfH2Koy8dROywZupZOuviA80UrZqXzelITVRrEuAiZKL0JkPthlewgZT4lOSo0tGLfeERtKowqNlHEqZrRvuU7+COWtoyqqZ2NQqerT6wC2qYWA2H9Sz6Z7ngmmYW4ji2V8jwILr0p9o72dg1UL6KognYe5Xwk0zeGSFNHqBpwMEfzlxZO+Yg3nshog5l+9zP6/3VKYe4Byx1K2u1zFwRE5j1z0h0nhULuojzKKE6+JgHUVrj4lluoH+dilVK/c0tp2xA4a3h1EyRYqfwnEfvMckyzrl0laUuHQOYkJ739bgG2fqLMkle5/oTDdAGu26IrRLblAaJpjeURBUBmpjLMT0qmKDYZe5shLZcLEMXHCWukXmPKA1tl6vscwRabrKBVzaVdBriGveapQ7WLYhT6zftwrHh2lC4LPiIS6OOY3FniUeVz4nnTgMW7alaH2iJYDDOQaYFodHUqD7lFoUSUvxdtywJi5asSlyvUyBxP6v3RydYNcRqKtxF1iiWDApEbnWfTG+lygzHm448SyqPgwfBDKSwh+RM4/EY5jfmNUZDUKC6iLS25+lXuFowHt8MspkYGNzcL9QeyBL+WqNkLdssjJNdQH6DTKYxekW26UF3FNlZOY3OeMEEY7xmCYlmyaOqjYbblDhKbLiVmYmAhqIRl69pRWXK0RlAmEwF/tKN7NXibCNkLvD9drDqLQl8wQNcJOzcUMguRAtz+ZbFLl0tRQLDvqI4zKvfXeriMLbiYu9qkGtKQ+clSwvh4lm5EY5i4l7cWVP6X3XK3pBNngx2Zrk8zlqgosyc9y1xxGbtsT3p6MpW6RrhmEA+EQgcsDA1qRyzAWEucb+9yWxiO49ooMeYpplBdIWsrplhyONkdiskvIpY+fq4kGAcudRBr2gzWav5irk9JmMUsxVo/MyDl5m3HtLBFiUVNwYPM6uoNV1qFYblq5VbyXqJxSpiUZgF7riZTxgRHmIC3o4Taf1Lpe1XxG67xPra/xB5aGKjeC3N8SkKozfM/qkeJUmO0yMqlbz+YlVTWINrriJL3L4Or/AFGpDrDRjXZAW7yRbCyf3Nor/qZgBWyXAaIa9r7otE7iEK/HMopTP9QNMu5vy2NPf0SiCmCI0qNNBNJUOoOIdzHOaYi7SJRS4VIsLxKFlVWye0iqU0cEBARJWHLWY7gz3UPgY3EtV3DWKHhK/pWi9FxvathRrmglKYLLAcfwZguzvcxjyPac0rlFSIpD+s2MBdYZWbdSqqXFRVlgh5QIJiF1TKLgB3qEVtqxziy4OJalalO5XBNmdnUEFw/t9eZJxiBmJsL/AKhvf/CDZha3AQZrjW/ghZgqzSShupoSY5P/AAjJQ7e8vIOuh5mnDydRKr8I4XV3hgpa7iKty1VtUGvuup+1ub3DBGDfUsg8rh9AIGrwupTx97Bj9UVrlq33mw1GWAUTGq5ZYV93iOoHuEeNtmSDfHUsaYXJ9oONB8yllvaPYVvZzFKsS4AfDZN44e2YLqVX0vfpKFWyShsCqRfPZibHNoFA5YKi4toOrVJ4qDQuJnFCZe5hzHnEy1FoLUfOVVWtlfMNbhwrU5htKoOl2PcTho1cRS1OYYEa7+t/HEoGlMly/usZxuprT3Ek6JKlfeA/1YYYKiyaXWGALZ4RpjPMfstMHWvxHheqgPE/LLVLW6mTKmZ4OXUPwVfsn3/LRU1X3FHGP9S4B+Y11cynEbuMaM04wTZCRi8Af3MS/s8RQrjhZVCwYhB+5Iv9KVrKHMwUQqNHAy0JqVEMxhaHC44EHJObiXbZgPpVfGSuPJM+OPdLYWjIOmOAstmMJz4mFSFcdxjEYZlS1isSk5TEGDKXHmmp2amaRDhadQPGogZpA0LKWXNEHPykzF0MvaVgctyPEzs/vC22rFf1g6UX9RANeB1Lljb7QUtLnduIJMH/ANVBYGVhxti/JfuaJHELIaSzvaZWyMpcdx7zUcMG4irLs6hdR6n7lnjlN5VmN4U8ncek5aKzrnzCVxFHEJZnBxLrbeZZXhbXmAvJVAejxC6HJMjfcD2gqpiPE5eCWQr/AO4qwN/eV3h3CdWhmYQHI1zKB7/T/eJnMait4JVEX2dwvKCSxpI2CaZRHlGKl5HPhe5ZrbiHSoiq0nR1Kf7iVjDLquYIBKC3i4N7z7EcoISyzkZmmS/eJu1cV3LseNPrXg1jXHbi6KVHZPmZB2wJWvLUaClmwjGsKyup4vl6ZthLvupxHmwlt+63Fh4XNJqLtGGtNoXLtqDPJAozn1dfcq0DM2HcEiXCKFO8w1wQ0h7MpP8AipczQu4g5jjuEClVKqW1uYcIVmZRXhmZGF5SXA/6lDYXuAMuuYfH9QkCv8GE4mICwv4+q13xcwkCuACUXnELsYG7GNbZLEh1XMNO3JG4UOI5mI1TGKJnZjKtansgKywZlhQJeu4N5qNGQ+Ie2DBe6FomByPkmfW+tYvmHSSfqW0bIL2jmU6UY0gpWk5NyyjUck4XsjtJdcdkMFywOUdPmURbCXY8EMT+kbWscRl3m/UCAIdSGPl9dPueWlEvfuoAD4hqeEQsjFiPgRGk0/6MDqVZvmUwnaeOI5Zsse+cG4hMLtHwXmXQQ7l2K9aVEtnIVA3QYi55X9xJPdwUP0vMwSqkpZ1C+UoHiJQXSIn6JRRz5gS6uIluJ07iQrtCj7wYYHI3UwafMLAQ4JV5gcDzqULcQd9kVMHjUsOVyytMhn3Y/pLt8GO4Yp4/XeeIsCuIIdNkV0fQ0WUhwPVCTIRqaOpazcblQ6Q89zB/pKhyJg8Nz5sMvXqnlAHX39JRQwP0IZLmMJbEGqBs4e5RqWWeJeadEuABTdznF4GUrKtTNGbAm4GrtBVtPDENKlE6AvDLDKvMDQ7OCJaq0n1kji7lllMtA1UyNpiTctYe0AqTzlEAV4LxPJeYLqEcdzkbN1BpbxLHgVEVfmKnzzKYbfmdZ7qcgO4mumIgLd8kGfCc+mveL2E7JVZty/XaTRKJSQg13IMZWk9ALWdGeIhsBKDycswjvcMDbk7jxTLTLDPmUM6tG+gqXCzvUGPvs9qhlLm9weHMdwlXdTAOIQSxKuOasSwgbje8Vc3X9S1rDCK/eMdofuKmipquvEstikewyZYSINnEHNMcOSeXWfl+sj6biKLXtLvYR3xC5fMS5OMwtZQR4mEuEI4YbAmI4+DmC4VdQ2AfaNWaiYo6N4i7gq505Vwcs1mHiFtiNVuURQf1FRtztfmeLB9fvXirTzMVmASV4d4mctC+4vAX3BvGuuoRN8aiHdszBkZRzi9K98rF8xsBq9sy42gxjpWzT8Gs9iGwqe9SgcpgijmoQDCbh89veUpuIMOYsKMcwdypXemPFiUZQ1wwrT0YAWFbozMKUOaxGsXYQuwDmCDIGLIx3K/r6/KZDNof0mMNwnvUwXLNzKU9ok22oLJjwuZU9AmRcotHE6rOZuIajRmGWr0EVmkaryVmazhlZa8Zg8yylLplwtyj5Xv4+wnkFPBSmdSgNl0zwmZVXprcRiCf8RqXyzU/VCDHfkZj9SWdxgLpMSolBuVxrxLxoX1xACq8QM7EYmBTf4LqPOUtR0UrlG6GDEclqGkoQHe5QiNupUX+YalRmGCfMy5/EuqY7jKxqCBwSv8AcDLIN1zHbXvNuIPaK7lJqKK8QSsCj7GGGM4l5VzviZW7jogGkTMy2TiRxojluaF4iPxhIhI8QVjYLitvVmKnQQ1FJxBp4mokVVRx3qI/qOnGS4K+wb9NBKJkZbPMvBxMg7joTzHO8XFdszLaIWTa/wBIFrS7gNOf9y0ruzLVc3jKK6XCeg4lQcH4PkhQN7ZA5mbdF6lTzICKE3xQxUTUgXuKPiCm0YXTQRVeJS3VzBQWoU1YXi4n4t7iBK7uc9Uo+Ps4NVA/pQM31M4u6lDZ1AodMwbbUDF2CVw8Rjti7gKLMyl5uDinDxM5ZX3t4mHCpxacS1axUyb1uo7thFCsT/UpygyO1hA/P2cD4MIkeV8RvNo4YiEe7FMnwjw0w5jk2QXAwbQVhOczL9TYxSLBx0yt7TWJx0uGbyeEXciww/B0nuBEzqKxK8xyUxDSVcIOZnIxPKDBmiWoszqcIkeYVxFWr3lGBLYbtmFAC41iigdO4AAGj7VXD55jD7RyShYlVxKXvM8Y7rjMx7iBWGm+MQ3luDwmYHcJag1bEq7EiUjCyTLrzEBbAB3xNCsh7wC8uZYwt6mZ77ftcYOX5gs2wiPzwkJbLM61KsC/ES54h8zVAiXOGX64vUVzpUtOL3LAlikYhX5I2m+0Ag/CZVzamMhUoW3klI4UQA1QmCc3OPvB0/cscqeYhXLAG2UVzUZrFEwIkckLAdARIvRAG4Mvn7pzi6Ny1f8AlywAWNwKW5lMWlCWI0NS/wAHqKDxUC5gJf8AUOKuCcQwgO8kZLzCxmsrUVaEurLMv3M2z3J/+RCOPtNp/M1kn9Y8xFSeXEsqyhGmSv4gNZSKgYPUEuS94lN1pxH4iCmX/USZccA/aXRDpTBiCkwIBriILrEwjpjMvVp++BFldxCoYJ3Q7C6ruATbMvX4BuG++Yq03bcQxrOGVmYNhsq+DMW533KItudzF7yALCNpsxB1GOU7IBycvP4VQSkuOOu8RXYvz6PTMAfjIQsSCS5v2TjwQvEOdk7kB5zBuzxM+Yl3KJQM0O4V8kFxKR+IbCpZe5ilF3qUOZ14Pw6sUWrbwcyosBzlKbRM8wt0xHXoX5TtAXctriiVhNcMd/8AmANfyHsePMHiwxTHgy+YDS3aO3UNa0xdogoZmJBwkNuzllFuUGY3FzHsz/cJ/H1ewDJgm1/UCQL8xObQReiHBAcX3gBR+C/wKXC2yns3OJCFiJGZ76aaMXMQ10fuXbJlMWR+xlO+OTAVEMg1HD/ujDMlcp9uT/iaGX6e8TGnmJmlGWMN3FBYEYVsrcJG3m5U2rcdIYvOx/Isuv55LNQX2Tzfv6W3QynC/Uay3+pX33fyeT/5Y4v/AB4mn/GgG99RxCkQNo5QshJrP8ZtXmLc5nIgs+JewrHsnTDbWP8AjCCuDj3lFyo0XGVnO9kiL4X/ABd7dReOZvcuyPUvUzXgQjyfP8Ols/RM9s/i/PsCayGLgUzj5VKkiYIeyVbj6rpLcRWfwKBa0S2rMrLp4gCqlpc4zCMwARW4qWgFN/xV9bUymrhKKSiL5JVVEF+UVjxPngMI7kz/AALvQRTGLYIIOfBGbNJpQDEqjMKMvsTJIRgysP8AEeJCbfllMNLvZGGidjCy0f7oqR6lzJ7S1+cn8DYNBubjrE3nmDKalS9EBzlmD5gBmUMw4TXt6P8ADe84wCvSwXpIByRUTGCNS8moQO4IvJ+eCPBBquWMFHUSsZZVJxFoDQZhoBm/RAUzjCEVZUGCJeoAI/iXW52RnxpRXtcG4+9QfGOOrlVnEmnxGKiwXREYYf0l+78dS9u1j89VLWWH2nU+RM+GbzL1TuIEhhRAL8JnIgIlCXMuo6ftAB/DUBWXzUEu48wnhKEg4In3r06jQkaIXvu4YGaWWAy7JAco4OymMTxdP5wo6CLf5YqbUIkxLFVOGVacyhAYca1zDqONQnnbGyx3MMT9zP4dSyU5tP8AuPtx1G3fcfUPI1Bsv7niQlv7zRHuvQMLRju5lahQqVmIll2QlAeI0efYP5uL7cVr3KCGII3vgujMRG9TJTuJqoag5EtXcchEboljUcF+Pwjb9YN7Zli1qNGKdR8nMbpL0tqvulVqXI55JiE3KtkfJmqxK0OY3EcXcMLlbiXvH814+KlZDqGNczUJWuKZfvEJS+Jt7TJCzjTFckFYPREeyjMOvwSd+kUPUU0wwasiw/rldmJR1X3KWM1uPEN0dRLJp6DtmZIt0bgu4MR6HEsLsYB/J+WLHBLv7mBqZj3I2AmpqMDa5v3egZLIuDAsFoII0owdXMDkmr3+B2FWJurBXy+gLhmFytYnIR0XsiiuVBr7kFR6SG5tmUyQIrZFlgsrFzPAIVsvX7Py6R7IlXm3cCOkBtYhGjpGCDE9tbg4gytbn+6IzGu4GDRUSzF3weWRl2D9+l4kYOqNkoVMXiGpxLRqPiIYNwW8T/Sh4/s+0tCy194sRtce5fcvVS1y2H0hsMQYYHBH4m5AzsOPy7ellmJbmDbiUavcG/sJ4AwCyZ87LhsYgUGLTHCXI4ZaxzHa8EwrN6LJ2ntDH3spy6l7aJZFlW42V7qfFo7YZmG24UA8S/HIJ9qxeI/kTSVcI5InGGz0cxh6OuglHORg8kcyW6Wjkw/lJS4xHcPmzMsDWSGFdxFLXCwDM3KqWiIUOGIWHExikEchYJPiVuoUtbj6Jnz95FBoNSx1mK0mmn3YVDvcEZce53l1cEwxVPM/azz9my8zJPn0YYmYp3KNMI2Vw1T3L3Or3KhhuYoYQrueVPyXSZnPaLqVVIJSsHcC8alQJZGSJVw5jpuGLREpTUoVEw2gcmdIRlEZeJun7nsjOZ9pTG4VzywTCnUwZnMSaezKEmQPGZsXYxSPYT7OwcTa4zIwnSGUKhIWmNy8DMlHEoW5lqcEpm1AVEA4YQDk/IuUPA/cNLJejGozBmUt6JJBlTMStIHDuUlZWbfUdZuGi4cEwnhl28fczGwQhooV7zG+OMCEVCOaWFs+hRdZZQzvCSt8kOfaWLp9m9EarisnEhZFxvJMhM9RjQ+JQPD6QxbNPiUncW0hohziYrn8hQQZKlbNmZd1SowlKQIN/CAVlCK1QI59AHIli4vBjxalADUe7NT+1KXx9sP1cZm5UFbsSoBX+qaEwhVgh6J/ujHtwTt1iDIb5g37SofYrQsuogrLOPSFFIBTAYAPJEG/1N2c7gNLwzK3zKhmZPQ3PiMZrcwl4w/I9pZhlSUlLtlQ1shsBxAVY1kFqXBLRtdxqxKazHG0oq4dblid7bINepe3Us+3NC6hCyW8BcsndWfMNheZo2loZpArXFH1YGDTzMxy325dg9/XcPEvT5mpmSgx3Fccvaabmnj5g6HTG/gjZI0d6hQSIRFbg1C/MMAxLjueTD8c7WiWe9CmhxuA564lsEs4mM7ThgTKJgjZmQZQ5hZYAMcCUywF4j4vNn2id4IiGb1BUWGGb6J+oxQuNStDHN7Irphpr3l0I1uZzVGI1lLATiPKcZlUzI2WPZD67+WMQYWIZQKxU1mbIXMiHbxGpqFBTFX6JKOzDJFcXMvZD4QU1rM99PxnSY/MWAdC1NfaGCghEMSu8vk2qX+SBD1U2TC8x7eYAOYwNUR5QOI0rLULHVfG/tYb8zOB1cJLkdjj3iWD4QLWwKZ5k/4iAKZ1q8/M1GpUZ5YWvM1qLBLgcblV6+tQkygjpZzy+mVI1HWGpjvU5xDqXBELETUD/QmAm4O63hlCp38xNtfcpVVZcpvdn4198RsWTCLqHGNSEV8kxDxC+7lMzc2ryRmsF8RGW43MyKKxBRhBtmZ7SmWHucpBsPj7AMtEve7ZVW6e0sGm2ZBPEdBt1ggbprsgMjmoxpDsCK/DEJ7idDBUqJt9oKHO57/Pry16BhIiYBmKm7gBucTmczYlgQVUt9CpEiXwTphW2EgSXdGI4jhhAnJ+Lge4pCJe00zMlxQWmKeUGo4RGWggTm4iwlquCsIY8JisgMIgcOJRaOvUz5uEwsXj7GM7YH3blHs1Nm+5otv/AIl4LlFRu1e4MF/4lF7rUdypUtbMo1Kqnt3Fon7EfXe+gGou1lsCSZEvMalTLCLcMRZzLGpRmXc6Iuj1DUaA5w/GUmhziN6IgnMxAfSvDbYbQojMMTFm7/qPeupq81LSPn4qNKH0Fg5maUh5JoZd7n13WWMgMwW+YwTbvWJV9spsDI4iUvcRWKuUbJKWFmGtGTbENpkX4mUEHZPLA+lUniWvvEC4rc3FpgJDMaZlG5h4QymzKsdymrnULIFPSDPCYt1lJadX4uLjjdQy9wxMKE4XAmEn4fUMsXwylXcem+7lvfMzwm0tuaktJQaxAzSZ28/XbLyxfvYq8VuNSeYsvMTyl7PdLYoFpDjzUZIwy95/qmV/EcrJbgsN1GPPF3g+m4+I7HmHiOUB1KgpHP6kFN5Zlirl4VFakgsYtPSoZQZ4TYQJyfhsa+CN0TgTUpUQuYSoYEA49FgWmEULXMm8Sis8UDK4opiZVn3KBwg2yTSavf67GXWPTRbI7SYS7jE6xLPxyQ4HGZT0xxCRHmCjmn+pY1tIWYFVwgkRJ/zjell/Q+pn+3Kkj6LFSMNkB7kmi3S5eIbYyFozs55QLTg3G7nEH0tZ7lhhmHqUZzh+G6mT9iG4biwhdXBa3xMYwBlmYJdywyM4ItJ0o9ESEVInIcyojpmKhRKF7VXP931eCSNmemrJQ3MtzF7ldvUE45wxoLwQLDVPFZglFx9vMGlZs+WO5U7Z+xQlCvj6qV1g7+Zx0xscUr5iLlMWY2pUGUZxKdRLm6hmsypULux3EWa1EMumDKWhQ3NIRfSV9V+HpM/SS1VQQvU4WbxNoAlMPpWlE5eofm5mFSJ3g8/MczwywNbmV3Wj3louY1zf7/V7wmdnmLAal7RecZYK5vMsyY394i83mW30zN6IuXBB8HPsjtPamYLEu8cFMTwjOG4jtO/pUl4hOoEXwTmH5QYhfIhoWLySprYLgspaeUQ+gnyhkOp13CcMTCCy5mHoKLh0Pf4ZeiMsRyAnaaCBbEQqUQQGNTncWkSMtyl3GG2cxKCNZIRCJExrUGxAh9eejwQeUIzmPQ0RDA4uHmu1EvuMIq8rcsqENdwjexmV5GZZdTR3Lr3I3IgSdIjGqZuJ+2+nLXiZQrDFbmOwJVqG9IS6ExzFSexjwPL9Bsox8soQxA48xZYOH6CDaeyMfhaegd1MtwFeiOiFaMGWPgnSU0B6pXSXstXFaIsfaY5muie8YaI2udTZ9Wedx/UWS9lYlprCQcPEsIxZcQ9IZUCyVv8AcZPScDlgc5nWYuNNgiHm2zxWL6RkTEjYXcALh5Erc1LQeYGqY4vi4K+mWHg5g8c3FxIF3j8iLeW9Dg1FljnpiCjK+M/haehZwqJgPvLWA03Gqek7hxIiDuBZU+CQIvtLW4NbuOVmVDYSoK+X0+9yOZp+hn3hu9HM3XUOT8z9bmPSNwrHHpqG0q+iwqTK3C9Vwotk0CfMDOnz6f2UEdDxEmY9AIr9QAC9zFq4W+pah5CAWcf1Kc2EbzcXEchqIREf3Ltiolm4xZICYLv8JpD7JmMYt+gUjtqCFbR+I1GV6FTJjKYIdmvQtcsxzN7mj3mP0oUjtN33GHC9ygr1ajrAyMLeTDKkzE7QHrN7hTCyMsGxfiGxLAaysoRFPaPPgqLSzFEzrsfqphBLEdowXDiOBlFiCY5MQW+MMoZXU0MOXEIMxZJGhpzM0eZ+yJh6VTEVBa8Ifg6Q15JQ0RRqE8RxBaqDj0bKSgirwiMtJSGZnU4g1GJNoArWd3DZcFe39JsZbuls+ZRd6Y8B7zZHsgU5ckUWp1FNJuHewVLKIi36CXk3EqAPCpZxXI8SxK63A0ZWU46VsqPoIS10Spg3uvSS+JdfMeEu9RaemDqBJLmHUvMcaYWIIGGpcIICqE96fwtIwdU7czRcaZV6YCMkr7vQ3MwrljGKlazNMyyEFmJaKniRhO54+PquWjphx8waNZI1MZlPOGrgKewikTAibfQBVLpb7nbiUQIs9+EessVMSWI5FFe2X6SYmEWMVDNQ1Amk4hiGQIsGhJc2YCENCNKwozKOIuINROAomf2yr8JlsnZGjUrfM0ZnKiKuBRDlZiRJyvcMLiqxLNku9BuYEVF0RTDB9QuPgZ7jQGKwxuw5nQHMxnnJ7RwMhjfqZmUOZW8RwN8yit+g8JB3c3zJSP8A97cshuYunrRBX1YAe8tpfpB2i1KN36W0DGZVczBdOI2RGXDLqGcRaJr1UZukPtc1J9E/EWDMoHISlwZUpYhzAogpxBqDguIw2l8SgsAZsk3FSwaI7TREzuoQfYSKjxBBlBm1UORvjzAOvd7Qzo4lNthZQy5onGL6FPTH1NNlKvrdhY7ilMdTJ6Yu023mXOOFaHenbxXOFg5xeup0Mo2TkW+ldMYDqUlZX4wlPPaWarjHSLcpSAwOIEMEquYOiKGJmeRGixjdzOoW8Tqx5hJuh9UH2ypcZIkyHOVdTmSoNp5OAqHU3OPQKi7TWJAwmvs2xHU8L03gSvUpK9Ssp6a+pRK/MCdk05UeszAFLFyReMbK5tKFNLcVuUVKbOhMXJC8foH3jDD1TxodBAw9EEr+XqPoI2TYGKsKdwKACrQnFwmsEIJr8OpX8/Ur6gVK/wD49f/EACwQAQACAgIBBAICAwEAAwEBAAEAESExQVFhECAwcUCBUJFgobHB0eHw8XD/2gAIAQEAAT8Q/wAPfVjGPoxjGMf8UYxjGMYxjH/E2MY+jH0Yxj/ijH2MYxjH/FX2MYxjH/FH2MYxjGP+KMfVjGPof8VMYxjGMYxj/gp+ExjGMYx/kgtiU1/AvqxjGPoY/wAkTn+CfVjGMYx/xJj6voxjGMY/xR+cfI+rGMYx9D/FHuQbYhEYRRL/ADH1fVjGMfQx/hT4RIK2hUp6flj/AKAqABV0WhX8+mIbG/RbGVwMVlP8AxjGMfQx/ij1IMA7WGiNEaviJZGc2W5QxZgncBdCBhVluKSUTJLJxOSxjj6Uk1DYoYSFj81jH0Yxj6H+LAm3kyxiDDTZeqGt+4ObI4BxQUGaYVB65Xi0W8Cf/Sdphgqjlay2K446plgNMCHNpOUhxcjaF+SfY+jGMY+h/igEsTbGOD7iNJwMAzP6IvEDEFbnEtIOjTTZzMjfQW6MTk0nGupaStxK2ygALWoDdbeo4NDrDAhrEOyS0KOCociATTSflMYxjGMfUf4kBKqknii7ZfJlh0NdrxcWACNSSs4c9byJUuBqMqBgUywAwlXmWRWShW3Nj4IWFSKgDmKOGhnzAawDvGIXE40SmBS3MusLY6vaBecIMCx4T8isRjGMYxj6j/ECNzYOYXHggSLbaxeSC66lnwKgVGf1zeIKzcVuGP8Ar5a5qsVOO4O40kuCoahUdJgl1rUBD6kTwGCLBjJTXJG47mqDjhDeAwHiWad9zgg/gnvqMYxjGMfQ/kV87onQOh/oQptRZDuLYBXD72FnMo4CnoajX3X2MuEMiIBAr2vRKqaFiMNWKSpYDxc1KC5dGA+uJc1SWB2O5fJVEywxHk1hDK7Ep0Qq1vshkgWqOSBf7QJw/kMY+j6MfUf4dnpXX5Zh2d7NrHReFFOrB3cM12QMCmy4nNLA4lfqlRhoQB0QL4/hu7l9FDeNjy4l5qZeKY/RgP3BwCzH1K1AILL4op1cC/xldspa7j1+gRaXvaBQbADoYhCn8Z9GMYxjGMY/hXD5z2OiEbZaItcsOhLTYrm8wBt735JS5ch+oXflKCGX5CKI+bgtlqHu4anQuUNwDayPRALGDQljHK+txdwofPpr7YjhXuHlRQcsrI1fHIgLUo/13MKdYGY0pcrMKkb6ub+N1ruHZ5z9n5BjH0YxjGPwHxH4hmNFUOjaKv6CDFaU0zAAcK8XETk2JWnkWcytPCDakgOosaSWuK1JSjcZ6UAWr4iqzXbqWh+C+EcUpsyuorBMnROTLUYIZBYs3UVnQXGw6SQSX3JZiCtgqNeq7ia9BX7vyGPpXoYxjH+GILyMbG5VzNharIFgNzkiakOCU5RnyZkYFvipcCo+qKfQWiN+qK+ry4oFV3kg18Na7YM1DQILhFxDFtQaQN1FrkbUxrYlCx5hKp4dQhXe9GALAqeSIqR4DEQ2sVeErkImjWfiPvwjGMYx/LPR9p6uo1noIoGjt+4puWogwFswdotwXALACxcWIMNGwdsWbw8xwPA8hg1tgrFWrvXkCMFnUcGrqE9DoVuGAP8AUF2eREvB5g9dSlu5QyscRbMci9EzndsMps1DtaAtHDAnoCC09tL6X+Ix9zGMYyriflh8TqVKWIMOppw+YI2meiNFtAOpVsgfVxEGq2pbmHX6kGYsGvDxPpiztgelvPRAmJojWNGHgbjXHqnAUS5AHExlaU+IWiupgmBjddSw/WyHTWZIdy9n5L6MYxiRj8VLG5EF0JyGCoMsUiUuK3KBIERIRLjap9AL2eiLCz4v9VlQjbK4a24AmDlmIAF2leIAgozUjcnZYaio8DjmVlnIXLcLfqtsQCAt60x5SAn7hJsqL5il1fq91BBAqQowiJzULpVwltrBNwsyaEBL6FWJ2kr6Yr/GPo+ixjGMrEXxqWNlQeWHRd8GISvhn7Wc/Z3A4SFb0w1xWNxtTyMwtAQ5USq2fWM2LVL3CKWW9W2nTG3N0vqZACjmKKAb/UC/TuMQE89XFvAYfJMmMu/T4aHERPV2D+kD+mIHDS4qMDBT5CGMFLnki7lYJ9y0VHA/XEEYob8RxCtqoLNIOCZ9eK5E3V22HIhQYFW9QcESCwAyrMgZtxsulbI32cYEUBxpZqgckXiVJR/efmHXLwXRFt/FfaxjGMtPUv4VP/07mUobv/3LiItx/wBJeRu0GL/9VGOoH9kO40PiGCBASpmm0C5t/wDjKiNP/ZBcSm3Af/s4gBpO/gJrNbf2MZtaJUOn/Kj9IKErxHuCEcFwytBFNEKrqFkNxeiAS1N4urYXEaXxBFhRMCsGLhhf+McPB5ieIbMEEDb9TCusholtZiv7mZZuqjnDTjhh+nAceKOnXg9jDPKAH8YPsYxj6vofiZdUfQUm+EcpBq1V9sdWkGGN0CbALooRt/TwEOuV/szU8KZqkAIXNroYFCNAwwf/AIqAv+IqdaUy5BtqMrug6+0HHH9zHZahE0BN3BUSJNxLUbjqJy3hCFycvpqEIk4KxUa2FLGG4UsNiUiUIyUA4iFGrYZg7FbuAKlzqBQwJDmUVlpvMsWq2x3DszIRqnAflMYx9REifEs1AB+m5pK65QgzyYbavMudkilnqRUsiRi30EKKzDkjeawvqLUiy2ZDijoEtS5o1tLGNLC9cAE0P8Qx3SYIOlVyjbi7SsTS8xlWkRA4li1zFrwDZ5la6F0MYjZZrcFrXRYXGkh3iAVIzN7lVVfcCRbKvykKPablCFjZgmFmU8YUy/paHhF0AY11IwZqB2zAbXTMvv8AKYxj6C2UAcwhqNF/FcvUDCSFGoMzkc5I18biuSdneI4YFymYIrkX6EqYLyGYSREUjK2XB8iE8EWSGmmpqBJIPN8aFgZpoVHrU34XC8MG6K30Jg2e0YqAYVTxBZ3YPuJ+GUeZTEChGXsQUC+Y+dSJEIQqAshVCoFGVI7UBHrDE9YOGWmy1ROOU4KwW/wXEQ7D4dxhnjQ/X5Zj6PpmOYRVLl9F+49cy1QmUisMCcpUnJIIBGu2K2QiOtQmpdV5S4AHlFuGyEqEhAYYV9uEgNGnERSBKKAi5HKoDF+K44RQzDlC/qiHxXASWLQwaT5IOZDRmplR055JchQULRBemyEcsBgIu0nnPtKpyN6EB6webyTMF0WEe8Xmo97UoYzZ7dSmssmEDcVeIROGmil4AljNXlGG5dv4R8LH2XIiix+I19IRwpH6nhf1LOjDP78QAACDqDLLCXIbOW4nEgZkQvEcINNxMMhGZ8qB4ZN5gDkpbDA6h5iXxv469H5k/oxXsovTFE5qxeK0l2GdDZUGylkyg85Bd55nCAiyuYeYAwKIckT9VCDdsEt4TJFobF/TL6Yi/IxHqJjUoicUP/WVIbf5gx9K9GMY/NXoQ376lelfO+yuORGCLtzGFoyzVlgcfctyzajhuCNpBXkgaFESyWFCljtYvC3ZIr42hbDmbEWOYnVphi9aUdEAgoEqRR+ax9GMYx/jHFcRtTHuKMgM2wkexSErrm56pNxBWMHBAKaKg4W4c8laDUJ4B3FwNdEBDU8sK0drF+GvhPkYxjGMY/KPaX+dZJikojwk2MiuZ0glRShoBHP4h8jGMYxjH0X/AIs+jGMYv8VPo+jGMYx/xUxj6MYxjH0PyH+EMYxjGPof8XMYxjGP4JfofzVkpEeZsg/cp3/UidL+mDckET0fRjGMYx/kiyX+Q2Lalb26aEJ0zlS7dvmqZTtF8wUt+4AJLAd8MiBdC2BySnLJRI4X6pGMYxgj/G2EpWvLGlhwoBxOnMQz6qyYF/M7Ib2u0GWVokIAHkbgn4LQp5WX5Nq8ET9xEEJaO5RdcYCDNvRiFU1qkgJZdkoLTerhYBYP0rD3uyQWo31FjTGHqxjGPphGV/FLFCtVlssNweNjNdlFaDojpDAsgs5iF8ziUgNJuXaCs8WQIrFJ3b1BixmhlLpzDH+/tocq9I38Ne0bwMscKQ1xEcMjSxeOkYFQrWF7s4JlSjInRQcS8YsJQaWzTFv6MqL46DiWdh2ckWZNP7TOe7hwwRAPFcRjGMYxmUAXMQHf8S/GuWfs1ceryDMmeNSYWTaoxDK/pLrhVZA2MGhQlgU6XcBjLxFsIrjzHNKGWwlreBqPPhyjBIvz+4lbTRAUFN/GCAC1i9qseYMBQY2OB+0yZSq6wztzZNkSFy4YwbWUNeIhu8xgoYw0RcONwZ6guX6wyPIRD8iXAVJ0zG4DdMYxjGJGPyEr8yq4BNdc2vH0SrwZqOYleuKOsQebdfKVkMKjqBTcXnmpp+7C+msQ7ZXluPaIlxrIbGRKszOnNQgubLl6WUlEF3KbTJhl3UeNwFZ8KDMS/a0ZyxSJa3CoTKAKLBmK7i0MGMMCBSxh99CnpYLgFIVHUGBThFmBThcy9tmiJGUEFTVIFoKMBoHoYxjGM4+OvzfpXHbHm+jfRDkUDEyrDWq0L2xVl3FzHWJ2dxDRprMyosCdxFS2scEEVYKCXHHhpuCO9M4DqIp2WDLKU4V4mYtZVLimaYHtoUcXu5aGTn0zwBuRfA/Y8beLBw9s2jexmVTZllDZbiDzVUxMY8wMqCXwt5uJJg2KJlC5XPsmDX2sBUBaXBSmIOPrU2lU2wEnLEVYLKU8Q1BjGMYkfYfwjZu3g4UiQCZyHKbcxlVXpPEQoObE78xGMsDeCINI2KaElOnei9Q2JyQihbeHVxmCi6OYJW7Ez40IAr7uiJtU0R20AMsg9PQpgIgNCNbtcPMiD12G3kl/I7H3DJLGmPAtKqLWKEOKCiBz3AdxywYgxjFytWEXFVMLiCtolV8EqN6aYvIqcsZMNWpQHULoLZQKKNzGw82EMTZOgt+jGMY/xClQd9PMYqrYZXWhUyBaPGTMr5UxlUcDwS24tVFZltBKM6j6mV+43oWhtmdCxVyx4OfuNOwWQbStmcpTCdwWtY2sG12WZSUklF3zCKEu0zR2SK7azmZFKvEc3T3QcytfcF+rcmA743EUG4tWJYs2pG5d8wbLn6IproKm7uhE4C6CcxopChviHpuARX6NEt+X0BCPMEdjQ+IWMELBthAQxMWhVBxGMYxj/DPbSFfBNm1z0NiIyQlOJmBSWHrxLtQLDEuDZXEMxEvZ56lQcDHC+YdXpRniEsOQriEFF6cRVSF3ZDIkNy81cCCPgYDyy99oLVtTW9N9wQv2IbgF+zKFcOKmaVVghKWqC3zCuxYK7uXAQkdqZRgE9tDnFom4aStC8HGzFxIuiKqDcNrBOIVBkpNpDV0BgfoGVlXeYFqJFzgRdUJdscyeC4FlFlU5tc9sZ5KCAwDU7eKzLVDkxBrauY6OxmMYxjH8C4ggkr8M61FphAnFbiWsfYR8tyMn1LvHolZYCYDBqK3AKMCpssozsy1K6ABYReKblXB5YnAJMfkXY4hYFjFcSggaXIgi7GuoWM5XA16DhmGQLbNDoRL60uRFqIMtJAksjsloKo+wlAuE/QSuvEIaNQQIYYpwQRjZeDC9u0dQilAV2seqFP6RaNgLfliWXfI+WIjqVB15wrY8Qu9HZcvSEYgRDWI4xV3BYi7M0SdMYtBhAMOJYHDGg8jGMYx+YpFpxtWiBnC0jFk7lkEEB1RbwNRZ0ai0EPa+SQRMPynsyZpWCYhHvdnJBiE2RVGJeCpeHRUo8qYZbl1yeGXJAmOyPFNmjZZp3eUMwCPiVzJdsFd22xgkJUKDiNWXa8jLjWgHNx7YVXwl9ZrG6lS83fSS71AogRzopYxAYxBhArvYHcWbm469l+AbFIlu8yIGKmI7WFsRi2L3GrOOCLpMrLNLpc2BA/3LD3fHSWxoGQpGU8U2QW8akG+G6r5Jbh4C1oWw9dABFA7NsBWFACtgWtwUgKjFIxjH40R8J8rPDvvEBwuBxFZprxGfRE3xzBDNq2EKU01BVwWmrh6WwrNlHnNCLUbef6ZUI1vkfMrFRC33In0wDAaKtgiqSyxgYY2JBxHlI4W6l4cO3zLRKNxcnqR2kFQASrgQZnB2wStAnFu06+NxmIkW4068wbshjdomXAbIpKF9CwmcGlmIOHBxEUaXpksgnfAhKq5S79e64C3HEPAS4tyQ6MsCpl+uJfHZmJhUbZlsPIdMAaK88PqbfuJN6bqJLQ/bMw0UUSiqWuHEOtU2WRAAV2qiO0BdIWhvd5WftJGMY/GWQW52lQNt9aoyr7AuD6IU5CHvIL6S7KhaV9ICttO4+0SYX00L4Jcs3jM4gaLHQ/4ZaUhqvGkGTntVEwBCC7XiXtlh6ho/Hb5TUxXlRBO5M8RcUKLqKJEbZyhFWJw8iUVw4Zcml/oy9C0ofEwJuzbtYVVMYHln0UehKuBc5GM61dYwRl5nMdgXJFygM47gBhfRaRzFG1DRE+xVhuEkXI5m2V+5NvUArVCL1YYt3ZAEXaHXFEWte5fmzEXUYDuVnXBAN3RgZk+y6zD4+XiFh48qy4TlHjgRimCV7lOpYzj0YlwsWMRcNjzEo2ozjEuh5gl2kChzeYxjGPwlqUVpzAlrKEQ0WMMCLfMsFsOmAUGSg8xpilxlEAOt5tjpBTkuogjEpp8om54GdrHotCmSKUWrgUETMCHi0l63XRbBDN9lppXaFNRIpjHct5WJ8/IcATP1FJwtu4bfAj2SoLYAmDqBi5dbx4z6xGOZl4pyxPtGTL+xW+MwTWyvYUSFMor/AGiaQqCVZYbuEa4qThjHVNFoZZhCwMlJseyAVNBjiVhrREVMwqewH9F0ETYAZXKUCmGUHUsSWhYleYwpTK4irVW8TnU7hRqwjxbYfF2t9IWeA7XMXLVzDoRS/AURRwTCAaWf6BDLtNZgKsmygBrplGK2/bKpxpqKAaLf6IajGMY/AXEQueE/+strS37cxr0LRyEf9hg8cxpmyHCEUgVu9WMvYLJbxwxYUQTpqCYw60SXaL1TEX61bdkVZBYGZUV5bCMqtYGowYyK5ZeVIsyLwx3QpVrqpX7ariKxqwD46XmWPsIB4hC9K52y2WcbggcF0TmrNlIKQ2psIOC7xDMIZNEdb6wrphIPB9hmH/Af0jDTilg8yecBX5b1KmZRMxGUC2U2gapd9srpyj6VL89JuLqGgH79lKFuJ5IS5NEnzDyf9VMmheFcowiL+gkGyqiYElhDu3GejvUp/QTXjlYTKD5GWx3scEdRg0Q1lzzBCE8Go+aJSQ1L2Gpn2gvjRLOqsZTs23RMPVA7qKwdxjGMfgVdgtYCuONhGRUAxiYKyRxlwuAvEpsPouxYmaatgFmmqhS+5eqAgbM9zJGnj4ITfxHfUZVSxzUJNui7FF2i+S34YfDGqwIFse4ROCEViUOLhQTN0guivAslVwmzg+iAJTodPxH9H7Cqlt5twQAFX+oJSq+5yBmUkHOhC/zrKIzOCHt6pd9Qzlu2U+gxZ4Y4o31J1laT0Jl6cc19sTNLji2ZIqKuAixwvEaBSgheGWqWi+JjGmaJtkI3XEew5ERV5xD9HsKyJYlMU6YPDA7UUtZsRmM6A4iwKqYZxBriIsvHEfF41yTMEhacsaCFE/v0lADZLlvgFgsK2QKYGmYmpVpYIVODHMUFRRMPIs0uyAjC1w/byxVbWMY/CKiNjAXA3BNqah2pBL/1WFwYoHNQe8RJnohTVlVmBdBFaw0erQm2CMFtEKCobWRhdmsFVasJfYr1iClvA5JwUnbiJTYOJScLtWgSwqrbTcVMNCVZb/0RLUAAcgifFcvrUfnKKHmJT8JsOglNCvKIliEqJDaw04Zhurb4gkkEw9cHToZq9x+hhl2UQ+wgqxYyQTs2tCsD4akGeJ0tQRfMq4zcbV2ibgNh3CxJoQ3iNSVFusTpjcexw0DJzL7qFWZclGFYfa2v2+3AQcyQQOQYeQnUaUDcsVsURTghTKYURFBduuSXMoqqinVllHcxnRyQGYNCUrVLU6hfq3cAFgbdEvYql5mmMqM1LcJMHEMGW+Vjs4a11GMYxjH3aO7pc0SzqMF7EilsMV07zXK42jiyodxeAMOoRzcb1lMuXWAWHrQ3FFm2TBHYzgk8SI+cIKjnkgzLalLhY0uuh64mEopylw4gNWcJioRYsYgWnu2pWbCA6RIy6DrDCLhekVTV4xjMX4AQWH9eYlgF+0+Gljof2y9AyxM4rMsPhBXYLA39PDKlLAGoCmgM1AbPLbGWCrCwdCkTosjuEQWmb8pMDwZDiK/nbpjITy8mV620V2RH6MQJSzUpBYqGoFQq4ygERsWPWCHwHuRGDUGVimaj0ajnZSdkxBad9JcuxlUKWnCodBs8AxSRlniM2jNwfqPRQNK5qcDxfmozOcH3GcVMYLWEZyVzO7JkR06Tds4o8WPoxjGMfcTJKKjCsNY763P1wgwjRFqWucvvpSMeKy+oyo3bYPqbviuXYMKnWDMMJWIOWUuYb8FOszAgeTxMMUB5MGTEy9wwGtnmbsC55dKieqkuoV8VwtKRUdrduFRAlK3DiQPBHGugaag/qI/v4RvLRPTiFHUqSAwcY6GDRDIqhA2Ndt6iBIgGYkz9REMcTFOxZUTbvd9oJg62XEMo4Uqhuw4EV4NwR5OJabFrqogqTOH6SrZd8TOMKEbzvEBCRb5ECjYv5jl94tAkbbCmDVBT7EYJBaOzBJhtFYUowNWRCoEAYYDoeZC3RBKcy97XR4CFXjB4JigWdRHAHZywlhRVk3yClJegyS/ZvJ5TggABQFB6MY+hjH3YUgtQ9EveBhGdrDwSkhmLBNagDABNa2LjxAKO8cCGDzwPS5n+tZb+JYgNckeFU/vEB2luJgFtBOIKisnYEd7nSBrBrmEV2krVZgEAfnl7lm+N9MOAmFOJVbQbdMSVzBeekfSybHRBtOwfgr0yIfeUwiaMSrSgjIgITsZxidErLKCj68xMW1z8xWtQh483MnqhAFYiABhyMw3KLwNbiUI9xygCp4hK7Ro7jC0uRTpZWbqFqZcaSOAUaCAwl35JcErEi+t59+GQ6yCULhm6X5cQACtDcD2IvBUvGIfKO42XyLtiJD+6ks6wiYElq9Sk/WAtZ9DzaaiZtid9wv8AkAAFHoxjGMYx91gwsTSlXFRq9v8AyaRTA4gN2bZkgqi7L6gDJ16CK7jeMZSUjhApn6ldiEp3UuKAdQcRCUAvXASoNFa9QOTYshgbhpk6jKBiqaP3Ba7VEiq28sVIAmnkzChMR4hrBQtoF4hellZ6qFwhT6EZyuj4NKTL9kxY/pkYEgEMuW74jcWcbmIboLwxDWXuUkbllSMUkdkZItCsOIGKyPomYS2iA2c8e4BwCupfBKTpxZ5jUsjAbKhqKACWxFegY+UvTFikcYEqrjnQFeGXj0QpumAaVXxGZU4YSXbODZKk3I0VBZVMYDnBL+XKKNXKNScXlJcfiCMH2ji/oTBjUv6JFQlgIvZLQAUGj1fRjGMfe07QqugYQwAO7RWal1uBmxY5IwD9JklxpI2QraKTBu7ivY2DIxawEl6gLWYfNwS0q7OG5jwrb56IU5m1uS3ftIDeyIdRV1uC7cHTgBVUAmU7biW2LM8WQ6FXpYJQs5GLRgNYCxP3n8AaYltCYv8AsZaWCXpW8CDaAuoAdiYJaORusyvSgR9RRozjMcnIwIKv/SXHpUlbLM6nEoAYtj5EBXLDNmJ1HwEKOSINANEV1CH71Li/UxEQppOTPKkyivODczvRH4xSOAreG4HIJ4YUDIZmZAMDuGM/3xRlMMVH6ippfZKAADg9jGPoxjH3gWLLxJFoQV7TEcf7i3JSbSVh1shDoDIyo6rhLy5MNIPLA0CH25ZaB5ll3JkKPQCtgIdsEFi4VnxuYA1CLDgIhQwFBuO7lcVTCYvIS5wEX9EgJvkg5MSraQeZ0KI9R6Mw3hzGXeCl+fhxSIIlI6Ysk7Hx9S9YIrtAbI7crQoomeQv9oVn5RbBSKW0RPgKVmO+blCpFCkQ8UG2Fr9LpJX9MGANkCFFwG7KxEEYSWuisUOaYTQQKFsJQbWusd4iJy3KCmtf/PwLdy34WPqxjGPuFTSECzeM7XFynNq5Ryqm0YrBFJLwtNIUbGFggQLzGmm7DKUp0smXnEqqtWgsrlBnKvLMAyLF2DIlNxi/K9eCX9qW+pbObVydCKRxA0QT8I/QeBB7OTUOWS86hVbgimwIcd2rC1lKlKHaHxUTHPfFPmqEIsF4E2MDlxcN2CAZhB8xSchkjl/Z2QmkADuM5EpbiLAA4ZQui0zEQl5aGbQvomiVdOBJjrcumE2CBHVAWQN2GAija4hy5+odxV/LfRjGMY+8SIzHoyjk4S3GUhBQwUCuqi9KNysAtmUwFEsK70Ze9URp2RxjOaiG4b/TQnHSBAn0ikwyRdJpkrHuiNGahOEoci+U6j46HBx4kvVuVaWZBLpcqj48skhQE7x4jw6wfjMQsadYBMjCK/HTAuZgOGoSIeHBFm1DLoZc7pNGWHUN6I+0KQOJkt1cAE85h+G+cfZCpbGnmFL5AviZsUwjuXJ4BY2BaajBrAdmBsiXLgAAAUBweh+U+ixjGPwBqxJ+wlERFEjAIWFdJKzVmVxu2sltWuIZyKVhOWO8BOJYoAuXcwKAK2uiVAUCmoGFlzz4ssztLLIOYQSWkMEUHbIcqrcO+UivEQzNyZHCG774rCvdStBhwoyym065Is9QQT7Js/A+0LMm1MxIN3A6JTubJEwmB4047j53kwlcLovUwmnPUxbDScKFrUeYhVyBOakykvTbmktOjA8t5i3ac65mEBDIuO1YbTEh2BQNB+ax9GMYx+DZ22xzMPFfQPmCDQQNRAROWBKae7zDWtVqC4YBHQeMXpitQZadTMLXmWrky0WgwOROIOssEVT2GNCIgbDD4LUd9ZHdUANThUHch4B5GNRaAnhMIim6wRsw3j55KlUHYJSM1NL9xLe3D4Ro9LC6mta8xmKLHMypQgkDTGY0f7RGoiFnsAFnF8svIV6jTn0mMAAAFAaPzmMYxjGPwXwDqc8++4l8wB+hhb1UpmTRwiEwBAwFG4Tm3Qk8jXUyELyRFYghGwPMuNC8RiFWR3HoZgUCU2M3xEgKWYj1CKVsFiBgm7ktLk2BQqiDTQUH4OFAJsckfhwXyg13WSMZC9hxHuLY6JQ2PmtwwZhsBCV4trpF48rAbvBPH9BX8Cx9GMY/CIi6e9T/AJWBOEgqudISgycxN5SuNoG0QolMfIyxABqKbR2O2DRlX1QSDsXEGjbcsqzbNQDjRgZiB3hUZJ9Zu77jGzPPMGbufhPjUdOC49vfDC3M06NHMAwGdCXr+EfVjGMr4QuYecYhlvJVEueYNJh5jJdgNwNci8sDizVYkGRB+nTKiapRLTW1tnFQwghcnUwkmHJD1AcTK+XiZ/pt5UzdM4i2xzePiPR97+WfOsfRjGMZXxKCOPJClL6ZWW44uHJKDhHgB0SNZVTZaG36CjJhQIBzFK0ZiIkYWO4VRigmVXfiYcYyLUHUFGfwB7H4n+AfRjETj0Pyl1faiuC7mptiXLnX02dpTh0lqnjAOV6JWFNNoGNjGzRD570Juvt94Aru+X2r8vPq/E/wDHUfRaXE9D81QL5I4tPBjFzXb9FhgeD2Sysy/cDA/gir8b6HuN+r7T8gGNG0Ib/cCD2aEWf7pZqApj++DD+mzOfXIyvYxj68fAH5D779p6v5TSIAbWNLh4IGevJaOHgBhBRPhymKxS4q4hQY4EGAGrIbrBBzP6lgs+EREr19vKIxnaj6sY+ix/ix6v5NWHS3LL95yoQmH7RFmLKJy6TceoZlnYh0hWaIVRZKVYaViYt8SuJRVASiS7IntxQiIAD+h6sY+jGPuP4Qj+W2HRhBSrMuLSOr0W8jBX25WGrpwcxVBpQ/HNR3laqaAja7Y7iJkY20k7OILzXmGA5ltMJfJgehjGMYxi/ij8sLZjmapBYjbHJmJjUJG1MrkWzuHdpK5ZEabhQR21DUBtF46mPvqCYu1LxUU3K5NIQshwBMjCMK+wP01MBH0fRjGP8AEj+YaOkZ5bTHdXc0BpJS8EKzCeyxWqqGpsrcu1BfkjgYTkiOwFxC3e6FidkcancTMuRiVV8MrRlhgF7t9kY3eUoAWrq7zH1Yx9GP8cDEBYDy1Acb9GIRUr9rE/0ohlJx+BkXOJ+41UUFaYG2y6tg2rFqgZt3mHwIyoAsAZWHDLhqzEBCmYbStS82GBD3AzhgW/c5pLlzJDA5g3hdvIl/UfVjGP8AHAWXRCqCvHuNX7Bjr7ZiXUENYzKqP3UIQB4gIfRIKOfMgjNqTX+gIrY2iVstqGaCBRzHBMQHZE4cvNtxkEQXsLl5+mEFSs5sEbPaYXVYZ4lzFGjr8ow116MYxjGPzEBlPUtH8pGLgOWCfpu0Vla2KvuauYB6JCkPFUQ5VYBKLENQ8I9S5BpOLOB+Qy9q8FlVV3xByYzFwpjcDehjFGo8Cki0lhuZzgwQxW3ywh1TEwNVRF6uN5My+eQi8jdCjUAeMVjk0TqI3H0YxjH5H5h3EWRWvVsWxsg3yTaOum4XzZ0Y29K2quoXn5cIlJ+OmsITUquuCbCOAnMe5cWD7owAecGzDtjg18oWHCDCQci9SvTAYRdpp9xhBGxyPxG4fUATEwRthBJBRqWy5Y4JkEXKoKYrUUG/KJQPo8zMWRhFnkhgYolMjuKKD3XEKp8AoJerYyQlxaTGWDRw1iGh8xjGMYxlfCFYC1YTvuYbgW6jCykg6wo5RWlM6OZYSLQyHEaIHV+SCPMpw3D7W8juKO05OSP4jfFwQelkJmWlgI7zLG93EtCMPdmEcklg0U3KH7JYAB/2Zg4E5iF1EKCznMILWhGssbi6niU/DuTzykQcOCK1LlZGrwJAjFph3eEMC7rcNFKjqMqweIza0ljcNmYA0LnOnaRXWugau4Lw0ullwwGHMbOGj/uIOMYxjGPwqEoJcTzdmHRqty8a0a45jjeBmFsa2GI5kalPIMC51mZTBtWgYsbruCKqzjU0hTJ35Pw6715S+Lh1EWt1Ne3UsgGXcOVcICYNys3AZOYK6JbAJVLhxt1UQdVqZEXOVmeYcE6S8QdaEtHzkMoCRLGMKKqPwmppH9Er7lzE1kgxEdVKzGSn7hiuNQDgyRZWMVEjLUUjC8QMNhOS6iegUeIKDhLlblsVMMKxnikGQppoxiOK0KUxYwFFtmTvYjH0Yxj8Ihe7FW3bmCsJ5QlOMFqHqIRCliymAtwA5zWooo2ZlZDdcJTgxqFkVmgcu/qMuAciFQDU/BIqr5i4DSCtliMGtsZAunEZAylrKbrK+mNnkAHEoFswVbrFTN00ncVu5iBFiEFTdwCMUFQksG8ssVrtq4/BTQ8MwgjY5H4EK6D+4IfJhkqgXKUf1LCarLGGnZAEpuaDZ5RioV/xUseiESLlTTLlaoDq5aZZkhVbfX4j16yWzUZCM5lA0UQ7iHV0YxjGMfguP0JTltuIioyLdy4UYccpSgbCkWVUQBaoNdxi4hhbLVBLUMWPoxtRs1AibZlwxHRObyMeDD+Bo2ZmU1KfuHsWxNNdQMNBtLXwENmb2YbINuCXNUeIZAI6PEZOZEoaDbCQbe4hrsWiDGzXEeggBLSBgegFCQmeSY/Xkc/UK7+Amo7oRV4mYyYc3FAcbYjJ0bljOqmmA8U3KBWKO04odKmUwTmM8C5TwSsaX6xyDspqaP8AvLMUaJy/3BETQViZuE00EaV0IWBjGMYx97GY5jJS6JiYARWDRLzOkFYNkILrUKyvrzCACo5jxbcrmU3RJcIgaxZCWrdu3ErXsuMRxycXFpVAtQSFS0+HuJXz4tEz9EvUIcso02GmAbMW/U1SCY+tq4vE1gDOI5ltGxpZYOeGaESnYLWVzDuPPquJRS45EviyMXDr+4eiypIiRRmCA5LT7MwWlBr+BSnZSx+0AcKlwuICrQzHRRTb36A7TCi02I+RcMZYyI11DBrkh2Gd7YR9ShEUAFsPqNk0o5hFUvQxHhpiHMk+GMYxjGPvFLhR+ZIvgZqWW4oSwQ7wQXJZFXdcRUMUrVvY6YPs5tniLeGYhbT3MQ4pmPIViAOUWtxpf0blIsPewGWqaGigyFJngucXYPs+a64YJtgSMu2mWjELllG4XGkCntChK43ENq9w7ooYEzcCEuUMJH0mIRonUoo30Eqda1CEWCtbKYwpBOSRTUeqWRsISh/uVEUAX1G3voDohL1WWf0dcyTlCZl7I9WDr9wrIqNzzPuQRoux3MzCuZUOAQ+2WC1UlA7tA4Ij3RMaOTdcTMpTkRWUYtSA2yAJ3K59GMYxj7612yy4tX9RYPM2AMcRRGaYmq6gkb1mKOLBdTG2NtxgllikDoyOSkGA5StJVsVkjUvTESMaV5YAJ3BrhBagQuX6IxpFw8UYBJYlnymAyYDVrSNCMGiPKu4q+AZ5hJa04WFYWcogkAFvUdU3xiBWooMN4KkgNhoUkMO3bmXqA5ElKzEThL2HfdHcvQVwRLNhX9RgtwUgf2sp0c6PqEWIoL4hGaR76ZkSwsVmKtem7GW3AIgXuaT2hMyihGlB7AnMWligytrAZuUUuSzB88BlB4oBMIDgL3GwpgJK4aygncwsvwrKhEdgzaPoxjH3lZdsAjUbFa7aigJpcM3ZSpW7amMuXgadIXJ1bH1GYFTEuy/OWWxeI9G4gLdq5lFkGyc5v9XyFvUEIGLM8ziAXB35dMJY4HoIVBaCqhBjT1w1HKVXKRJYnQQjkT/9Ueb42X2y2CJUOWIyMvDTx0nZLa0ByBmCA8LbEtUWHLkaSpQa6eHEwio3Mzyz76s7dvCyrLDHqeY0jCqhrpqGg5MMziBZGYSg8KOLRCImc0eDOwdvEZQ0y8UxdeYFBEFOnnNcsWmouKiFGAxJ3SCBLgptIKfSj6MYxl+5sxllwVQDRoiiWxjgRobWWAoJGowpKQs/THrOb0ePoRDrSIB7DMxF+48BU1cKmL2s1RZmbt6NPEqTz8iudSNx/cJWgXk2Y0BhW8wihRZUaYDWXsY4inH9hgXAUB7Qnt8hKKZL5IPHkD6xLdqUUhCMIZlZW7PpnGXcWYHVn/csPSPcGSIW7LOc6SwDMRjN7mc60y4XFIoxgQMqqG0hBMNtywQVwwWyuQ1xsHxDUgVQXC7TaIBuW4uAbysGLON9YOXKUISi5L8RFLAxxqatTb0YxjH3/wBjlKtVA1C1tIIgSxAUgEqsXSDS9IlSnqWHJfRqoO3KM7l+gi1E3lqsZWCkCpee4jNDbdpkrwwUgWtgkXiYEmB80r9fJ/8AndSwHaAvHc3iQWSm3JN8BRhoFCJZRXHgimVkxfaxdOxGhg1GtSWMCPEzOzmPcwbhuRZZiXMrj0+5mI+N/wDBArGshLDeWJyRiPQFsWDddwjk3mAMVql0qbqHIKdTYJMTKwUKulmWtYoMwLJH+oRVuhjAvJvpKFjtyK1GCnhjcGmDwGlqA51x9GMYx91q6YXBswlbbrTBuh1bFRF07gohiMSDc5GohsAs7Q7VGcIYCA6Nzvc3MAYhoRDIHeMyy+2Yl0XNiqHJMQJnESq3tl9bJ+So9/8ACCg7bzEetMVE22JBvKAuY9cgElkCQuBiZFnpMWGpyIqJT7b+7TeOiIJmqfMBZi5jXaFtGGFp4xCZMD9wAmc3NSte5GnQmNyzH+5cYBBVW6lgF0SAs03AMLMCeWGooC5VbKiAgQJEEcjTCJKIXrMUKGlMAHKspRKkgU2dMIqwbphFUoCP7lFq8MtJchY6jGMYx9/l2H1aYDXFJ1oh9zDKl3jmUOrlI6DPRLCNw6hbUVYMKlOqEzksckqZe6FFTHzV4lgirTPcRqIVQ4xH40F/TBmpi7qm8TBDij8gWJ2JFfKoJgAxMd+0YEqvPLHflz0Uwq85NspIleLIOr0jKJSS9GImz0CKfeE5Wbm6+ILhALjDMtm10JazUK3ma7AbghzJxKMAolXkV7vHq/6hORt/6gcAgRBpjjoG4JqBiEKG08wVcGZqVlqLQqdR9dhB6btG6mh3KRSCGZUcLbDRYwairCkBzepioVaGZkd1mBGtSig89TDK9j3uMfRjH1fbVhjON1fIhF4qm49qRGJQ7tvNwgIXMQLOJZTEdxOKa4lreJUOi8kJtbdSELZ1fX0iNUpi4QwYreYdIiJolKvKGzSDC6oHybEwVpt/TBaDiHstR9w5URjjgmRwraFMULTCcrFa+KYeOgm4DqIyogXiVa8ARD3v4XDpD2qtYxVHMoQZWDOz/dQM1tso+4HghKzETUJocZipSNzFH3OpbKOpQl8w/YRvMgvcGW5du7gTLeTGCiJiJpYiW3iFcRtjnTkmzgd3Fo1iWlix1Cm9/bAkPtiVoCtGYwIjdyk81MxHJoCBWlXlNLGMYxj7KgelQxVyEEA59P7TQasG8qABdOX7mVinkmNA7K0ZMqcMXiVZSBjGuQSi4RJFiajWovVQtk0W5YXFpHWyscMKjLHuBfkMQGtDFxeahtupXKwBWNktW5ySpAPTRFo6uh/9RVYSULiPBoUL4Tu4OGp5pkALpBk3HbfRzVJWiDSXlkA7NQRi0G1lvlEOZc3i5+oKTJEJyj+oPdYfOZp5qVNCX1yIqMwVFrTBdMzVS+YoSZ5gL1guBeJWK9bjKX6IEDqWhjjZ+sLgDGyCHMFaBVS55RjTmpwDoUYhgaygmr9GMY/DUMp4hibNMrniU/8AYamlxD2ftFNhEwEREtp5hm1LMWP1KVoXDUr+SBAAQTj90pogFSyDQb4uUXJl2b6hetbqGBnSs8sI7gPle/F4E455l6zCjVxOpaP59UxweuO4pUHnjXllFmD7vUGtRqsy5VtQjT2Lh7iCBXogUsTlhnHvCSkl7bzthth0BLSkMEPD+4kO5cqzMcLh0EW33OsuzHR4ixtqcWUQxamIJsOEmLNMsK45QGUtKqDkE55AVd3cppdaprgF/cNMXbTKLTJErUxwFwTbCitQrkdMZaFNukYxjGPqPcMOBEZfo8CLSE4OQ6meFIXCRA4wQiV+kt7VQHphRm2CuKg4AeIySoZMZp2wwAQt8dQgb6XiLY1rqVtPuCtwFaLlwkspyQJoLv5qdLVvsSxZ0Y5xzH9qCARURgZi5c8RjWW1qJLhQUsAuYuVB1yqXgpWw5l6EvCdEW3wrmw4jV28QCB1LbVIcwxUeqMm7ujDAcw6f9F7QslTFPfpoHRMQhAHdRDSAp2S8sQhsLuIGgYuogtDEsBvAwKXJuc+DLf08TAU2TYmsRbCHcrBkg3sVYJw5AKMMAS2FpdulLisxjGMfTEHwNxybdSwc7ECnJqBlwjKKL23cHDDVoYoUUo8QDIlFtIOyYHfCEOB9i3UYjTKX0x6sc4IwLXcrhhNaMDy9xE/4QQAGg+YczCznuMy4iWHEEzJRGSUVmpSAJIJ2Xz0Q5SoI6CUUkmpRR7CsbaVdEI4dbiNJuVhUUD9/HMEzitiIgQSkl6HQEBEf/aGBliD31/ojcGowDxKQlwjpXsRx0Ww8DqUGitwuwRPYtmUUTUei1wRoCiBWUK7nOvVQrCutgQUhzECCiBALljm6KKYuNAYrUfR9VxgfDSSuEWTN1SgXS5UVZzADEENQVJWLKplBxMKaiVhnJijj5HZAbBR/wCoicGbbROSoFmKhKkl+97/AAN0s/kdRzJzCWmoq4LhYXFOqNBK6iuovBtdmdYUI3cFSCIvEzfiCcsXqjhBGwa1DZg2XhjDQWzK063mFdoVq0MLlanTEHmKfsdHg+BWvqC0LVhgtm5hAiWQ9kRU0hkhHlziMV0HcKj5JdNLmDTYZjrCkTC6BL3VanMMBEcTNNrT7SylGSQW4oYmyZJ1LgejGPofkLokQoePqGokriWxucZX2jgMhCAjM6sISErjyS15Bi3GCyi7dSiyYtDHyWaQYcsJfIw6YNB+CNMvb6zlMyJpjkspcrhYhK0DHWAGAjyLWkJa0Un6jGxLd5sszLy87lvJdBdEsCkdS/EFZvbOXBLeVdBCwCf1F38Gi4BlmnOYQtUQoOJksXWB7iVxlBLfkmSpmAG+48tOkygyNkotNyqqBiGX0IBAgFIspOFeUpvRNxom2E6iyLlDMLNVFS4xjGPuX8KyzrBKX7Zp/qCQqOLCGNWLwYvsfoqmYCvLeh+5nHdOoIF+D8QBYFK0zIJmucKlVSoZdDqBT3gIWoJAsct39ym3xKAKNB0Rawf+I0A0GGYNio3iBBFHMeHnxHADsSsjy+I5e50lvLNYmeYGGFt1QpEp13qPEUhxMZC2SGtgsIpYItZpiEm7o9M0gCtvMoMFJE0JjncQTfGoYXS9QYYhiqciUTlLYx9Ej+CtgdF9E8kt/IFJbl5dkNyCarkgMDcMZhL69DH/ABdqczOWI6ih7hZaQJkbqWj9OQET/wAZxXHXpXma1BH394AhgmiIh1GUOTxA36I4U55I6BLxH0Icq4rYbg1rFR58QjpBMRephFwxcGAK4MLCRSy/BAMuYzGEBd4gp9BH0fQJGfT+MHFTQR+1GW/wG5buVGwFfMEbPC4BRHozD1+mxA1M0u4p9we8otOkqXgUSEzAwRrMqoYWVt3CVLtZVYqCGy45i4qZrwRkHmFIvuZa5I7NIVFZjRslKsYYbFAvjtggKxZjH1aJkRlvjWiC8n8fy+AyBPDkQAoxaSAKLXJEUwIIoZ1aVKzcbMRNYjwv7jLnNpCFHVxLBgXO0WIIVyw1dQblRNFFGA9LCvehpUsqzqdEdxj6MvEGZX82FfAKahLLTxMW2XALgqGIIF1puoIP7j0NIDRKYVQvia0CRZPBDgaQ182lSCQhRW+CMdeIUF3XEGBlVS8Z6/T6MfRjH/AB70KE6EsiCsPKiqp/pIlfQgYx54pgiqOi4IjgAEBKGiZNGSHRTVEr4uNRoc0ioDB07gPU4WX6JThfJ7j6vuK/wm4I5n+3sMsDO0wyqv8AcX9EpFieTpE/3GDJ5kNSnqv7GXH1fR9GMSV/iD7n1YxjqCGyP8NZFaFmP5RjGJ/FH8ax9X0Yy/4k/gDolucS63i7siG/6EP/AK3BbGfSXh9ItEi7+TghJWvWYYLUvixjhUN8j2voxjGP+D3gK9pR8LmoGYrAKaXsh111RZ1uEhPFSRFrjZf0F0uIUcRbaH7Fx5mKTwFN5mFharKh6wFMypFdf+pRldVNP3H1fVjH5qXiWgp4Io2X2w3C/SJLajmNVCbZ/lcROPmC0P4Et0g82OQkF9G7ytsf3KD5WpyhG0B5HcGNxamGGdlbqErPMVNyu/fVmAM65LlEpGTow0NCU3YJV6UFsZIG1Uz+oSjcW3fTG79talyVq++D7WMT0r4npRytEuF7NQASuYTZjuoOj0uijm7K2xGT/sGYB9xCXMNq2SK2HQal1gy8fKHJaUJhLYzAFzthnnZ2mAdAZTAhuT/T4D+BbnBA2tXA2ywQtAI/YK2N3KlDwUSVwZ6Z+QWkJGAQxZzKLsgHuX2UCcysZhAWsl2dbWN3FA3MkXMRyuxmD1KR/Ygkii5QwgShk5wRlr68QI2LIyMVoVFD/iIquvKwovF8pVXhtWIH4LwGO2Gh7I+j6MfjJE18rHDWpNtQJpunpQgIaXsCMCyPO0SnWMjmKijiEH0GO14hFagOBGUSSlrthMFbwhMy4QgDFy8qOzFuycygE5+yMsGdqrgKqQq2qjoGcon0MrSfcwggrSfhgxYV8rHggMSSn2cAXDA2pboIyQNUcVHqooAV5MokjgbGV4jJBTfcALI1XX3D7IYSJ8YQwNiSWyMalGLikDe/0THK0mCU9S2RbJaIYixF1h5USlgUXSNbgBVgUBXWy8gl0a10dwyfrYLshUo55rAAwBZliaplWIFzqPawV2uLgtN/xX69rGPwqm//AOoMQ3LCXiArtr+sJAOYlzeuGSUCh5NQjtJnO4BWKeTEuBFnjDLs/wC3qCQVuVoFSLULi/bR4ruZygarkJYCeXNx5YQPCCo9NUQFNHNKH3EuAR2kjBwHNtoIEFGH8GmOVBwZAjMr2qUTEtw+giFlt9pCy8sQUQgUCiQ0wbv0DSoxwxjplk1mtltXjkMweQLLLT1FbvvEK+KzcghvaguCMDE4A6UZe4OsyJVpAagRawyqVVm9XU2aJyc+UpJa7WONCRjEUXxXRMwXgHSQRfGr5ZTqIL3CXxkL3MDVBXpYQpFkI+j4S4QXCKO5tzxb2Pox+DRBodvBGkWa5AtBGTtNO4oqDeSNmJB4eJcq26NVCQEpUrHHElxUtYlhNP0/TG3Jukg0mG+G4PYWrmLEzBAzNcsrrlugwy+aP2VFBsHiIJXnTKAgtpbgbqbxE+khcrolKzmM6YgfO/EcRdMsyf8A1KoliDzKaPalJouoHn5ryQuWGqv/ACG8wQX6h6hIEqHWmYa6rdwMuCa4TSA0yQoyspDNRA/CGXhp/RA0W5kaqKeBFh8RAUA5TTATat2mWVMroPcboENcAg6ksQ7ZggNsMjHhBte6igmjsXaVWql/pwx2IMAM+DGBgZBcj6gEgs7OIttoIpkArmxn2ICpUr9pT9ntY/FaW4qpntNV5w4SCjPohSizDyMxlnSMZUB/cF1FGhlc6uDDkuhyFoh+d3ZFwbWuNInuDoiMcRYpNGADto0ypgiq4VBYWXbAfUvdUU4JdBDC8MxSRbI/RNtEAGkSzHPIjboYR+ULjlCnAxEvH0xaCtlnrSHajcNQFAyxiByKeAphjDRtWvoiARQx4fMFBMEOLhj10GmDGsRMLHe3XmVNlgWnzMy3OmguANGgMNBom1MAlFhPgdeECStPZV5zKxIMPSDtnhLRtpa9PAmgLOs2cRtkDJ4uAVoUspQg8AXzCmAnVKJcBk0LG7wHgsKswCYZq8wDnDxAIFagheyynayWc6F7GGMTsJYOfSD2MYx96BLwRYBqDwQ0IMmf8gD86ViVsHqZhnAytxcoKKCK2TSgjCVC7aOSV9HoGmVG2MZFxCYSl31HzqFvLFCZLAURAAJeTpjzDNhxFc/RhuLt0iOZqGVUsM8EDtsgVHN1NrZ5I7iQFbGI1d9/qDPxhywvGh4kTI22G1qeY9Qswk5gVbtG3XQdEAmtDyYO2dwjdNlgaIfLHeyElZjH2+gRLAn6DBUugGi89QmRGjF1plAllBeCUjIJ/wCoA9dMwyS0p2E8kSn3n0NlAEf/AOyo8jsNYB7X/JXrAHVlDKc8vkmRWMJAVIGBvyQIq8RxFQKh9oZ0WYSlTMjsSyE5C5imursL0xiFKGc3KwXzAjMJw741UNEyryhTxg0exjGVD2ulQD7M2mi4OYYpRROQNJEazSg7RpXXQOJTGVoy1MDFwXEY9VFLtFKk0dY+5W705C4/jfSYzATBamFfiOaS3wuXUyA6tpYyjmBW8SjapEJI4pGWkUokh0tMVVheuIPIZLPoWp3fDAAG9fpKgGn4jbnM3g/uFMqq5iErAjUcClNsZlYU9Q+fEOKxc8KsNWrSzu+Y41TbWjeHAIGsLa2jgCFXtgipDBeK4iXOBZEuKaitkZcC6XJmIVeaceIMAUS/ESHL/sEsMP8AcOvJIPeek1TFmYn6gC24oeWXG5tRKiNsQP8AgBzcRfLccXAj8JYwOCq2pQ4WnsZdNWrVaRyzPBJUtUbqwJu4dzfIalwhqCBM2MEwsriYWw+4W44UW5XgkNCiFY8R9jH3rXohjM2xf1FTqXDGCGt5Rm5jsdljoih+9cNR7upZTSJVXGLc0yklnS2XNelaVgtRE6vhyyRU4JmH0QFkq4ahDKjviUgWM00RZOAGY9grC9VeIFhyVOljSSFopuDiBxUABsxDut48ItS1BXEqlbb/ALn4WpFGNyyzA0PUEDG2r2kZtQGFgUpXbWWPOrvTWCUAu0eUl0pYpq+GKhtifbFxhqjLFtRkNxa03JWijIeGG2wtDpygLlg3PAsQcVp9h1LKLKr66JgsTIiyVP1qJAGiromNRnBhgAV2MeH3dPBExHcR6TlYBNA3E4YJBaCSKu6CG9jfLiMgoTAbSLFnmOwAcZqRcuRVwQf78X6mWqooxJY5pQVBdsFdAbEbs2vKoAtU1yCVWSWHxAC8FV0MJrUQuwjtux7X4LbapuP8bhhlWsIeHiUhikdlxNzB5wzlpV24jgBAIBQBgTSOZbN8iUFaGFuQpeYFAAcCwaFbbJMyBcPknXgULn02HKLa2RgxdDCQ24fMwcoNt3fUSTgWtqOFBiscRFxUS1FQlzhefeJiKDHDyYw1WX6t44JRt6CdEKHen0QOQrTMNwWxtc2JzGIQJnupbYN1+5t8lISDza2bQ0x2lyv7hR4rCOQ4cbijZYajhgZ/eNdS1TBtvLhq6opFVY+aou/ogORaJKU84DMJwJZ40VeRnB9HtHx6DhBmbrHMXZBGvNu6jk3Dd9mVqHbUMLc56lSWhtKc9ob3lpQW63YWD+a6WIDSqVWBH2rZTwCKAVbVgZ/2/gYT6yPGNx8hSrNwDdqDn+5ijDeYyerUCO/o+19K91I9mE2UYkXvQHEogK23cz5+Js2cQzUgywhLdFtlojLK2bziZcdLTLwOJaLO4cCKurdQ0hVu0eM9EvreeKKGBbEJQCrTNfUA0wKZEwwrf5RHXQoLTzB8U7tMBrt5spXECqt5Ei9ZmG8zZQ0OlPcQA2AP+mIu9t5YsY1+mXLNdLUuuYK7s2y0fTZlPTQoxBLJlZWX0VRBay26VFxaVniAGLu20yAUnPUtagcspwLmGDHajcwmBh1HHrQLgUSnAaMIQuBtUAVnY1TAESrk9xnxw/rmHxK6gueEr7zH3N1M58bhOmEtpjPjhYNK+ZWsZLpCHIU+8yxpo4tK7SRU53xKf1B0Uh6Gt7ZYwghw0MvoUl0kc76wcp5qOCiiyRcpye4ktFKGGUISE61BmtwVWAI3Swgr6sfVjE99HAgsMREL/wCkhG1c3qItioQOYkYGHTB6ByXUtbk1K9qeoJZWO0ipSXeZbobCnpglZS3xwEu7svEEeDOSX9DwN5jegRA5yzCxoGzHXrBS+pdwKqEXXbWMx1poLGjEJfw7IkLBsKzKG5S0xfIH2Ljv2v2lZHLLW9ixQjNRqWVaz2PEYmGuZHcumZC8SuxcIj+y9E80mzRUY4LNC7YujWBUwUG4GJZSkMxwgcWWW55jCrQQWjKl3iXQFdKchBgqH6RiFS8aYgnCVVz64DhPEVABS/AmRs5hZDi4rtpjrtJvVdx37SMLTEXCDBZanJ56VnDKOEWc7R1ueKmY8Lf1McitMagKcha0TT7vItBNaLKcMDm4uMIUNvi0al7dslFj2tssC7V+YCNoyvKmKiWiB25/6TKVtBOHcp+t7k951i3+xLC04KP+WzdpipUaIgLuwtUCwiLBwkMhVUAYqItU3GthLIuuYjoigFS+CS4qDZIKNoSwaW6zLNWKhiEMnnmJBIGFeZaQhC2hn0rBo/cajT1cTVC9qaJSoYDpjAJOO2EttFLILAXwVmXLuvChHfsIyC/9hliBaBJTpstmrlxUufpDPGAhYdy2lsA7TuOebX0j0Exrgh0ypBawNwbGLETcwy1xUoLK5RBaaRDAKtphuo3u6hsRTlOpTNOha8sfRr4VhVbgLcXM3GjxKGtiOSVkqNK2MoIxEZYt+CYVhl7schw8IOAGZ3Ud+03LydIlfgrZWJUPwZJ5CXWIrGDpTLCTe4K9wgzZVD3EFfSuBmE3C6vdRKsGceY1eqRMOcelOEiBNkXVEHkRq5Fw6t3ihBwa6q3CLBSIGyABV4lQ6Hufaenk4SINQNK3eZ4QSSuXywDykbyfcaHtYoUbUdxNYghKqO8AT/ctmigm6xmCBmW2lxbLOm7zHBPQkASWayf7dRSqhy0RlSWxLdZDTA3IWw2SBu8HcJDfljeUGnCVCQ8LyTL48uRlbBuULl6DQBx2vtFfSf0mS8EIcMgAwXzL2JP7oqgcU3MoJxe2UlVQDkMrIDumSZHvTipqYOKxGiA1cvCtZcFmBlh4nGHtjaLo2wIJnUMNWAuZHr74Y30GNJQia5WWHg3GbGj0QushUqVzUuG1bq8uXmUxnIOCBq67A6sy8LhfCruPtInRWwFrBZhg6U5gqFKv0JioVdN+JflOoZqaq3vOgIrNCDyEoChYiStaNI2QOZBmm6Qi4YK+ECxq1p0x1wKMoL7XbdWwy1QtlxCmBz3cPFtmLT3yIxxdNWQUPa/AbUUwhZ+wkzaDUUzWOXS1Hp4yRllKxBVbbmD4Gkhh+RDpXmZcZDTUEcDC4UtSPIQBAUK1ZtWD0bLBDjA4DZEvKqJrxHPLZHCwynAKxcG1cWgwRfoy7TP2jy6wsqsUrVRBzAaPXm2QUei1KqkN1hPbX2yiBAoAf3Bq1MyhqIUI1aOrgrJoeFm7zDgys3F8VK5KCFG03MgycwjhnCwBiJcb7YCcFpRUAXZAhSyzNVgQgbSqq/6iWjXOyZEuEQgAVONQmdzIzTzbgaZS3d1nOe43OzVLFIzdYqVZSHcviZXho2Me8LNCaxdDQRHMKqbfGQbRk7TAiWOGXEZKBDoL1Cyb6bSMaIIQzZKngtTNweCvKCLAdHGo73RKpl+Klq5vmNLQOFIeRJtWFgCmkmqiYHPiAARZ8vcH4HUULTv7jensRIqKIvCPH/nYKiOCPEUA2rrVx9xh1a5I6mK7Gqj+FqzgYBI4wqwd6WUxsiBR/S6igNdDuV/oMDqVKbK31coSDARkQlOY4Wnhd1CUqeSyiBhzi+SL7pMN7Zfx3yJDNkAxmFxSCPr2vX5P7GCnpjlIAYvxLgKLC5ghZcTEVQvE+Iah8BA5l6RnpF21o6cXMMLqsxAaEKmxu7FFAgY6FeSKEG2ioIOZ1AsswwXlWG11Mi0H+4pws5NwIAKXtsl/bNVj+5aIyujiIVyQdI2oMo2IEvlKjDOXD305Xn2qJjilC6Ra85GcyP2l1BBMEsXGXi4WwwcKEP0MajSlW6PbG/Fo9wJYWjMaU3u+KlAst7vbA4tzK4gCSkKVxWGNgFWe2IvbQwdTJl+qpPY/BfqwKvRK5Yg2MfEoBqJAa+LyjWlIQY9sf7tUQBYtCNOo4voO2SBaC7XokUQroUDwTEoD25mEaKuWLAKVXtvQTOiq/s9R9pB9lQxKiJhUXY8bgV9w12l7W1kLh7dZscNwL/EcLyxwjG9KDGPW0+0Wfc1RWDImITbjmJvBiUKmeUoAQPyhAQ5EGAJzxMqoaLI3QGBrWKTxw8jolIGjMTQyVxUVoHyidqDeBCLhS6HyrUoQIZWAxi0JcvDjIMADvXDLsUwNjo1C7pBdBdRmGoIfvkPBzCBmK9tZctZBrggUktxSElvT0QbKjnBaOMROwwS2S2H5AV4OQJQSN2CzpmWk+QI59pDZniyRf/1RAgixTEYl2SgrQz5IQI0Cy4GoWD1ra4XXxnXXkkyQtTbMYNHfTKFbzzGqA1siVNejbAzmrqCY6Ao+WU1nFH7dQi7kqXslEEK1i4PHkiyFwOQ3VzHReWGu2YDgL7HMOk2nShJpnlQwp7JpctSXkDTC2GiqWKgCza2KDjmQWqmMixcBwitOy/aCHA/owmjMQEvllQbQZShpzmYfwxrxnZHgHRhFbTE3ZjHlRc3UuffsCCW1jCKAc3M8mOM22jHEG8n/AJDoSnMuVCsJD02FogGWUuZUrGnkrU1o25gT9Q5IK9sQG8QqLEYxyYmwV4Xkt0+9OmZGRuM7Rei9sqoLiCA72uoKSGkDb2Q54BiUBeGLbI/9Q0YTmZTuokGDV8XBzqYodtBRHoW0TBAs3Au5yVyRsneO01yjOPEP0qx9QuHZD4/EQ/slgoK0MY7jETSZhWqQ3jSDGX0YfZMr6jcBDsa7otyhsKPpLdlpC9dYlGeCw5qdMEGIoFaO6iQwouwuHwJ/+OKmy1FeookYUYjMXxmU3kF2N6hw5kLrfMSTQPFcDiFGgLJ5FJVN3PAw9oMRKPRun7IpH1SkEUENSoqiDRFRTvxKi02vgS9rcsxw0KUE8IFZUOTuYpFOkE+FY0JDEvFZlVILAOmPm8NtSsiD6rFixVuqth3Lq2auL8SgDsR4YE7n9k3sZCGp88w0CCt5V8SoEDAMKnDvA/XvRs+cBVcy1YAX0TA3C04WX/YpYyIuPWz5XlmMBfFJQrCx2uBw2cNHm1iGDBNotMvljBTiEAjaqkS5VBR1FnnbIXFkI5RT59kq3RmJUEpJhy21GLTiXDFMAQRPUcHsTmH0oFvQ9ygx5iKCWBTjXEajA1pjzEAKNBykEUKwOCXov/CAdQ2JeGIVSXEAhch39qk5lKvZLBHpQsj27i4sxWIimqmqOivaTRx1/uNRYQqm2Utey2LrOiwsYOS9sFFG9xrUBIllumKZtVjgY6zwlCMM6ZRtoKo4hlMBdiB3lYwaKHSEaFrY7iXAxdqbNaqIuGqTTMeAbVUt2WoExotMTolK2vc1cuWjr4QYlZ6IrUtv7veFWWXmUbNLGdKeYErOKRRB6wfhPTC0XUK6if2jAWLo5IiewWYOokdco3YkQ1BNcEADLUZeNvaXmilo/ibCZ9gdA7ZQT59GC2CL4otUFIAuWHfpBqFyzAkQDqsrx1SLL1HYizaNppl2qQwcRllHiNOw6zHMC1oRPETFkYLz2iqhJdoF8sQSBMtpiD243GaIOSquBqqPuoPvUXJqIuAzP9RnKXUI2/SLQnAcELm1Ir1SiMtZdusOIA2epYZWNZj7OAfemUiyM0w9iFwmywalXeIWyYKvCnn6ZR8wU9eGPGTui2SlwaxEKC0GMVjy4llKHPUxEKBp0s8YD3kgXbH2St7Vo6qFYfcwkuJ4thLZCxwgWKl9GNEW15RAQMBYSP8AMNMDYjEbdrDNcRDEQW+QzMGtByEct3mDqVbTrcQ8hllBooa+djUWKr+oCmTz1UasK5wB4lnMxdprmoV1BOjq4Es2Xll4Sum966IvRC5O5TFo2JTgo4qoDK7nkhZ5FmMQ8ocCjUJUlttfUv8Ayq3pHN6kMCljsP8A1IlUmOG+iLNBetxByD0or3jVLtr7jQAf0wSjIhYos0RB5WRCwKn6dkwjdQxJRReWHHzVKQWlW74hXZmBLtnbLhYRX9TcsygNx4tTIJ1xM6kiyNwTUNaYh5SlpmMCXf3Ayo0TH8NKiYoXhYovIuUigyniH33twP7ISJmBAaxaUwm4IypxhPshbIaPaXHFReYdgiyyGPgcwo5etiNIZMsLi2txf3Bh6TG2oqWrNjmplHcFmAOt0ONPplW1Rq/gh9zF256gHBAOyEQqwLMvAacAajlIUgaZZVLcxW61XksfbK7sZLhLIilgFuOkGA4JjgMQc3oYZiLhcLsBRTQTM/Qf+C4ogHBE67YqFI57Na5YPmB1EEMCB9fBqMNIZg1c8xWiKDQwyS+FeiPRSG/EpEmfyRd7hdwgBmwScqIOn1HTczauM28DKW4JmLspKjWiziwgsfU2M0yxoijsi6y9OkHgsrtVkuR4NAgIci+FxaBce5Sp9vwOhLKNqV90MQCoodQWBoF/cZbsUmqvhGKy/wDpDAI3ObOmF1hyeGDDMWumCAZVUxcwcho0I9h+6Jv9UijCIcEziVFC0L8ECvulCLBIdvrMoqlouabLlbaHjMOXqpWiBAat2IqI2Ww/7K4gSElOkKL4bUoKjGhmrpS2BtcrcL4jKrpfqDFcwQImhoaSOq3vlb3DFuY+O3woIk2mNoN0x/7EbbAoXLZIAn27jPCMCLDYFrBDawu7TiUYaCN5Mk8zpQjVc5o4IISqFdJguV0TDa2i6PqLsED7DhgAVJBdMuoYCXzgFPgMPjgNOIhQdwcRZDOhOY2TCm+ra7fR9xEHwrctcoN0A+2ZBdMGoEeqxd9kbSJWeUbKLDNx3NC4WfgzUTry4YQl4SISgFfFgBKEF4LKU6604uENTs4hnXSNtmB+CRUSnwOMCqWXELuoq12h1ILRFhShRYdpeZdG3eDZcXMCHM46lAOKlqvLMTknDLF1YppHA1Z4MSirjN4LjpAGolA1r+pa0MQ30Et1xZc+MBMAoDgPi8GDoPplovNwo3GS2KRlA1ZCgqxiEVSjSMRUwoOJdDa9uYduITExLShRI5q2Ha8g7YYg5nqoA0U+QIRelwRTZxNg1Wo2Sj9/tVEQtHbsjbJLBLFl6k+9v4F6kJrhVuYnMYADXfFS07oH2IWUXMqW4ZGR0RWwFQHepf2IqiS++L0CyH3jgQlNAWLqaOgF8XzMDscpsph8fhaR+LgFKikYxmb2FEhsiBZDisUcfcC3wlEbvCUkq23FYUumpaupdQoXjG5RyFlmHdZm/MZVsXRDlAp7COEihgImFSlVVHmv9xyflYCUxjhNfhNZdvr0ple2IqNQ4YiaZmmQf6llGV0EUrH+xHzKUwbUu/7j31qLBCinXmBbJaPMxBonLFPmm4KRQC9iQJdFBbDVQy//AA+RKy9gs4/9KLD9yqF1WCgN0S6/ZtlmU+ENiVZBahLWmhfMyvWSYhbFArLCLbhcs3DCX8DRZyTX5cvLAD8JlwK0/aOVPNESaYE7Jz5RKTdGkgHAwD/rAAYUupXmp3My/shdwViE0R9IgQ83KMabkhEC9W1bDiSm+My6CoYTQAnZbiEFtmzlwfgILvElRj0/VHDE5qWtnTOvLDxxksgFQIu1m/DIitmsFXA1DVEiGGCmM9MMiu+Ktd0xxk2//iiepe3aGD1I/JUpEJg7ElpfNuMtgCuUwP8A+7KanNZKPgpAflIwgIxlKCXi0rOq1OY2lbawQV8g/tYhuyjTojmAhzGIb0JU3euoe6qrWGV4NOB6iq6qYlk0DlRQ40G1HcKuri1EKJG6AWqyqSjCS38yewsW4sik8+pCkxdDENcDSsEITNtMILG9MXVmL6i1N0s05Zxlu902MEpmizDiFng46XZB7fL0PohIAA+dfYfOPypZKm1l7Dqb9xQds0i6nIO0I58iweZcKG2LOHc8ysEM1HitcVQt2wqlvVkCkKomA8xC4rhB5l04qf3lFMGCZStaPq+vxkIIxqatwmZQfuBgix2QnQUAgyFGMj/cFMzvJhEAAwH4OkL/AIAxmW5qYxQIb3TcKWIFOSWXA14ZQhCTNzB7+kLcEmqa5ijhtJzArfRttxsI2sBK4MhuoUrsBRwRrS3P5dUoh/LCSjSsf1VeFtY8DCIwkpZF1WYk7C1gQYquS9svMGDDXpuvQYMpk9Xg/IGd8h6n81Qzckvf64Zv/rgjf7+qYnj9+RNUHASUyay7fyaW5p+AfKfwtEqV+af5ug0b5Ifh4/wioRg0xGhl/wCLPrYwa4hqQi5LIM8r5l2p5/xd9C3tMEMRWh0dhlddUwRiDTCAKYQahWP+CH4T6Gg0XcC95VhQ8S6gl1Ws1NnzMKsiFv8AGkSv4hYVrSUJl2sSsb1xN15ilHq4kk2Q3XRwy5io3ZBC6V9z8c+dQMoTnxE8+ljNRnRYR/iGCO5VszCUGyCwngrUHNKKjqyU5Lzn6YNVjZN8RRroif2hMIN7/gVpg5YJkpzKwV39ETCCVOMxICY6ZdEzr6CGN0hZHwMMk2RPx7h85lhGYRYCGXDAUFRqXFMMfjy+yUShP7JSWtQ3F21G0hTqR/M/2JX8Ay1Fay03wJFwUnnnG8ViGo2UEFvq8ypu5jcjcS9N1G3TF0y5oJcI3kyRIn44/MwmtIy0VhIdSoF8EgQjUreBJ7rgtYYbHiOQ3aE+ojDL8Qv8AiG0Garu4u8VChGrqEiLag0AWBhUBAuiq24l5bzgIzwKoqZ8ihunBINkH8Ky3XkVHcu5YKcJK6GALd+g4wzkZdE8hER+GRCRqrkW3BP5h6vt0fczCs9MqpGwFGiOTCxVDJUETpk9EpKM73QpbXLEX+ghDFzUyIMJw4S/xSAqoOYaio54jBQEEIoW+8To20nI/IxgXfJYYXWFtmBGRlKTPH3ByO8xWnKT0cFKzOZudR8At0xezhbzXMZ/sfR/PwuIc601Q2kVXMLDmlOAJK1VsKHvMFOO59CAhFU7ZhhKxLkPEEaILjNu0H2QA8n4aoUBljuAl+6jrAqJwBtEhAyoUlxv77Pl5lKN6RirgTEQzpg5DARANAfsjF9BLDHDAp4ZXQYGMJY4QtIMHC/UZYgmn81ZaUseXYxTjhBKKxGAAM7ZenDNy6VWIgq7csIrBA8xslT0gIwVAKxNEJfZlYbSqpQ88x/CNC3zGycB8kIUUJn5gDwk+2nEArLlKAaS/jYHcDDzckFAM+Ihc5i49alcKkcL8sCVMTKBZADjVDFiAFhNMvAJkj+bFQlUP0RqDLl1aC48UxPDCQWyLtjhOWliFxvhDlaSFKOriUIgCwOGYQtqUS0pgsBRoyxBNP4KuS6qMhKp9y4vLAZyNlYGWM3mS1zCoqwQTHLcRl/xPYw9zCfe8elDTAyQXURTDJBU3O4IrtlCh5wzUgMdTo1GLP0hCmLLhTxbhotDX7PzVpOs+5QxKBMtLdRgCo5AZUDCxpaQgW9CKg9hYzHowcTIBrmEvyCFAZYI2YSoMmIQt8sO15ZiEG71+AEe9co3JbFwbWao9FxgIyrJmJbfPJ4l65KWJqD617mMrpjFi2C6KmZmXCZU4gvOBCrzMKlKLVE4gxqnCbIFa1EVDlNUbVxzLCfy9SzMshlTC3d02xTDlFpSSqlgwEP1GCcJiFumBTlDSTGgdQS1PDEAVVh0ENQyR0FmSiodaNxRf2EFsMGvwKJauIOsOcqRIm1KgSAQlyJjsgBcLLl4782QeI/oYWmP7iKw9nxcwF21iCTxBdAqs3ERb2sYMWGIABLEjMWUIzJDdUxTJmGhbrmX5YjFVGJdLKv6P5dINKJKxCYh0ReslC4HytJgoBQ4lLClLFZyXhXDFGVeWJsbKxVoLrKZi9y44QjlqE9LsjeMTEMrgxIQUmAA0l/ObcJIJsG5JkVTt03BTGoROjqiMtAJFSlRdKeEKjG8D9SzcRD6H4WAhwXAPe4AuaxAgDZGvALGBttXLFu1MeSotaqjUcYMzHieJRJYwnBXUYLciPUYfKDbfl0e4DAi5WoY7krFwVwOkNhdi5Y0y76lmQpiGwC9okwEgJebjpRKYg1nkJYpvg9SseSXYZVzK9Su+SG5CLMvXOb5gcNYIoVOM3HhUulyhgFr5GA81kiZxiUC9pMli2EpThSrloGSh4JlI/pGvhYPmZH8CCxByEAJzC7huo5b+k/tpdURUUsyG4wOzuBY1yMWyjiRzJi7YCyGAcwvyfBwQDWwJlWAXcSGWCP2gi7ZBKnsMr5jMotsHC4lt8sR/O0XsuxGgZK5jn29Q2YziMY6THpt1Cqy4RjYhcqtA0kfkIutgfaZuN6kUepw7jey8fNuXuZLHwQ1XGFzbDIwRXiMmwGSN1Sg/wBdSo4EyxAaS/gZt8PSGAlIcwuK7hcSTK4E5eY7CStHaWTiqxKcjcwhtRfZwwXDbuUJXDOc4GIU3C4OPs/JN7QLO1FCDpOMkqVgihVIxCERVRjd7bjZ/tg2f1BQmyGelFH1CrllZ6gqLB3A5UhAkcuTEWoeqVdkC394pRTikm04y6dh7j3Ha0lD7YO7kuUDm6mGL2AaH/Y0WF0eklyMEMPcUMNiYsXNDBg5qNDDcTLiyBa6mUOmHfdH9fAypGk5NTIHxL8OyEAb5yQawhrZUJeVcNM3SOg+pz4LP6lREZa2IdXiAO5+98TBlSzQ4Ce2vw+3bh+5eY2sVgVTLVYZafmOmmJbv9EFPEcLc/pQisDkZXmo5YI3XS5yWeYgE5gVVeEXTw1LfJFQaJxqAUPBDD5PuPaFpCe2FRy7SP8ApEqXeEXaqv8Al1Frox5ICV6xRq43LWZip4Zmk2TF/mLiYBKHMNwAoSzXNH4OZXbEOupUEtKtWMqfbJcCLqYlhpmPkuyXXBZ/eMYGz6eSCw01FjqFll12ihOn0wOpnESjpo3K/Ewzblr9fkUrsCOAMNfqEWwTmFEDS2ISpJcBqiMr3iETNkGQpWKIzTqcSNzQsOvNDQalUqKxHtsw++CkJTZs0mgFYSnu3XxuFpCvtH2kVlrFQATrDTqGXKwwjwhb9x8rLzG3LlgLOFGvMxpZt1LkOSdkfGAAXMSvqph9572eABYi/MNLmIPhKLNDGRIStfuAQbms2Y3wwbSibrwhAjQ/1EGsTSIBlYwACFnMTVrbdSvgBSCOIhL+B/Y/IbxRf2YZRCVCooxklhACzNBQ0SvFtaJ0puWgbjpzEqyczFOA3GWzhO1HNy82y5fhyO5mgUNv1KHQI7NjplaGFDGyuwS9Xi/jcGMc/bCNzRb9Qo6Y2WeslhYAGdwYxpWIIFw4Dhq42DoOSHINgvzD10eI3sSk3+oqK0tQIc8vqAA0B9zPuqTLUFp6ckAy7j1rFQNjzKOQPIl0gxUefcMdIJbBgeyVV2MkGcV3HamF3wAnD0wwCJM+VB5BL5oZogQO5BA0D+MuJajCEEV2NMRYARnKKyAKjXipZxhqNgquSZ5GWDi+BzBFEwLvMNUvmJyM8EtSXiM0iPm1HhoOSYBrKusEZLb2+SNtgNwHGofFr2achiwuA8jGKy6Vf+IrdJm/DqLvl6vuCAWG5aUpg8xYmKodJiMxpGqtrHcY3cb2ZEMK3B5gUTlsjJBqPiGJ4PuZ1tY325QuwiSnEC0UjM+xYDQ8zRUFb6iEKlwbafTLgqawwVes3Kety8B6iYOxbMMlM3CUfccB23spSATlWol5zR+vxhY4LiAChqVfavhMqHkS/epaw5tYwCq1lDARgKFgVy5mBtDcRiKWABy0h/8ABLy5aholWQIGklqhuCZe2X+Y3LIASii/92O34aB8pcEJgIQl7XD0wT8V1+nMt4rLpBe3AIywf/KDuo4fqYi7/VZlSzFB83CHcBMQ0cRRZyOIWLmV/wBbgvfvnPiUVdrKZAmAELYJ2GYENnEpQNqOCiOdmbiBaj6juMixrTAsFSvpHbYtiw7fB+cmYsbnRIQQN/8Aq4hlGEzwIv2fjZZ5hKrsVY6uHtLBZcENwxzmwpMZYGzoSuJc5BCnBVS6L7uEShYLjg3LVolLBaMYrIy5dsPfUXCQFi5AvfQTBpFXYjPIQ+DXeqwkRsoR6M0p3BWqt/yWQlU8dwH9CPaELv6o2RkNrAPLtgGjDP3MrZMDFTTNeYpLlje42Z8MeHImDojHdWBOP/z96EwKHyI5zd7ICB+yMhwMxSUwFeZW/MWqjOECBxLBxLQgNOGIbOZZ3TAiTRDCvsVNcMJ9WZ6Ryj1gJ+LgjkiVIZW2PcjEFqMVYCPMLUGKXdVfQnkoIczl7BSZUnDFkusxLWi5bApmQqRkiLSpSLFuWLi7tKC3NzEOXEsK4uQtqp+rHwFdm9glVgwslh3di0FtvaopOixR1GlYvobgT27R6d5aNjiMFJV+UdlO4Htshsm2ZTCIy7hpjM4myR7zkloOGnuckIPmYoQusmpe7HEwEeCCM6jnoYIWpDZohhdywULJTCYIDHFrmxyYzKWhkjqAFQ2MwyUf6McAVm5c+y34tI3lY6gyzeowCO4NtLhcIYAyl2lln/lINKHBA0qKRli/CzuLAwo39wgUp5OW5lEp1XkjrAFdIYxxuWbR7I9kMS6JYOZSmAl63Dln0T3qB0BbMZ4cQg9jSBm4q/3AUIq/aVealwCZGfs4jVva4PXhSCS5SBVUdMVBV4th+Iir0ydwygUS8RrPRBxXxiO5hbgE8j2+GEzbYsijMAfuC51QMbZiXA4cxqqogwgyIHgiwJK2kRmYTMPECxJGi8XiWIaZUjTEtje6h8UmZ5x/sPwT1dS3owNKVcAnW1j6UsKhDN9xS8SrmKF9EuYsxaUCdZZVOUGuG4gqaGMJQpu8QaqNSnAWX7TWfMKISskW4BVxNp37wY4EeXuA9iQIrN+RjLRU58BxGoECqHLFhKmvGXXqvUx9ZW2IQp68R7g9XJABHVo1BWKtTHpG5e8yoVEUnSgfqEQ7HsfSi841HC5f9Zdw5llYuIooikSy1i0uodzQO5WCkSJkFu4YHapjOs1MBKlgwW3cropalGjiCRyOmMJsGaXgfw9IadMFMmgH7jYrtl+R9stiK4LuEw4j+zAxcXOEtcsrrKUpUJW64hTacTk2uBv2y+ICsjpmqkeIEUWzc/uG52w6LAl2/dJpOEPTA8KOIKXPMIEW8IjdEj5hQcjKf8gTRp4dzcFsb+1PqIQMC/OkCmoZ5MC+OY0CwWy0lSzVCi2cQ5PJmSOX+/Yy6dwql7UQxAXDAXMolAqqgCpSrJx9SmpwKmK5JyZjEgCUcK/JDSBeA1+4wK2iARjMEerMgxxRauUPNGBiVGbEcwnXJb8SL4sqhlbtQcRioV1XGarAi3rOo/q9RlLxM++sRuLE+AR0sxB70wAdFVOjt5hBUwpjlgRwFQnEAs+JU9wXRAOBpRKO/dJR2V9yxuUCRsHmUcmkagnSCEYYYgpo/qmLuyUVKVKZYOEpqJYzcALtaNxjK0DUMbjzdQEtYVKLLeEgMdyXJeB9jKK27gwXQluHhGXj4phpDTTw1DImbLgosoOpGYuUOUV4rcdOKnkBuBlYPQaCKezc+S5gRcb4jtatMFM6goF44mYHiGZJpl1cJhx+GbJX9KBQkCDaabiz78R2HJllI4Bh2ylj8CZmHFzEpULYxBK1eF0TK5zUla3wJVSWIVK5AORBdRmhm4WmFMEG9RWXXu+dNf6n2hLhDBjBKsJYf1HNpBSg3nduRolcAMGmNSwrcGlpYGWU7O5RlYun+0C45RS8pQaEJakGV2h5hMma/uXEV2CL277GU7OasBrTq+YiKjt5YCKjsuJJiB7iQvJHXQlACE5OQjdmAf1D6myH/XlpgAtoPJL95UdnqoCWyQRuJzKzFxZBBD0LPwtGN+0l2CJU2lS2biilsY2M4SLDhCA2RAq+JWdjhG6Rm3EI/MSJqpmhzCN0gS0jx+oY0K2y9VDmACssj7OjFWm7mbxv7z3MG4pqdI4iQlilmRETKNSsOJPl5i6DJQZWCrQLDxF1aiiU8bjS2IFjkSxEwh4xLIFWxDRThC8cgIww1DOZSgS4WwxtjaowNrlexmN1EDl0y/Fla+oAOvVvFwWeg09kEMUC+EgvK6j3loINATA3+x9i40BAVpVBQG4GOsAhQHU4Oxg3qXOEZ6h3GUtot+vwtky+wmI4qU5CF0cqJkDCuow8EpoXrgwWYtN5WcRMQfALhIXBKOKpmWDNLhbCJY2NHbCxDFHMJKtjljYusRFOKGvsPbYCugl2yF3NVyFJj+fMCq+jGFcaHRM0NXZGLkaRILxzGsswMEu4QTcCOcSuKcXEbS3PiXgNAmHMXqErBrE07uhDSGDVxmjQPYzCzMIbaAIkJ/8AYoeNrWC88SyviFbsVm4AGpXlnAgWrvVJqDDrz+pYNRAuty7CMA7g2eYFg+cwKXymS43joxPmANvOScjQH4W6VfeStd6IBZlspzaCZlFSiJ2Uy2VxKF3KV2jPOO4WQ4Z56VGuraXLE8GZV6RzTCVsCXS8ysnnmIZLIHEqHv2vCkm2WaJVlbXS0K7AIRxzc+3UWZlWYSFVXhhYNn6l+rQRLcwRdiXTeyKr9EEUdcTKXijxHGd0xxcY5xyTDGMm9xChEFTrMs05R8w169QUYSKHhR24W5izL1MU07guApi420LuaFB33ANxF28TgkhrKhAJRp2RtGOIbIIs5ChlZyksSEW3PCN6tnEOp5lCCaQQPuVEDcARyQ0fhGPORnfCoORmXD4gXTJKkXdwSAVeZSBsioXbGYspSupnCZshRrhlphi4FCzpiBzq5TtCvAo8QDYaYgDlge1gJmRPILQpHGdwrDeR4RjNqTgy2bML6kMnmV1KZMsRd2YqZ2YikHLByFnMfQWyvCJfNE7IoIcjo/8AYRbV27qMALyCI8i4ioy4JcDXsPkjQGVgKpKYIndzEXEyMFjuK3uagixdxA1WibgYefImSDBUIsl2Qr8LYZpYXCpKElYQ5ShIxxxDbOUX7S4UhCgmqisovDDmn4OyVDiBY7eohKuoS2LC62wVT6URMQRdVmNN8Ql9MrnVMRLGhrJFRGyKKmjeJ0jczoiXSiUGsrdoGsSne3QuHCTOcsviOOTlQTRrh1L5AbCLW9m+ipVjgX2y1IxfvqYIKBqARtaSArG6YjthNTNl5GpYcBxEFepWnOwPMcxINtZTCI0R4XLZjaq+JQGSIj2bEZYInZQSGFSrMIHYdCGAzESh0IuuOIKhgzQJMry3OmoRcXqF6XuAtkhyIK3cQC42zGuBuXcWsp78kNfg7IeTAzAo5MVeclEUjKJV5I3bTMoMxbU8JZwdwBFQaRskRvLA2vEVo6i1kDhRKNFQblUdXEPRCqZn8KnZ5HtYRpkza+ORFhcGo8UpkTmEO6DpJQ2V6G48TfUUFzKSuSI3Cl03LnGBD9wwW5RywFl+FlgdEEFcXxEtAXT6gGZboIBxysD2bECi0NoRXbTpmaC2K5i23L3xLsCahAhzG8hxNe1FKXiyMWGIWSZlEgX5LiY1MewOPEFBGyMUGKFixMXzmDlPLKH4WkYbdohJd8xnbL5MOzIUgfTRcKXDoCFcc1RCeao/F0rEF+41Ixc7vNBLNwVT3ADQVOBAuHERi4lBzEyu1gwUe4RKy3HmQlbf0MDi5z7QV7aookAr3yjDGuXMFjYBtxFpm5eFJ/RLIGqQ3FvMDQErhijM4PiGtvQPctF4cwHKpUA4uTSt7sjnic9gHCE2pdwVRTEgpzPNzEWyQBgu5eRz5uZmTMG5RQ63EQnY8wEEfB1IWEAbFD4pOhkA4hkoPwzBWGMlBoBAPEDnHtSphQwUpQmlTDvcyThFdGILpyMUJmsmCzCUulgpjdMbA8BiCh6l5TuFGu2VMcPAhqj4BYGNX9kbpdseoJLCh+yGmz1c86FJKe5CDuGAWu2YRgKNQavu4mxhob1MMpJVNgeWNKa2IiIo5cwveG+Ogy2627wYjOcTiV/Ucyf0SmD/AFsKRl1hilr+udUTxHiT9UokbZD7gKFFEMEWkL9zHA+iF1B0QgEgB+LYRrkbUyIksxSFbYrE35mPcSLEcXUuwcsaHKuZ4TeYiCnzB4ZqUaMCeggZHll3aLUNW2uYSLf6IIAHUE+JCQmLB49HiTlwruFVAHeGXf1R6ZjgqJxE3HBIPMJp/WTJn7wAJhOIRAkPgHhH7Eef+ieH/UOP+iHCYX6mbMHRDqgTiFWoHqB9Kko/KF4mDBIGtnsifDNTTu0xdRuOChlIThLUm+Ys0DNDkjIVngh74K5VS14IWBeUgnEAgB8iXDeIbxEbM/8A4ED/APFBcQYHqCYD5qJRKJRKJUA/g0PooeJoVhtKjhuTBJOKvDgogt3i+IaTfRPFAIA/BYkpKQIfl3+Df4NImV6lYGUgJWAP5G/8duXL94p/ity/S/8AGr9t/wCMMv2n/wDmz+R//9k=;" vertex="1" parent="1">
          <mxGeometry x="-1587" y="398.44" width="117" height="250.6" as="geometry" />
        </mxCell>
      </root>
    </mxGraphModel>
  </diagram>
  <diagram id="obc3IexP21foT_evOGwW" name="PÃ¡gina-2">
    <mxGraphModel dx="747" dy="270" grid="1" gridSize="10" guides="1" tooltips="1" connect="1" arrows="1" fold="1" page="1" pageScale="1" pageWidth="827" pageHeight="1169" math="0" shadow="0">
      <root>
        <mxCell id="0" />
        <mxCell id="1" parent="0" />
        <mxCell id="JTSmCUfpJjV2vMRDcCEA-8" value="" style="group" vertex="1" connectable="0" parent="1">
          <mxGeometry x="230" y="90" width="230" height="160" as="geometry" />
        </mxCell>
        <mxCell id="JTSmCUfpJjV2vMRDcCEA-9" style="edgeStyle=orthogonalEdgeStyle;rounded=0;orthogonalLoop=1;jettySize=auto;html=1;exitX=0.75;exitY=1;exitDx=0;exitDy=0;" edge="1" parent="JTSmCUfpJjV2vMRDcCEA-8" source="JTSmCUfpJjV2vMRDcCEA-1">
          <mxGeometry relative="1" as="geometry">
            <mxPoint x="196.33333333333348" y="120" as="targetPoint" />
          </mxGeometry>
        </mxCell>
        <mxCell id="JTSmCUfpJjV2vMRDcCEA-1" value="" style="shape=image;html=1;verticalAlign=top;verticalLabelPosition=bottom;labelBackgroundColor=#ffffff;imageAspect=0;aspect=fixed;image=https://cdn1.iconfinder.com/data/icons/bootstrap-vol-3/16/filetype-csv-128.png" vertex="1" parent="JTSmCUfpJjV2vMRDcCEA-8">
          <mxGeometry x="141.8831168831169" y="38.39999999999999" width="72.37333333333333" height="72.37333333333333" as="geometry" />
        </mxCell>
        <mxCell id="JTSmCUfpJjV2vMRDcCEA-2" value="" style="html=1;shadow=0;dashed=0;align=center;verticalAlign=middle;shape=mxgraph.arrows2.jumpInArrow;dy=7.62;dx=36.68;arrowHead=55;rotation=45;" vertex="1" parent="JTSmCUfpJjV2vMRDcCEA-8">
          <mxGeometry x="79.84" y="18.83" width="64.67" height="63.2" as="geometry" />
        </mxCell>
        <mxCell id="JTSmCUfpJjV2vMRDcCEA-3" value="&lt;b&gt;pXRF elemental data (features)&lt;/b&gt;" style="text;html=1;align=center;verticalAlign=middle;resizable=0;points=[];autosize=1;strokeColor=none;fillColor=none;" vertex="1" parent="JTSmCUfpJjV2vMRDcCEA-8">
          <mxGeometry width="200" height="30" as="geometry" />
        </mxCell>
        <mxCell id="JTSmCUfpJjV2vMRDcCEA-6" value="" style="html=1;shadow=0;dashed=0;align=center;verticalAlign=middle;shape=mxgraph.arrows2.jumpInArrow;dy=6.67;dx=38.52;arrowHead=55;rotation=-15;" vertex="1" parent="JTSmCUfpJjV2vMRDcCEA-8">
          <mxGeometry x="64.44" y="82.03" width="71.11" height="44.83" as="geometry" />
        </mxCell>
        <mxCell id="JTSmCUfpJjV2vMRDcCEA-7" value="&lt;b&gt;XRD Mineral Phase Labels&lt;br&gt;&lt;/b&gt;" style="text;html=1;align=center;verticalAlign=middle;resizable=0;points=[];autosize=1;strokeColor=none;fillColor=none;" vertex="1" parent="JTSmCUfpJjV2vMRDcCEA-8">
          <mxGeometry x="22.402597402597404" y="140.79999999999998" width="170" height="30" as="geometry" />
        </mxCell>
      </root>
    </mxGraphModel>
  </diagram>
</mxfile>
